SplineFontDB: 1.0
FontName: Norasi-BoldOblique
FullName: Norasi Bold Oblique
FamilyName: Norasi
Weight: Bold
Copyright: Copyright (c) National Font Project NECTEC. Yannis Haralambous, Virach Sornlertlamvanich and Anutara Tantraporn, 1999. All rights reserved.\n\nModified by TLWG
Version: 1.1 : May 12, 2003
ItalicAngle: -12
UnderlinePosition: -100
UnderlineWidth: 50
Ascent: 800
Descent: 200
NeedsXUIDChange: 1
FSType: 0
PfmFamily: 17
TTFWeight: 700
TTFWidth: 5
Panose: 2 0 5 6 0 0 0 2 0 4
LineGap: 18
VLineGap: 0
ScriptLang: 2
 1 DFLT 1 dflt 
 1 thai 1 dflt 
LangName: 1033 "" "" "" "TheOmegaProject(v.beta1).YannisHaralambous,VirachSornlertlamvanichandAnutaraTantraporn: Omega3: 1999" "" "" "" "Norasi Bold is a trademark of NECTEC. Yannis Haralambous, Virach Sornlertlamvanich and Anutara Tantraporn." "" "Yannis Haralambous, Virach Sornlertlamvanich and Anutara Tantraporn" "This font was developed under the National Font Project at NECTEC as to be a free licensed font for Thai users and developers." "www.nectec.or.th/sll/" 
Encoding: compacted
OldEncoding: iso8859_1
DisplaySize: -72
AntiAlias: 1
FitToEm: 1
WinInfo: 192 8 9
BeginPrivate: 4
BlueValues 41 [-14 0 696 727 770 800 926 944 1059 1059]
OtherBlues 11 [-326 -299]
ForceBold 4 true
BlueScale 8 0.039625
EndPrivate
BeginChars: 258 225
StartChar: exclam
Encoding: 33 33 2
OldEncoding: 33
Width: 128
Flags: HW
HStem: -4 21<49 71> 441 20<147.5 171.5>
Fore
108 36 m 0
 103 13 81 -4 61 -4 c 0
 37 -4 28 9 34 36 c 0
 39 61 53 76 78 80 c 1
 103 80 113 65 108 36 c 0
183 400 m 1
 177 375 l 1
 97 116 l 1
 76 116 l 1
 91 224 98 296 105 352 c 0
 106 368 107 382 110 397 c 0
 120 440 136 461 159 461 c 0
 184 461 192 442 184 403 c 1
 183 400 l 1
EndSplineSet
Back
107.91 36.1328 m 0
 105.469 24.9023 99.1211 15.1367 89.8438 7.32422 c 0
 80.5664 0 70.8008 -3.90625 61.0352 -3.90625 c 0
 37.1094 -3.90625 27.832 9.27734 34.1797 36.1328 c 0
 38.5742 61.5234 53.2227 76.1719 78.125 80.0781 c 1
 103.516 80.0781 113.281 65.4297 107.91 36.1328 c 0
183.105 399.902 m 1
 176.758 375 l 1
 97.168 116.211 l 1
 76.1719 116.211 l 1
 83.4961 169.922 89.3555 215.82 93.2617 253.418 c 0
 97.6562 291.016 101.562 324.219 104.98 352.051 c 0
 105.469 359.863 106.445 367.676 106.934 375 c 0
 109.863 396.973 l 0
 120.117 439.453 136.23 460.938 159.18 460.938 c 0
 183.594 460.938 191.895 441.895 184.082 402.832 c 1
 183.105 399.902 l 1
EndSplineSet
EndChar
StartChar: quotedbl
Encoding: 34 34 3
OldEncoding: 34
Width: 232
Flags: HW
HStem: 262 21<104 132 132 132 210 239 239 239> 413 20<142 165.5 248 271.5>
Fore
287 389 m 1
 239 262 l 1
 210 262 l 1
 213 375 215 389 217 399 c 0
 222 422 236 433 260 433 c 0
 283 433 293 422 289 399 c 1
 287 389 l 1
181 389 m 1
 132 262 l 1
 104 262 l 1
 107 375 109 389 111 399 c 0
 116 422 130 433 154 433 c 0
 177 433 187 422 183 399 c 1
 181 389 l 1
EndSplineSet
Back
287.109 389.16 m 1
 238.77 262.207 l 1
 209.961 262.207 l 1
 210.449 290.039 211.426 312.5 211.914 329.59 c 0
 212.891 346.68 213.379 359.863 213.867 369.141 c 0
 214.844 378.418 215.332 384.766 215.332 389.16 c 0
 215.82 393.066 216.309 396.484 216.797 398.926 c 0
 221.68 421.875 235.84 433.105 259.766 433.105 c 0
 283.203 433.105 292.969 421.875 289.062 398.926 c 2
 287.109 389.16 l 1
181.152 389.16 m 1
 131.836 262.207 l 1
 104.004 262.207 l 1
 104.492 290.039 105.469 312.5 105.957 329.59 c 0
 106.445 346.68 107.422 359.863 107.91 369.141 c 0
 108.887 378.418 109.375 384.766 109.375 389.16 c 0
 109.863 393.066 110.352 396.484 110.84 398.926 c 0
 115.723 421.875 129.883 433.105 153.809 433.105 c 0
 177.246 433.105 187.012 421.875 183.105 398.926 c 2
 181.152 389.16 l 1
EndSplineSet
EndChar
StartChar: numbersign
Encoding: 35 35 4
OldEncoding: 35
Width: 365
Flags: HW
HStem: 0 196<62 118 118 118 189 244 244 244> 142 54<56 111 111 111 189 236 236 236 313 364 364 364> 266 54<100 158 158 158 234 282 282 282 357 407 407 407> 266 186<226 281 348 404>
Fore
189 196 m 1
 257 196 l 1
 282 266 l 1
 215 266 l 1
 189 196 l 1
407 266 m 1
 340 266 l 1
 313 196 l 1
 376 196 l 1
 364 142 l 1
 293 142 l 1
 244 0 l 1
 187 0 l 1
 236 142 l 1
 169 142 l 1
 118 0 l 1
 62 0 l 1
 111 142 l 1
 44 142 l 1
 56 196 l 1
 133 196 l 1
 158 266 l 1
 89 266 l 1
 100 320 l 1
 178 320 l 1
 226 452 l 1
 281 452 l 1
 234 320 l 1
 301 320 l 1
 348 452 l 1
 404 452 l 1
 357 320 l 1
 418 320 l 1
 407 266 l 1
EndSplineSet
Back
188.965 195.801 m 1
 256.836 195.801 l 1
 282.227 266.113 l 1
 214.844 266.113 l 1
 188.965 195.801 l 1
407.227 266.113 m 1
 339.844 266.113 l 1
 312.988 195.801 l 1
 375.977 195.801 l 1
 363.77 142.09 l 1
 292.969 142.09 l 1
 244.141 0 l 1
 187.012 0 l 1
 235.84 142.09 l 1
 168.945 142.09 l 1
 118.164 0 l 1
 62.0117 0 l 1
 110.84 142.09 l 1
 43.9453 142.09 l 1
 56.1523 195.801 l 1
 132.812 195.801 l 1
 158.203 266.113 l 1
 88.8672 266.113 l 1
 100.098 319.824 l 1
 178.223 319.824 l 1
 226.074 452.148 l 1
 280.762 452.148 l 1
 233.887 319.824 l 1
 300.781 319.824 l 1
 348.145 452.148 l 1
 403.809 452.148 l 1
 356.934 319.824 l 1
 417.969 319.824 l 1
 407.227 266.113 l 1
EndSplineSet
EndChar
StartChar: dollar
Encoding: 36 36 5
OldEncoding: 36
Width: 338
Flags: HW
HStem: -57 21<134 175 175 175> 3 34 491 20<255 296 255 255>
Fore
209 303 m 1
 236 429 l 1
 202 421 181 401 174 369 c 0
 171 354 174 338 181 331 c 2
 209 303 l 1
267 111 m 0
 271 130 268 147 258 162 c 1
 253 167 244 175 227 190 c 1
 195 39 l 1
 235 48 259 72 267 111 c 0
340 127 m 0
 325 58 274 16 187 2 c 1
 175 -57 l 1
 134 -57 l 1
 146 0 l 1
 104 2 66 15 32 39 c 1
 54 141 l 1
 81 141 l 1
 81 76 105 41 154 37 c 1
 191 213 l 1
 160 236 140 253 125 269 c 1
 105 296 98 325 105 356 c 0
 112 390 131 418 162 439 c 0
 189 456 214 465 245 468 c 1
 255 511 l 1
 296 511 l 1
 286 466 l 1
 330 458 l 2
 351 454 375 435 382 422 c 1
 364 339 l 1
 337 339 l 1
 339 392 319 423 278 430 c 1
 246 279 l 1
 294 244 l 1
 324 215 l 1
 342 190 347 161 340 127 c 0
EndSplineSet
MinimumDistance: x19,-1 
Back
208.984 303.223 m 1
 235.84 429.199 l 1
 202.148 420.898 181.152 400.879 173.828 369.141 c 0
 172.852 361.816 172.852 354.492 173.828 347.168 c 0
 175.293 339.844 177.734 334.473 181.152 331.055 c 2
 208.984 303.223 l 1
267.09 110.84 m 0
 270.996 130.371 268.066 147.461 257.812 162.109 c 0
 255.371 164.551 251.465 167.969 247.07 172.363 c 0
 242.188 176.758 235.84 182.617 227.051 189.941 c 1
 194.824 39.0625 l 1
 234.863 47.8516 258.789 71.7773 267.09 110.84 c 0
339.844 126.953 m 0
 324.707 57.6172 273.438 16.1133 187.012 1.95312 c 1
 174.805 -57.1289 l 1
 133.789 -57.1289 l 1
 145.996 0 l 1
 104.004 1.95312 65.918 15.1367 32.2266 39.0625 c 1
 54.1992 141.113 l 1
 81.0547 141.113 l 1
 81.0547 75.6836 105.469 41.0156 153.809 37.1094 c 1
 190.918 212.891 l 1
 175.781 224.121 162.598 234.375 151.855 243.652 c 0
 141.113 252.441 132.324 261.23 125 269.043 c 1
 104.98 295.898 98.1445 324.707 104.98 355.957 c 0
 111.816 390.137 130.859 417.48 162.109 438.965 c 0
 175.293 447.754 188.477 454.102 202.148 458.984 c 0
 215.332 463.867 229.492 466.797 245.117 467.773 c 1
 254.883 511.23 l 1
 295.898 511.23 l 1
 286.133 465.82 l 1
 330.078 458.008 l 2
 340.82 456.055 351.074 451.172 361.328 443.359 c 0
 372.07 436.035 378.906 428.711 381.836 421.875 c 1
 363.77 338.867 l 1
 336.914 338.867 l 1
 338.867 392.09 319.336 422.852 277.832 430.176 c 1
 246.094 278.809 l 1
 293.945 244.141 l 1
 324.219 214.844 l 1
 341.797 190.43 347.168 161.133 339.844 126.953 c 0
EndSplineSet
EndChar
StartChar: percent
Encoding: 37 37 6
OldEncoding: 37
Width: 534
Flags: HW
HStem: -7 21<105 158 158 158> 0 38<378.5 392.5> 195 40<159.5 168.5> 453 20<482 529 482 482>
Fore
299 382 m 0
 300 387 300 395 299 406 c 1
 289 410 280 415 271 421 c 2
 264 426 l 1
 244 424 221 405 194 368 c 0
 169 332 152 302 147 277 c 0
 141 249 149 235 170 235 c 0
 197 235 224 253 251 288 c 0
 276 320 292 351 299 382 c 0
516 180 m 0
 523 207 513 228 489 228 c 0
 466 228 440 207 409 166 c 1
 384 130 370 101 365 80 c 0
 359 52 367 38 390 38 c 0
 415 38 441 55 469 90 c 1
 496 121 509 149 516 180 c 0
554 185 m 0
 545 142 524 102 491 65 c 0
 454 22 414 0 371 0 c 0
 310 0 287 41 299 101 c 0
 308 140 331 177 370 214 c 0
 410 250 450 268 489 268 c 0
 544 268 566 240 554 185 c 0
529 473 m 1
 158 -7 l 1
 105 -7 l 1
 420 401 l 1
 401 396 383 393 368 393 c 2
 351 393 l 2
 346 393 340 394 335 395 c 1
 335 380 l 1
 328 349 317 320 294 289 c 0
 289 282 281 272 270 260 c 0
 231 217 190 195 147 195 c 0
 91 195 69 239 81 295 c 0
 89 335 112 373 151 410 c 0
 189 446 229 464 271 464 c 0
 287 464 304 457 321 444 c 1
 342 433 359 428 372 428 c 0
 405 428 442 443 482 473 c 1
 529 473 l 1
EndSplineSet
MinimumDistance: x28,-1 
Back
298.828 381.836 m 0
 300.293 387.207 300.293 395.508 298.828 405.762 c 1
 289.062 410.156 279.785 415.039 270.996 420.898 c 2
 264.16 425.781 l 1
 244.141 423.828 220.703 404.785 193.848 368.164 c 0
 181.152 350.098 170.898 333.496 163.086 318.359 c 0
 154.785 303.711 149.902 289.551 146.973 276.855 c 0
 141.113 249.023 148.438 234.863 169.922 234.863 c 0
 196.777 234.863 223.633 252.441 250.977 288.086 c 0
 263.672 304.199 273.926 319.824 282.227 335.449 c 0
 290.039 351.074 295.898 366.699 298.828 381.836 c 0
516.113 180.176 m 0
 519.531 193.359 518.555 204.59 514.16 213.867 c 0
 509.277 223.145 500.977 228.027 488.77 228.027 c 0
 466.309 228.027 439.453 207.52 409.18 166.016 c 1
 384.277 129.883 369.629 101.562 365.234 80.0781 c 0
 358.887 51.7578 367.188 38.0859 390.137 38.0859 c 0
 414.551 38.0859 440.918 55.1758 469.238 89.8438 c 0
 482.422 105.469 492.676 120.117 500 134.766 c 0
 507.324 149.902 512.695 164.551 516.113 180.176 c 0
554.199 185.059 m 0
 544.434 141.602 523.438 101.562 491.211 64.9414 c 0
 453.613 21.4844 413.574 0 371.094 0 c 0
 340.332 0 319.336 9.27734 307.617 27.832 c 0
 295.898 46.875 292.969 70.8008 298.828 101.074 c 0
 307.617 139.648 331.543 177.246 370.117 213.867 c 0
 410.156 250 449.707 268.066 488.77 268.066 c 0
 544.434 268.066 565.918 240.234 554.199 185.059 c 0
528.809 473.145 m 1
 158.203 -6.83594 l 1
 104.98 -6.83594 l 1
 419.922 400.879 l 1
 400.879 395.508 383.301 393.066 368.164 393.066 c 0
 361.816 393.066 356.445 393.066 351.074 393.066 c 0
 345.703 393.066 340.332 393.555 334.961 395.02 c 1
 334.961 379.883 l 1
 331.543 364.746 326.66 349.609 320.312 334.473 c 0
 313.965 319.336 305.176 304.199 293.945 289.062 c 0
 289.551 281.738 281.25 271.973 270.02 259.766 c 0
 231.445 216.797 190.43 194.824 146.973 194.824 c 0
 119.141 194.824 99.6094 204.59 88.3789 224.121 c 0
 77.6367 243.164 75.1953 267.09 81.0547 294.922 c 0
 88.8672 334.961 112.305 373.535 150.879 410.156 c 0
 188.965 445.801 229.004 463.867 270.996 463.867 c 0
 287.109 463.867 303.711 457.52 320.801 443.848 c 1
 342.285 433.105 359.375 428.223 372.07 428.223 c 0
 405.273 428.223 441.895 442.871 481.934 473.145 c 1
 528.809 473.145 l 1
EndSplineSet
EndChar
StartChar: ampersand
Encoding: 38 38 7
OldEncoding: 38
Width: 517
Flags: HW
HStem: -7 49 424 37<312.5 338.5>
Fore
358 377 m 0
 365 404 351 424 326 424 c 0
 299 424 282 408 275 375 c 0
 270 351 270 326 278 295 c 1
 325 319 352 346 358 377 c 0
182 42 m 0
 203 42 232 54 269 78 c 1
 248 113 228 161 208 221 c 1
 163 189 l 1
 140 169 129 147 125 127 c 0
 116 83 139 42 182 42 c 0
519 77 m 1
 512 62 502 48 490 36 c 1
 457 8 426 -7 391 -7 c 0
 356 -7 323 11 290 47 c 1
 245 18 l 2
 218 2 170 -7 135 -7 c 0
 62 -7 24 30 40 103 c 0
 52 158 98 207 178 249 c 2
 199 260 l 1
 192 315 194 333 197 348 c 0
 210 409 267 461 331 461 c 0
 386 461 423 430 411 374 c 0
 405 343 387 317 356 294 c 0
 345 285 323 273 288 257 c 1
 300 215 317 177 338 142 c 1
 381 186 404 221 409 245 c 0
 412 259 400 266 372 266 c 1
 378 298 l 1
 540 298 l 1
 534 267 l 1
 514 264 500 261 493 258 c 0
 484 255 474 246 462 231 c 2
 440 202 l 2
 413 167 385 135 357 106 c 1
 366 85 382 70 406 61 c 0
 411 58 420 56 431 56 c 0
 444 56 454 58 463 63 c 1
 472 66 481 77 500 94 c 1
 519 77 l 1
EndSplineSet
Back
357.91 376.953 m 0
 361.328 390.137 359.863 401.367 354.004 410.645 c 0
 348.145 419.434 338.867 423.828 326.172 423.828 c 0
 299.316 423.828 282.227 407.715 274.902 375 c 0
 272.461 362.793 270.996 350.586 271.484 337.402 c 0
 271.973 324.707 273.926 310.547 277.832 294.922 c 1
 325.195 318.848 352.051 346.191 357.91 376.953 c 0
182.129 41.9922 m 0
 203.125 41.9922 232.422 54.1992 269.043 78.125 c 1
 258.301 95.2148 248.047 116.211 237.793 140.137 c 0
 228.027 164.062 217.773 190.918 208.008 221.191 c 1
 163.086 188.965 l 1
 151.855 179.199 143.066 168.457 137.207 158.203 c 0
 130.859 147.461 126.953 137.207 125 126.953 c 0
 120.117 104.98 123.535 85.4492 133.789 67.8711 c 0
 144.531 50.7812 160.645 41.9922 182.129 41.9922 c 0
519.043 77.1484 m 1
 511.719 61.5234 501.953 47.8516 490.234 36.1328 c 1
 473.145 21.9727 457.031 11.2305 440.918 3.90625 c 0
 424.805 -3.41797 408.203 -6.83594 391.113 -6.83594 c 0
 356.445 -6.83594 322.754 11.2305 290.039 46.875 c 1
 245.117 18.0664 l 2
 238.281 14.1602 230.469 10.2539 221.68 6.83594 c 0
 212.402 3.90625 203.125 0.976562 192.871 -0.976562 c 0
 183.105 -2.92969 172.852 -4.39453 163.086 -5.37109 c 0
 152.832 -6.34766 143.555 -6.83594 134.766 -6.83594 c 0
 98.1445 -6.83594 71.2891 1.95312 54.1992 20.5078 c 0
 36.6211 39.0625 32.2266 66.4062 40.0391 103.027 c 0
 51.7578 158.203 98.1445 207.031 178.223 249.023 c 2
 199.219 259.766 l 1
 195.801 287.109 194.336 307.129 194.336 318.848 c 0
 194.824 331.055 195.801 340.82 196.777 348.145 c 0
 200.195 363.281 206.055 377.93 214.355 391.602 c 0
 222.656 405.273 232.91 416.992 245.117 427.734 c 0
 256.836 437.988 270.508 445.801 285.156 452.148 c 0
 299.805 458.008 314.941 460.938 331.055 460.938 c 0
 358.398 460.938 379.883 453.613 395.996 438.477 c 0
 412.109 423.34 416.992 401.855 411.133 374.023 c 0
 404.785 343.262 386.719 316.895 355.957 293.945 c 0
 350.586 289.551 342.285 284.18 331.055 277.832 c 0
 319.824 271.973 305.176 265.137 288.086 256.836 c 1
 299.805 214.844 316.895 176.758 337.891 142.09 c 1
 359.375 164.062 375.977 183.594 387.695 201.172 c 0
 398.926 218.262 406.25 232.91 409.18 245.117 c 0
 412.109 258.789 399.902 266.113 372.07 266.113 c 1
 377.93 297.852 l 1
 540.039 297.852 l 1
 534.18 267.09 l 1
 523.926 265.625 515.625 264.16 508.301 262.695 c 0
 501.465 260.742 496.094 259.277 493.164 257.812 c 0
 484.375 254.883 474.121 245.605 461.914 230.957 c 2
 439.941 202.148 l 2
 426.758 184.57 413.086 167.969 398.926 151.855 c 0
 384.766 136.23 371.094 120.605 356.934 105.957 c 1
 365.723 85.4492 381.836 70.3125 405.762 61.0352 c 1
 411.133 57.6172 419.434 56.1523 431.152 56.1523 c 0
 443.848 56.1523 454.102 58.1055 462.891 62.9883 c 0
 467.773 64.4531 472.656 67.8711 478.027 73.2422 c 0
 483.398 78.125 490.723 85.4492 500 94.2383 c 1
 519.043 77.1484 l 1
EndSplineSet
EndChar
StartChar: quotesingle
Encoding: 39 39 8
OldEncoding: 39
Width: 135
Flags: HW
HStem: 272 21<99 99> 422 20<145.5 160.5>
Fore
173 439 m 1
 192 430 205 407 197 374 c 0
 181 303 99 272 99 272 c 1
 95 297 l 1
 95 297 101 298 110 305 c 0
 129 317 151 337 155 357 c 2
 156 362 l 1
 151 361 147 360 140 360 c 0
 117 360 101 377 106 400 c 0
 111 424 134 442 157 442 c 0
 164 442 170 442 173 439 c 1
EndSplineSet
Back
172.852 438.965 m 0
 171.875 440.43 169.434 441.406 166.504 441.406 c 0
 163.574 441.895 160.156 441.895 157.227 441.895 c 0
 145.508 441.895 134.766 437.988 125 430.176 c 0
 115.234 421.875 108.887 412.109 105.957 399.902 c 0
 103.516 388.672 105.469 379.395 112.305 371.582 c 0
 119.629 363.77 128.906 359.863 140.137 359.863 c 0
 143.555 359.863 145.996 360.352 148.438 360.352 c 0
 155.762 361.816 l 1
 154.785 356.934 l 2
 152.832 347.168 147.461 337.402 138.184 328.125 c 0
 128.906 318.848 119.141 311.035 109.863 305.176 c 0
 105.469 301.758 101.562 299.316 99.1211 298.34 c 0
 96.1914 297.363 95.2148 296.875 95.2148 296.875 c 1
 99.1211 271.973 l 1
 99.1211 271.973 103.516 273.926 111.816 277.832 c 0
 120.605 282.227 130.859 288.086 142.09 296.387 c 0
 153.32 304.688 164.551 315.43 174.805 328.125 c 0
 185.547 340.82 192.871 355.957 196.777 374.023 c 0
 201.172 390.625 200.195 404.297 194.824 415.527 c 0
 189.453 426.27 182.129 434.57 172.852 438.965 c 0
EndSplineSet
EndChar
StartChar: parenleft
Encoding: 40 40 9
OldEncoding: 40
Width: 210
Flags: HW
HStem: -121 21<149 149> 460 20<279 279>
Fore
149 -121 m 1
 54 -52 22 57 50 186 c 0
 76 309 152 407 279 480 c 1
 288 455 l 1
 247 426 217 398 196 371 c 0
 162 329 134 246 121 185 c 0
 104 105 102 74 106 50 c 0
 115 -15 129 -62 172 -97 c 1
 149 -121 l 1
EndSplineSet
Back
148.926 -121.094 m 1
 101.562 -86.4258 69.8242 -42.4805 53.7109 9.76562 c 0
 37.1094 62.5 36.1328 121.094 49.8047 186.035 c 0
 76.1719 309.57 152.344 407.227 278.809 479.98 c 1
 288.086 455.078 l 1
 247.559 426.27 216.797 398.438 195.801 371.094 c 0
 187.5 360.352 179.199 347.656 171.875 332.52 c 0
 164.551 317.383 157.715 301.758 150.879 285.156 c 0
 144.531 268.555 138.672 251.465 133.301 233.887 c 0
 128.418 216.797 124.512 200.195 121.094 185.059 c 0
 112.305 145.02 106.934 115.723 105.469 96.6797 c 0
 104.004 77.6367 104.004 62.0117 105.957 49.8047 c 0
 110.84 17.0898 117.676 -11.2305 126.465 -35.1562 c 0
 135.742 -59.082 150.879 -79.5898 171.875 -97.168 c 1
 148.926 -121.094 l 1
EndSplineSet
EndChar
StartChar: parenright
Encoding: 41 41 10
OldEncoding: 41
Width: 210
Flags: HW
HStem: -122 21<8 8> 459 20<134 134>
Fore
8 -122 m 1
 -5 -98 l 1
 54 -63 88 -16 124 49 c 1
 139 72 150 105 166 184 c 0
 179 245 187 328 171 370 c 0
 160 397 142 425 115 454 c 1
 134 479 l 1
 229 406 264 308 238 185 c 0
 211 56 133 -53 8 -122 c 1
EndSplineSet
Back
7.8125 -122.07 m 1
 70.8008 -87.4023 121.094 -43.457 160.156 8.78906 c 0
 198.73 61.5234 224.609 120.117 237.793 185.059 c 0
 264.16 308.105 229.492 406.25 133.789 479.004 c 1
 115.234 454.102 l 1
 141.602 425.293 160.156 397.461 170.898 370.117 c 0
 174.805 359.375 177.734 346.68 178.711 331.543 c 0
 179.688 316.406 179.688 300.781 179.199 284.18 c 0
 178.223 267.09 176.758 250.488 174.316 232.91 c 0
 172.363 215.82 169.434 199.219 166.016 184.082 c 0
 162.109 164.062 158.203 146.973 154.297 132.324 c 0
 150.879 118.164 147.461 105.957 144.043 95.7031 c 0
 140.625 84.9609 137.695 76.1719 134.277 68.8477 c 0
 131.348 61.5234 127.93 55.1758 124.023 48.8281 c 0
 105.957 16.1133 87.4023 -12.207 67.8711 -36.1328 c 0
 48.8281 -60.0586 24.4141 -80.5664 -4.88281 -98.1445 c 1
 7.8125 -122.07 l 1
EndSplineSet
EndChar
StartChar: asterisk
Encoding: 42 42 11
OldEncoding: 42
Width: 297
Flags: HW
HStem: 174 21<173.5 197> 442 20<234.5 258>
Fore
321 291 m 0
 338 280 341 266 325 246 c 0
 310 227 294 224 277 236 c 1
 259 246 242 281 226 291 c 1
 221 269 230 233 225 210 c 0
 220 186 209 174 185 174 c 0
 162 174 156 186 161 210 c 0
 166 233 190 269 195 291 c 1
 173 280 143 249 120 236 c 0
 97 224 82 227 75 246 c 1
 70 265 78 280 100 291 c 0
 122 303 164 308 186 319 c 1
 170 329 130 334 111 345 c 0
 94 356 92 371 106 390 c 0
 121 409 138 412 155 400 c 1
 173 390 190 355 206 345 c 1
 210 368 202 403 207 427 c 0
 212 450 223 462 246 462 c 0
 270 462 276 450 271 427 c 0
 266 403 242 367 237 345 c 1
 258 356 289 390 312 400 c 1
 334 412 349 409 356 390 c 0
 363 371 355 356 332 345 c 0
 309 335 268 329 247 319 c 1
 263 308 302 304 321 291 c 0
EndSplineSet
Back
320.801 291.016 m 0
 316.406 294.434 310.547 296.875 303.711 298.828 c 0
 296.387 300.781 289.551 303.223 282.715 305.176 c 0
 275.391 307.129 269.043 309.082 262.695 311.523 c 0
 256.348 313.965 250.977 316.406 247.07 318.848 c 1
 252.441 321.777 258.789 323.73 266.113 325.684 c 0
 273.438 327.148 280.762 329.102 289.062 331.055 c 0
 296.875 333.008 304.688 334.961 312.012 337.402 c 0
 319.336 339.844 326.172 342.285 332.031 345.215 c 0
 354.492 356.445 362.793 371.094 355.957 390.137 c 0
 348.633 408.691 333.984 412.109 312.012 399.902 c 0
 306.152 397.461 299.805 393.555 293.457 388.672 c 0
 287.109 383.301 280.762 377.93 273.926 372.559 c 0
 267.09 366.699 260.742 361.328 254.395 356.445 c 0
 248.047 351.562 242.188 347.656 236.816 345.215 c 1
 238.281 350.098 240.723 356.445 244.141 363.281 c 0
 247.559 370.605 250.488 377.441 253.906 384.766 c 0
 257.324 392.09 260.742 399.902 264.16 407.227 c 0
 267.09 414.551 269.531 420.898 270.996 426.758 c 0
 273.438 438.477 272.949 446.777 269.531 453.125 c 0
 265.625 458.984 257.812 461.914 246.094 461.914 c 0
 234.863 461.914 226.074 458.984 220.215 453.125 c 0
 213.867 446.777 209.473 438.477 207.031 426.758 c 0
 204.102 415.039 204.102 401.367 206.055 385.742 c 0
 208.008 369.629 208.008 356.445 206.055 345.215 c 1
 202.148 347.656 198.242 351.562 193.848 356.445 c 0
 189.941 361.328 186.035 366.699 181.641 372.559 c 0
 168.457 388.672 l 0
 164.062 393.555 159.668 397.461 154.785 399.902 c 0
 137.695 412.109 121.094 408.691 105.957 390.137 c 0
 91.7969 371.094 93.75 356.445 110.84 345.215 c 0
 115.723 342.285 121.582 339.844 128.418 337.402 c 0
 135.742 334.961 142.578 333.008 149.414 331.055 c 0
 156.738 329.102 163.574 327.148 169.922 325.684 c 0
 176.758 323.73 182.129 321.777 186.035 318.848 c 1
 180.664 316.406 174.316 313.965 166.504 311.523 c 0
 158.691 309.082 150.879 307.129 143.066 305.176 c 0
 134.766 303.223 127.441 300.781 120.117 298.828 c 0
 112.793 296.875 105.957 294.434 100.098 291.016 c 0
 78.125 279.785 69.8242 264.648 75.1953 246.094 c 0
 82.5195 227.539 97.168 224.121 120.117 235.84 c 0
 125.977 239.258 132.324 243.652 138.672 248.535 c 0
 145.02 253.418 151.367 258.789 158.203 264.16 c 0
 164.551 269.531 171.387 274.414 177.734 279.297 c 0
 183.594 284.668 189.453 288.574 194.824 291.016 c 1
 193.848 285.645 191.406 279.297 187.988 272.461 c 0
 184.57 265.625 181.152 258.301 177.734 250.977 c 0
 173.828 243.652 170.41 236.328 167.48 229.492 c 0
 164.551 222.656 162.109 215.82 161.133 209.961 c 0
 158.203 198.242 158.691 188.965 162.598 183.105 c 0
 166.016 176.758 173.828 173.828 185.059 173.828 c 0
 196.777 173.828 206.055 176.758 211.914 183.105 c 0
 217.773 188.965 222.168 198.242 225.098 209.961 c 0
 226.562 215.82 227.051 222.656 226.562 229.492 c 0
 226.074 236.328 226.074 243.652 225.586 250.977 c 0
 225.098 258.301 224.609 265.625 224.609 272.461 c 0
 224.121 279.297 224.609 285.645 226.074 291.016 c 1
 229.98 288.574 233.887 284.668 237.793 279.297 c 0
 242.188 274.414 246.094 269.043 250.488 263.672 c 0
 254.883 257.812 259.277 252.441 263.672 247.559 c 0
 268.066 242.676 272.461 238.77 276.855 235.84 c 0
 294.434 224.121 310.547 227.539 325.195 246.094 c 0
 333.008 255.859 336.426 264.648 335.449 271.973 c 0
 334.473 279.297 329.59 285.645 320.801 291.016 c 0
EndSplineSet
EndChar
StartChar: plus
Encoding: 43 43 12
OldEncoding: 43
Width: 387
Flags: HW
HStem: 0 21<168 220 220 220> 152 51<60 200 200 200 263 402 402 402> 334 20<243 295 243 243>
Fore
402 152 m 1
 252 152 l 1
 220 0 l 1
 168 0 l 1
 200 152 l 1
 49 152 l 1
 60 203 l 1
 211 203 l 1
 243 354 l 1
 295 354 l 1
 263 203 l 1
 413 203 l 1
 402 152 l 1
EndSplineSet
MinimumDistance: x3,-1 
Back
401.855 151.855 m 1
 251.953 151.855 l 1
 220.215 0 l 1
 167.969 0 l 1
 200.195 151.855 l 1
 48.8281 151.855 l 1
 60.0586 203.125 l 1
 210.938 203.125 l 1
 243.164 354.004 l 1
 294.922 354.004 l 1
 263.184 203.125 l 1
 413.086 203.125 l 1
 401.855 151.855 l 1
EndSplineSet
EndChar
StartChar: comma
Encoding: 44 44 13
OldEncoding: 44
Width: 142
Flags: HW
HStem: -90 21<21.5 22> -2 21<51.5 66.5> 60 20<68.5 83.5>
Fore
96 77 m 1
 115 68 128 45 121 12 c 0
 106 -59 21 -90 22 -90 c 1
 18 -65 l 1
 18 -65 24 -64 33 -57 c 0
 52 -45 74 -25 78 -5 c 2
 79 0 l 1
 74 -1 70 -2 63 -2 c 0
 40 -2 24 15 29 38 c 0
 34 62 57 80 80 80 c 0
 87 80 93 80 96 77 c 1
EndSplineSet
Back
96.1914 77.1484 m 0
 94.7266 78.125 92.2852 79.1016 89.3555 79.5898 c 0
 86.4258 79.5898 83.4961 80.0781 80.0781 80.0781 c 0
 68.8477 80.0781 58.1055 76.1719 47.8516 67.8711 c 0
 38.0859 60.0586 31.7383 49.8047 28.8086 38.0859 c 0
 26.3672 26.8555 28.3203 17.0898 35.6445 9.27734 c 0
 42.4805 1.95312 51.7578 -1.95312 62.9883 -1.95312 c 0
 66.4062 -1.95312 69.3359 -1.95312 71.2891 -1.46484 c 0
 73.7305 -0.976562 76.1719 -0.488281 79.1016 0 c 1
 78.125 -4.88281 l 2
 76.1719 -15.1367 70.3125 -24.9023 61.0352 -34.1797 c 0
 51.7578 -43.457 42.4805 -50.7812 33.2031 -57.1289 c 0
 28.3203 -60.5469 24.9023 -62.5 21.9727 -63.4766 c 0
 19.5312 -64.4531 18.0664 -64.9414 18.0664 -64.9414 c 1
 21.9727 -89.8438 l 1
 21.9727 -89.8438 26.3672 -87.8906 35.1562 -83.9844 c 0
 43.457 -80.0781 53.7109 -73.7305 65.4297 -65.4297 c 0
 77.1484 -57.1289 88.3789 -46.875 99.1211 -34.1797 c 0
 109.863 -21.4844 117.188 -5.85938 121.094 12.207 c 0
 124.512 28.8086 123.535 42.4805 118.164 53.7109 c 0
 112.793 64.4531 105.469 72.2656 96.1914 77.1484 c 0
EndSplineSet
EndChar
StartChar: hyphen
Encoding: 45 45 14
OldEncoding: 45
Width: 279
Flags: HW
HStem: 83 33<55 265 265 265>
Fore
265 83 m 1
 48 83 l 1
 55 116 l 1
 272 116 l 1
 265 83 l 1
EndSplineSet
Back
265.137 83.0078 m 1
 47.8516 83.0078 l 1
 55.1758 116.211 l 1
 271.973 116.211 l 1
 265.137 83.0078 l 1
EndSplineSet
EndChar
StartChar: period
Encoding: 46 46 15
OldEncoding: 46
Width: 122
Flags: HW
HStem: -5 21<48 68> 51 20<63.5 84>
Fore
106 32 m 0
 101 11 78 -5 58 -5 c 0
 38 -5 23 11 28 32 c 0
 32 53 53 71 74 71 c 0
 94 71 110 52 106 32 c 0
EndSplineSet
Back
105.957 32.2266 m 0
 103.516 21.4844 97.168 12.6953 87.4023 5.37109 c 0
 77.6367 -1.46484 67.8711 -4.88281 58.1055 -4.88281 c 0
 47.8516 -4.88281 40.0391 -1.46484 33.6914 5.37109 c 0
 27.3438 12.6953 25.3906 21.4844 27.832 32.2266 c 0
 29.7852 42.4805 35.6445 51.7578 44.4336 59.5703 c 0
 53.7109 67.3828 63.4766 70.8008 74.2188 70.8008 c 0
 83.9844 70.8008 92.2852 66.8945 99.1211 59.082 c 0
 105.469 50.7812 107.91 41.9922 105.957 32.2266 c 0
EndSplineSet
EndChar
StartChar: slash
Encoding: 47 47 16
OldEncoding: 47
Width: 245
Flags: HW
HStem: -117 21<-22 30 30 30> 457 20<290 343 290 290>
Fore
343 477 m 1
 30 -117 l 1
 -22 -117 l 1
 290 477 l 1
 343 477 l 1
EndSplineSet
Back
342.773 477.051 m 1
 29.7852 -117.188 l 1
 -21.9727 -117.188 l 1
 290.039 477.051 l 1
 342.773 477.051 l 1
EndSplineSet
EndChar
StartChar: zero
Encoding: 48 48 17
OldEncoding: 48
Width: 353
Flags: HW
HStem: -8 33<156.5 202> 428 33<242.5 292>
Fore
298 226 m 0
 327 361 317 428 267 428 c 0
 218 428 179 361 150 226 c 0
 122 92 132 25 181 25 c 0
 231 25 270 92 298 226 c 0
378 226 m 0
 366 169 347 120 318 79 c 0
 278 21 230 -8 174 -8 c 0
 59 -8 49 123 70 226 c 0
 91 327 161 461 274 461 c 0
 331 461 366 432 380 373 c 0
 391 332 390 283 378 226 c 0
EndSplineSet
Back
297.852 226.074 m 0
 327.148 360.84 316.895 428.223 267.09 428.223 c 0
 218.262 428.223 179.199 360.84 149.902 226.074 c 0
 122.07 91.7969 132.324 24.9023 181.152 24.9023 c 0
 230.957 24.9023 270.02 91.7969 297.852 226.074 c 0
377.93 226.074 m 0
 372.07 197.266 364.258 170.898 354.492 146.484 c 0
 344.727 122.07 332.52 99.6094 317.871 79.1016 c 0
 277.832 20.9961 229.98 -7.8125 173.828 -7.8125 c 0
 145.508 -7.8125 123.047 -0.488281 106.445 14.1602 c 0
 90.332 28.8086 78.125 47.3633 70.8008 70.3125 c 0
 63.4766 93.2617 60.5469 118.652 61.0352 145.996 c 0
 61.5234 173.34 64.4531 200.195 69.8242 226.074 c 0
 75.1953 251.465 83.4961 277.832 95.2148 305.664 c 0
 106.445 333.008 120.605 358.398 137.695 381.348 c 0
 154.297 404.297 174.316 423.34 197.266 438.477 c 0
 220.703 453.613 246.094 460.938 273.926 460.938 c 0
 330.566 460.938 366.211 431.641 379.883 373.047 c 0
 390.625 331.543 390.137 282.715 377.93 226.074 c 0
EndSplineSet
EndChar
StartChar: one
Encoding: 49 49 18
OldEncoding: 49
Width: 219
Flags: HW
HStem: 0 27<25 46.5 201 207 207 207> 442 20<230 230>
Fore
207 0 m 1
 19 0 l 1
 25 27 l 1
 68 27 84 34 92 69 c 1
 155 367 l 2
 158 382 155 389 148 389 c 0
 145 389 127 383 93 371 c 1
 98 397 l 1
 230 462 l 1
 247 459 l 1
 161 58 l 2
 158 43 159 33 166 30 c 1
 166 31 l 1
 173 28 189 27 213 27 c 1
 207 0 l 1
EndSplineSet
Back
207.031 0 m 1
 19.043 0 l 1
 24.9023 26.8555 l 1
 46.3867 26.8555 62.0117 29.7852 71.2891 35.1562 c 0
 81.0547 40.5273 87.8906 51.7578 91.7969 68.8477 c 1
 154.785 367.188 l 1
 157.715 381.836 155.273 389.16 147.949 389.16 c 0
 145.508 389.16 126.953 382.812 92.7734 371.094 c 1
 98.1445 396.973 l 1
 229.98 461.914 l 1
 247.07 458.984 l 1
 161.133 58.1055 l 2
 157.715 42.4805 159.18 33.2031 166.016 29.7852 c 1
 166.016 30.7617 l 1
 173.34 28.3203 188.965 26.8555 212.891 26.8555 c 1
 207.031 0 l 1
EndSplineSet
EndChar
StartChar: two
Encoding: 50 50 19
OldEncoding: 50
Width: 346
Flags: HW
HStem: 0 66<128 261> 396 65<224 247.5>
Fore
349 104 m 1
 287 0 l 1
 22 0 l 1
 26 19 l 1
 170 147 l 2
 236 206 275 260 286 310 c 0
 298 366 275 396 220 396 c 0
 199 396 179 387 162 370 c 0
 150 359 135 338 116 307 c 1
 89 315 l 1
 122 404 182 461 266 461 c 0
 337 461 380 407 364 334 c 0
 354 285 314 230 244 168 c 2
 128 66 l 1
 261 66 l 2
 274 66 285 69 294 75 c 0
 299 79 309 90 326 113 c 1
 349 104 l 1
EndSplineSet
MinimumDistance: x6,-1 
Back
349.121 104.004 m 1
 287.109 0 l 1
 21.9727 0 l 1
 25.8789 19.043 l 1
 169.922 146.973 l 2
 235.84 205.566 274.902 259.766 286.133 310.059 c 0
 291.992 337.891 289.551 359.375 277.832 374.023 c 0
 266.602 388.672 247.559 395.996 220.215 395.996 c 0
 198.73 395.996 179.199 387.207 162.109 370.117 c 0
 149.902 358.887 134.766 337.891 116.211 307.129 c 1
 88.8672 314.941 l 1
 105.469 359.863 128.906 395.02 158.691 421.387 c 0
 187.988 447.754 224.121 460.938 266.113 460.938 c 0
 284.18 460.938 299.805 458.008 313.477 451.66 c 0
 327.148 445.312 338.379 436.523 347.656 424.805 c 0
 356.445 413.574 362.305 400.391 365.723 384.277 c 0
 368.652 368.652 368.164 352.051 363.77 333.984 c 0
 354.004 285.156 313.965 229.98 244.141 167.969 c 2
 127.93 65.918 l 1
 261.23 65.918 l 2
 274.414 65.918 285.156 68.8477 293.945 75.1953 c 0
 296.875 77.1484 300.293 81.0547 305.664 86.9141 c 0
 310.547 92.7734 317.383 101.562 326.172 112.793 c 1
 349.121 104.004 l 1
EndSplineSet
EndChar
StartChar: three
Encoding: 51 51 20
OldEncoding: 51
Width: 310
Flags: HW
HStem: -8 21<92.5 126.5> 404 57<223.5 241.5>
Fore
321 150 m 0
 310 99 282 59 237 30 c 1
 198 3 152 -8 101 -8 c 0
 84 -8 71 -5 60 -1 c 0
 45 4 27 16 32 37 c 0
 37 60 55 68 71 68 c 0
 80 68 95 64 114 49 c 1
 133 36 147 31 155 31 c 0
 179 31 200 41 217 60 c 0
 234 78 245 99 250 124 c 0
 253 139 254 151 251 160 c 0
 240 196 209 217 140 217 c 1
 142 241 l 1
 219 264 262 298 271 345 c 0
 279 381 259 404 224 404 c 0
 190 404 155 380 120 333 c 1
 94 341 l 1
 135 421 190 461 257 461 c 0
 318 461 358 428 345 365 c 0
 337 330 313 300 273 274 c 1
 288 265 299 255 307 246 c 0
 327 223 328 185 321 150 c 0
EndSplineSet
Back
320.801 149.902 m 0
 310.547 99.1211 282.227 59.5703 236.816 29.7852 c 0
 217.773 16.6016 196.289 6.83594 173.34 0.976562 c 0
 150.391 -4.88281 126.465 -7.8125 101.074 -7.8125 c 0
 92.2852 -7.8125 84.4727 -7.32422 78.125 -5.85938 c 0
 71.2891 -4.88281 65.4297 -2.92969 60.0586 -0.976562 c 0
 52.7344 1.46484 45.4102 5.85938 38.5742 12.207 c 0
 31.7383 18.0664 29.2969 26.3672 32.2266 37.1094 c 0
 34.668 48.3398 40.0391 56.1523 47.3633 61.0352 c 0
 55.1758 65.4297 62.9883 67.8711 70.8008 67.8711 c 0
 75.6836 67.8711 81.543 66.8945 88.8672 63.9648 c 0
 96.1914 61.5234 104.492 56.1523 113.77 48.8281 c 0
 123.535 42.4805 131.348 37.5977 138.672 35.1562 c 0
 145.508 32.2266 150.879 30.7617 154.785 30.7617 c 0
 179.199 30.7617 199.707 40.5273 216.797 60.0586 c 0
 234.375 78.125 245.117 99.1211 250 124.023 c 0
 253.418 139.16 253.906 151.367 250.977 160.156 c 0
 245.605 178.223 234.375 191.895 217.285 202.148 c 0
 200.684 211.914 174.805 216.797 140.137 216.797 c 1
 142.09 241.211 l 1
 218.75 263.672 261.719 298.34 270.996 345.215 c 0
 274.902 362.793 272.461 377.441 263.672 388.184 c 0
 254.395 398.438 241.211 403.809 224.121 403.809 c 0
 189.941 403.809 155.273 380.371 120.117 333.008 c 1
 94.2383 340.82 l 1
 135.254 420.898 189.453 460.938 256.836 460.938 c 0
 287.598 460.938 311.523 452.637 329.102 436.523 c 0
 346.191 420.41 351.562 396.484 345.215 365.234 c 0
 336.914 330.566 312.988 299.805 272.949 273.926 c 1
 280.273 269.531 286.621 264.648 292.48 259.766 c 0
 298.34 255.371 303.223 250.488 307.129 246.094 c 0
 316.895 234.863 322.754 220.215 324.219 202.637 c 0
 325.195 185.059 324.219 167.48 320.801 149.902 c 0
EndSplineSet
EndChar
StartChar: four
Encoding: 52 52 21
OldEncoding: 52
Width: 326
Flags: HW
HStem: 0 21<181 249 249 249> 108 58<91 204 204 204 284 334 334 334> 432 20<302 345 302 302>
Fore
215 166 m 1
 254 346 l 1
 91 166 l 1
 215 166 l 1
334 108 m 1
 272 108 l 1
 249 0 l 1
 181 0 l 1
 204 108 l 1
 27 108 l 1
 38 160 l 1
 302 452 l 1
 345 452 l 1
 284 166 l 1
 346 166 l 1
 334 108 l 1
EndSplineSet
Back
214.844 166.016 m 1
 253.906 346.191 l 1
 90.8203 166.016 l 1
 214.844 166.016 l 1
333.984 107.91 m 1
 271.973 107.91 l 1
 249.023 0 l 1
 181.152 0 l 1
 204.102 107.91 l 1
 26.8555 107.91 l 1
 38.0859 160.156 l 1
 301.758 452.148 l 1
 345.215 452.148 l 1
 284.18 166.016 l 1
 346.191 166.016 l 1
 333.984 107.91 l 1
EndSplineSet
EndChar
StartChar: five
Encoding: 53 53 22
OldEncoding: 53
Width: 318
Flags: HW
HStem: -8 21<74 127.5> 386 68<208 327 327 333.5> 456 20<378 378>
Fore
394 461 m 1
 353 396 l 2
 348 389 340 386 327 386 c 2
 208 386 l 1
 179 345 l 1
 248 333 288 305 307 274 c 0
 324 247 327 193 319 156 c 0
 309 105 282 65 238 35 c 0
 196 6 151 -8 104 -8 c 0
 44 -8 17 8 23 39 c 0
 28 62 51 73 66 73 c 0
 82 73 99 65 116 50 c 0
 129 38 142 33 151 33 c 0
 176 33 197 44 216 67 c 0
 235 88 245 113 252 142 c 0
 262 186 249 219 213 242 c 0
 182 261 147 272 108 272 c 0
 99 272 95 277 97 286 c 2
 98 291 l 1
 206 454 l 1
 346 454 l 2
 353 454 364 461 378 476 c 1
 394 461 l 1
EndSplineSet
MinimumDistance: x0,-1 
Back
394.043 460.938 m 1
 353.027 395.996 l 2
 348.145 389.16 339.844 386.23 327.148 386.23 c 2
 208.008 386.23 l 1
 179.199 345.215 l 1
 213.867 338.867 241.211 329.59 262.207 316.406 c 0
 282.715 303.711 297.852 289.551 307.129 273.926 c 0
 315.43 260.742 320.801 242.188 322.266 219.238 c 0
 324.219 195.801 323.242 174.805 318.848 155.762 c 0
 309.082 105.469 282.227 64.9414 237.793 35.1562 c 0
 195.801 6.34766 151.367 -7.8125 104.004 -7.8125 c 0
 43.9453 -7.8125 17.0898 7.8125 22.9492 39.0625 c 0
 25.8789 50.293 31.7383 58.5938 41.0156 64.4531 c 0
 50.293 70.3125 58.5938 73.2422 65.918 73.2422 c 0
 82.0312 73.2422 98.6328 65.4297 116.211 49.8047 c 0
 122.559 43.9453 128.906 39.5508 134.766 37.1094 c 0
 141.113 34.1797 146.484 33.2031 150.879 33.2031 c 0
 175.781 33.2031 197.266 44.4336 215.82 66.8945 c 0
 225.098 77.6367 232.91 89.3555 238.281 101.562 c 0
 244.141 113.77 248.535 127.441 251.953 142.09 c 0
 262.207 186.035 249.023 219.238 212.891 242.188 c 0
 197.754 251.465 181.152 258.789 163.574 264.16 c 0
 145.996 269.531 127.441 271.973 107.91 271.973 c 0
 98.6328 271.973 95.2148 276.855 97.168 286.133 c 2
 98.1445 291.016 l 1
 206.055 454.102 l 1
 346.191 454.102 l 2
 353.516 454.102 363.77 461.426 377.93 476.074 c 1
 394.043 460.938 l 1
EndSplineSet
EndChar
StartChar: six
Encoding: 54 54 23
OldEncoding: 54
Width: 330
Flags: HW
HStem: -8 21<106.5 208.5> 441 20<317.5 392>
Fore
260 124 m 0
 278 207 261 248 209 248 c 0
 188 248 170 244 155 232 c 1
 148 220 141 201 134 174 c 0
 121 113 116 27 180 27 c 0
 225 27 249 73 260 124 c 0
341 150 m 0
 322 61 255 -8 162 -8 c 0
 51 -8 37 97 59 197 c 0
 91 341 243 461 392 461 c 1
 390 435 l 1
 290 418 214 361 171 274 c 1
 182 279 189 282 200 286 c 0
 217 292 233 295 247 295 c 0
 326 295 357 233 341 150 c 0
EndSplineSet
Back
259.766 124.023 m 0
 277.832 206.543 261.23 248.047 208.984 248.047 c 0
 198.242 248.047 188.477 247.07 179.688 244.629 c 0
 170.41 242.188 162.109 237.793 154.785 231.934 c 1
 151.855 226.074 147.949 218.262 144.531 208.496 c 0
 140.625 198.73 137.207 187.5 133.789 173.828 c 0
 130.859 158.691 127.93 142.09 126.465 125 c 0
 125 107.91 125.488 91.7969 127.93 77.6367 c 0
 130.859 62.9883 136.23 51.2695 144.043 41.5039 c 0
 151.855 31.7383 164.062 26.8555 180.176 26.8555 c 0
 191.406 26.8555 201.172 29.7852 209.961 35.1562 c 0
 218.75 40.5273 226.562 47.3633 232.91 56.6406 c 0
 239.746 65.4297 245.117 75.6836 249.512 87.4023 c 0
 253.906 99.1211 257.324 111.328 259.766 124.023 c 0
340.82 149.902 m 0
 336.426 127.93 328.613 107.422 317.871 87.8906 c 0
 307.129 68.8477 294.434 51.7578 278.809 37.5977 c 0
 263.672 22.9492 246.094 12.207 226.562 3.90625 c 0
 207.031 -3.90625 185.547 -7.8125 162.109 -7.8125 c 0
 133.789 -7.8125 111.816 -1.95312 96.1914 9.76562 c 0
 80.0781 21.9727 68.3594 37.5977 61.0352 57.1289 c 0
 53.7109 76.1719 50.293 98.1445 50.293 123.047 c 0
 50.7812 147.461 53.7109 172.363 59.082 196.777 c 0
 66.8945 232.91 82.0312 267.09 103.516 298.828 c 0
 125 331.055 151.367 358.887 181.641 382.812 c 0
 211.914 407.227 245.117 425.781 282.227 439.941 c 0
 318.848 454.102 355.469 460.938 392.09 460.938 c 1
 390.137 435.059 l 1
 339.844 426.27 296.387 408.203 258.789 380.371 c 0
 221.68 353.027 192.383 317.383 170.898 273.926 c 1
 176.27 276.855 181.152 278.809 185.547 280.273 c 0
 189.941 282.227 194.824 284.18 200.195 286.133 c 0
 217.285 291.992 232.91 294.922 247.07 294.922 c 0
 266.113 294.922 283.203 291.504 296.875 284.18 c 0
 311.035 276.855 321.777 266.602 330.078 253.418 c 0
 337.891 240.723 342.773 225.098 344.727 207.52 c 0
 346.191 189.941 345.215 170.898 340.82 149.902 c 0
EndSplineSet
EndChar
StartChar: seven
Encoding: 55 55 24
OldEncoding: 55
Width: 320
Flags: HW
HStem: -4 21<108 169 169 169> 388 65<191 318 318 318>
Fore
400 431 m 1
 169 -4 l 1
 108 -4 l 1
 318 388 l 1
 191 388 l 2
 175 388 161 384 149 376 c 0
 144 373 132 359 109 331 c 1
 85 343 l 1
 150 453 l 1
 404 453 l 1
 400 431 l 1
EndSplineSet
Back
399.902 431.152 m 1
 168.945 -3.90625 l 1
 107.91 -3.90625 l 1
 317.871 388.184 l 1
 190.918 388.184 l 2
 174.805 388.184 161.133 383.789 148.926 375.977 c 0
 146.484 374.512 141.602 370.117 135.742 362.793 c 0
 129.395 355.469 120.117 345.215 108.887 331.055 c 1
 84.9609 342.773 l 1
 149.902 453.125 l 1
 403.809 453.125 l 1
 399.902 431.152 l 1
EndSplineSet
EndChar
StartChar: eight
Encoding: 56 56 25
OldEncoding: 56
Width: 305
Flags: HW
HStem: -8 21<115.5 183.5> 441 20<218.5 281>
Fore
285 363 m 0
 289 380 287 395 280 406 c 0
 272 420 258 427 239 427 c 0
 207 427 177 404 169 368 c 0
 163 338 179 307 217 275 c 1
 236 287 250 299 253 303 c 0
 270 320 280 340 285 363 c 0
236 91 m 0
 241 114 238 131 229 144 c 0
 220 156 202 174 173 201 c 1
 152 184 146 178 142 173 c 0
 129 158 118 135 113 111 c 0
 102 63 120 27 164 27 c 0
 199 27 228 54 236 91 c 0
305 107 m 0
 289 28 219 -8 148 -8 c 0
 83 -8 29 33 45 104 c 0
 58 163 81 178 129 213 c 0
 134 216 139 219 148 226 c 1
 143 234 137 240 133 247 c 1
 111 271 98 288 98 317 c 0
 98 327 99 339 102 352 c 0
 115 420 187 461 250 461 c 0
 312 461 360 429 347 360 c 0
 335 305 296 278 245 250 c 1
 249 245 256 238 261 233 c 0
 296 198 318 170 305 107 c 0
EndSplineSet
Back
285.156 362.793 m 0
 289.062 380.371 287.109 394.531 279.785 405.762 c 0
 271.973 419.922 258.301 426.758 238.77 426.758 c 0
 223.145 426.758 208.496 421.875 194.824 411.133 c 0
 181.641 400.391 172.852 386.23 168.945 368.164 c 0
 163.086 337.891 179.199 307.129 216.797 274.902 c 1
 226.562 280.762 234.375 286.621 241.211 291.992 c 0
 247.559 297.363 251.465 300.781 252.93 303.223 c 0
 269.531 319.824 280.273 339.844 285.156 362.793 c 0
235.84 90.8203 m 0
 240.723 113.77 238.281 131.348 229.004 144.043 c 0
 224.121 149.902 217.285 157.715 208.496 166.992 c 0
 199.707 176.27 187.5 187.5 172.852 201.172 c 1
 162.109 192.383 154.785 186.035 150.879 182.617 c 0
 146.973 178.711 144.043 175.781 142.09 172.852 c 0
 135.254 165.527 129.395 156.738 124.512 145.508 c 0
 119.629 134.277 115.723 123.047 112.793 110.84 c 0
 107.91 86.9141 109.375 66.8945 118.164 50.7812 c 0
 126.465 35.1562 142.09 26.8555 164.062 26.8555 c 0
 181.152 26.8555 196.777 33.2031 209.961 44.9219 c 0
 223.145 57.1289 231.934 72.2656 235.84 90.8203 c 0
305.176 106.934 m 0
 300.781 86.9141 293.945 69.8242 283.691 55.6641 c 0
 272.949 41.0156 261.23 29.2969 247.07 20.0195 c 0
 232.91 10.7422 217.285 3.90625 200.684 -0.976562 c 0
 183.594 -5.85938 166.016 -7.8125 147.949 -7.8125 c 0
 131.348 -7.8125 116.211 -5.37109 102.051 -0.488281 c 0
 87.8906 4.39453 76.1719 11.7188 66.4062 21.4844 c 0
 56.6406 31.25 49.8047 42.9688 45.4102 56.6406 c 0
 41.0156 70.3125 41.0156 85.9375 44.9219 104.004 c 0
 48.3398 118.652 52.2461 130.859 57.1289 141.113 c 0
 61.5234 150.879 67.3828 159.668 74.2188 167.48 c 0
 80.5664 175.293 88.3789 182.617 97.6562 189.453 c 0
 106.445 196.289 117.188 204.102 128.906 212.891 c 0
 131.836 214.355 134.277 215.82 137.207 217.773 c 0
 139.648 220.215 143.555 222.656 147.949 226.074 c 1
 145.508 229.98 142.578 233.887 140.137 236.816 c 0
 137.207 240.234 134.766 243.652 132.812 247.07 c 0
 125.488 254.883 119.141 262.695 113.77 269.531 c 0
 108.887 276.367 104.492 283.691 102.051 291.504 c 0
 99.1211 299.316 98.1445 307.617 98.1445 316.895 c 0
 98.1445 327.148 99.1211 338.867 102.051 352.051 c 0
 105.469 369.141 111.816 384.766 122.07 397.949 c 0
 131.836 411.133 144.043 422.852 157.715 432.129 c 0
 171.387 441.406 186.035 448.73 202.148 453.613 c 0
 217.773 458.496 233.887 460.938 250 460.938 c 0
 265.137 460.938 279.785 458.984 292.969 455.078 c 0
 306.152 451.172 317.871 444.824 327.148 436.523 c 0
 336.426 428.223 342.773 417.48 346.68 404.785 c 0
 350.098 392.09 350.098 377.441 347.168 359.863 c 0
 340.82 332.52 328.613 311.035 310.547 294.922 c 0
 291.992 278.809 270.508 264.16 245.117 250 c 1
 247.07 247.559 249.512 244.629 252.441 241.699 c 0
 255.371 238.281 258.301 235.84 261.23 232.91 c 0
 269.531 224.121 277.344 215.82 284.668 207.52 c 0
 291.504 199.219 296.875 189.941 300.781 180.664 c 0
 305.176 170.898 307.617 160.156 308.594 148.438 c 0
 309.57 136.719 308.105 123.047 305.176 106.934 c 0
EndSplineSet
EndChar
StartChar: nine
Encoding: 57 57 26
OldEncoding: 57
Width: 331
Flags: HW
HStem: -13 21<37 78> 427 34<239.5 272.5>
Fore
289 268 m 1
 311 374 297 427 248 427 c 0
 208 427 180 391 165 320 c 0
 154 268 155 201 213 201 c 0
 233 201 253 208 273 222 c 1
 278 224 281 231 283 242 c 1
 289 268 l 1
370 269 m 0
 354 193 317 129 260 78 c 0
 193 17 119 -13 37 -13 c 1
 39 16 l 1
 130 26 218 94 260 176 c 1
 233 163 206 156 178 156 c 0
 140 156 112 170 94 198 c 0
 78 223 74 255 82 294 c 0
 93 341 114 379 143 410 c 1
 177 444 217 461 262 461 c 0
 311 461 344 440 363 398 c 1
 378 360 381 317 370 269 c 0
EndSplineSet
Back
289.062 268.066 m 1
 311.035 374.023 297.363 426.758 248.047 426.758 c 0
 208.008 426.758 180.176 391.113 165.039 319.824 c 0
 162.109 307.129 160.645 293.945 160.156 279.297 c 0
 159.18 265.137 160.645 252.441 163.574 241.211 c 0
 166.504 229.492 171.875 220.215 179.688 212.402 c 0
 187.012 204.59 198.242 201.172 212.891 201.172 c 0
 232.91 201.172 252.93 208.008 272.949 222.168 c 1
 277.832 224.121 280.762 230.469 283.203 242.188 c 1
 289.062 268.066 l 1
370.117 269.043 m 0
 354.004 192.871 317.383 129.395 259.766 78.125 c 0
 193.359 17.0898 119.141 -13.1836 37.1094 -13.1836 c 1
 39.0625 16.1133 l 1
 62.5 18.5547 84.9609 24.9023 106.445 34.1797 c 0
 127.93 43.457 148.438 55.1758 167.48 69.3359 c 0
 186.523 83.9844 204.102 100.098 220.215 118.164 c 0
 235.84 136.23 249.512 155.273 259.766 175.781 c 1
 233.398 162.598 206.055 155.762 178.223 155.762 c 0
 140.137 155.762 111.816 169.922 94.2383 198.242 c 0
 78.125 223.145 74.2188 255.371 82.0312 293.945 c 0
 87.4023 317.383 95.2148 338.867 105.469 357.91 c 0
 115.723 377.441 128.418 394.531 143.066 410.156 c 0
 176.758 443.848 216.797 460.938 262.207 460.938 c 0
 310.547 460.938 344.238 439.941 362.793 397.949 c 0
 378.418 359.863 380.859 316.895 370.117 269.043 c 0
EndSplineSet
EndChar
StartChar: colon
Encoding: 58 58 27
OldEncoding: 58
Width: 129
Flags: HW
HStem: -6 21<49.5 72.5> 301 20<118.5 141.5>
Fore
83 276 m 1
 88 301 107 321 130 321 c 0
 153 321 165 301 160 276 c 1
 153 251 134 231 111 231 c 0
 88 231 76 251 83 276 c 1
32 39 m 1
 39 64 57 84 80 84 c 0
 103 84 116 64 109 39 c 1
 104 14 84 -6 61 -6 c 0
 38 -6 27 14 32 39 c 1
EndSplineSet
Back
83.0078 275.879 m 0
 79.5898 263.184 80.5664 252.441 85.9375 244.141 c 0
 91.3086 235.352 99.6094 230.957 110.84 230.957 c 0
 122.559 230.957 132.324 235.352 141.602 244.141 c 0
 150.391 252.441 156.738 263.184 160.156 275.879 c 0
 162.598 288.574 161.133 299.316 155.273 308.105 c 0
 149.902 316.895 141.113 320.801 129.883 320.801 c 0
 118.652 320.801 108.887 316.895 100.098 308.105 c 0
 91.3086 299.316 85.4492 288.574 83.0078 275.879 c 0
32.2266 39.0625 m 0
 29.2969 26.3672 30.7617 15.625 36.1328 6.83594 c 0
 41.5039 -1.46484 49.8047 -5.85938 61.0352 -5.85938 c 0
 72.2656 -5.85938 82.5195 -1.46484 91.3086 6.83594 c 0
 100.586 15.625 106.445 26.3672 108.887 39.0625 c 0
 112.305 51.7578 111.328 62.5 105.469 70.8008 c 0
 99.6094 79.5898 91.3086 83.9844 80.0781 83.9844 c 0
 68.8477 83.9844 58.5938 79.5898 49.8047 70.8008 c 0
 41.5039 62.5 35.1562 51.7578 32.2266 39.0625 c 0
EndSplineSet
EndChar
StartChar: semicolon
Encoding: 59 59 28
OldEncoding: 59
Width: 129
Flags: HW
HStem: -87 21<20 20.5> 305 20<114.5 137.5>
Fore
95 82 m 1
 114 73 127 51 119 16 c 0
 103 -55 21 -87 20 -87 c 1
 16 -61 l 1
 16 -61 20 -60 31 -53 c 0
 50 -41 73 -21 77 -1 c 2
 78 4 l 1
 71 3 65 2 60 2 c 0
 37 2 22 20 27 43 c 0
 32 67 55 85 78 85 c 0
 85 85 92 85 95 82 c 1
79 280 m 1
 84 305 103 325 126 325 c 0
 149 325 161 305 156 280 c 1
 149 255 130 235 107 235 c 0
 84 235 72 255 79 280 c 1
EndSplineSet
Back
95.2148 82.0312 m 0
 93.75 83.4961 91.3086 83.9844 87.8906 84.4727 c 0
 84.4727 84.9609 81.543 84.9609 78.125 84.9609 c 0
 66.8945 84.9609 56.1523 81.0547 45.8984 73.2422 c 0
 36.1328 64.9414 29.7852 55.1758 26.8555 42.9688 c 0
 24.4141 31.7383 26.3672 21.9727 33.2031 14.1602 c 0
 39.5508 5.85938 48.8281 1.95312 60.0586 1.95312 c 0
 65.4297 1.95312 71.2891 2.44141 78.125 3.90625 c 1
 77.1484 -0.976562 l 2
 75.1953 -11.2305 69.3359 -20.5078 59.5703 -29.7852 c 0
 49.8047 -39.5508 40.5273 -46.875 30.7617 -53.2227 c 0
 25.8789 -56.1523 21.9727 -58.5938 19.5312 -59.5703 c 0
 17.0898 -60.5469 16.1133 -61.0352 16.1133 -61.0352 c 1
 20.0195 -86.9141 l 1
 20.0195 -86.9141 24.4141 -84.9609 33.6914 -81.0547 c 0
 42.4805 -77.1484 52.7344 -70.8008 63.9648 -62.0117 c 0
 75.1953 -53.2227 86.4258 -42.4805 97.168 -29.7852 c 0
 107.91 -17.0898 115.234 -1.95312 119.141 16.1133 c 0
 123.047 33.2031 122.559 47.3633 117.188 58.5938 c 0
 111.816 69.3359 104.492 77.1484 95.2148 82.0312 c 0
79.1016 279.785 m 0
 75.6836 267.09 76.6602 256.836 82.0312 248.047 c 0
 87.4023 239.258 95.7031 234.863 106.934 234.863 c 0
 118.164 234.863 128.418 239.258 137.695 248.047 c 0
 146.484 256.836 152.832 267.09 155.762 279.785 c 0
 158.691 292.48 157.227 303.223 151.367 312.012 c 0
 145.996 320.801 137.207 325.195 125.977 325.195 c 0
 114.746 325.195 104.492 320.801 96.1914 312.012 c 0
 87.4023 303.223 81.543 292.48 79.1016 279.785 c 0
EndSplineSet
EndChar
StartChar: less
Encoding: 60 60 29
OldEncoding: 60
Width: 387
Flags: HW
HStem: -9 21<355 355> 345 20<435 435>
Fore
355 -9 m 1
 34 152 l 1
 45 203 l 1
 435 365 l 1
 423 310 l 1
 105 178 l 1
 367 46 l 1
 355 -9 l 1
EndSplineSet
Back
354.98 -8.78906 m 1
 34.1797 151.855 l 1
 44.9219 203.125 l 1
 435.059 365.234 l 1
 422.852 310.059 l 1
 104.98 178.223 l 1
 367.188 45.8984 l 1
 354.98 -8.78906 l 1
EndSplineSet
EndChar
StartChar: equal
Encoding: 61 61 30
OldEncoding: 61
Width: 394
Flags: HW
HStem: 82 48<59 401 401 401> 209 48<86 428 428 428>
Fore
428 209 m 1
 75 209 l 1
 86 257 l 1
 439 257 l 1
 428 209 l 1
401 82 m 1
 48 82 l 1
 59 130 l 1
 412 130 l 1
 401 82 l 1
EndSplineSet
Back
428.223 208.984 m 1
 75.1953 208.984 l 1
 85.9375 256.836 l 1
 438.965 256.836 l 1
 428.223 208.984 l 1
400.879 82.0312 m 1
 47.8516 82.0312 l 1
 59.082 129.883 l 1
 412.109 129.883 l 1
 400.879 82.0312 l 1
EndSplineSet
EndChar
StartChar: greater
Encoding: 62 62 31
OldEncoding: 62
Width: 386
Flags: HW
HStem: -9 21<27 27> 345 20<107 107>
Fore
416 152 m 1
 27 -9 l 1
 39 46 l 1
 356 178 l 1
 95 310 l 1
 107 365 l 1
 427 203 l 1
 416 152 l 1
EndSplineSet
Back
416.016 151.855 m 1
 26.8555 -8.78906 l 1
 39.0625 45.8984 l 1
 355.957 178.223 l 1
 95.2148 310.059 l 1
 106.934 365.234 l 1
 426.758 203.125 l 1
 416.016 151.855 l 1
EndSplineSet
EndChar
StartChar: question
Encoding: 63 63 32
OldEncoding: 63
Width: 269
Flags: HW
HStem: -4 21<118 142> 453 20<198.5 245.5>
Fore
330 353 m 0
 323 322 302 285 255 242 c 1
 236 223 219 205 202 184 c 0
 195 175 183 150 168 111 c 1
 140 111 l 1
 148 150 160 184 183 219 c 1
 209 261 l 1
 236 300 248 332 253 359 c 1
 264 403 248 436 208 436 c 0
 197 436 182 433 171 426 c 0
 158 419 151 411 150 403 c 0
 149 400 149 393 156 386 c 0
 164 377 167 362 164 353 c 2
 163 350 l 1
 159 327 141 316 122 316 c 0
 102 316 84 332 91 367 c 0
 104 431 168 473 229 473 c 0
 262 473 302 464 321 432 c 0
 336 408 337 381 330 353 c 0
96 39 m 0
 101 63 125 83 149 83 c 0
 173 83 188 63 183 39 c 0
 178 15 154 -4 130 -4 c 0
 106 -4 91 15 96 39 c 0
EndSplineSet
Back
330.078 353.027 m 0
 333.496 367.188 334.473 380.859 333.496 394.043 c 0
 332.52 407.227 328.125 419.922 320.801 432.129 c 0
 311.523 448.242 298.34 458.984 280.273 464.355 c 0
 262.695 470.215 245.605 473.145 229.004 473.145 c 0
 213.867 473.145 198.73 470.703 183.594 465.332 c 0
 168.457 460.449 154.785 453.125 142.09 443.848 c 0
 129.395 434.57 118.652 423.34 109.375 410.645 c 0
 100.586 397.461 94.2383 382.812 90.8203 367.188 c 0
 87.8906 349.609 89.3555 336.914 96.6797 328.613 c 0
 103.516 320.312 111.816 315.918 122.07 315.918 c 0
 131.348 315.918 140.137 318.848 147.949 324.707 c 0
 155.762 330.078 161.133 338.867 163.086 350.098 c 1
 164.062 353.027 l 2
 165.527 357.91 165.527 363.281 164.062 369.629 c 0
 162.598 375.977 160.156 381.348 155.762 386.23 c 0
 152.832 389.16 150.879 392.578 149.902 395.996 c 0
 149.414 399.414 149.414 401.855 149.902 402.832 c 0
 150.879 411.133 157.715 418.457 170.898 425.781 c 0
 176.27 429.199 182.617 431.641 189.453 433.594 c 0
 196.289 435.059 202.637 436.035 208.008 436.035 c 0
 228.027 436.035 241.699 428.711 249.512 414.062 c 0
 257.324 399.414 258.301 380.859 252.93 358.887 c 0
 250.488 345.703 245.605 331.055 238.77 314.453 c 0
 232.422 298.34 222.168 280.273 208.984 261.23 c 1
 183.105 219.238 l 2
 171.875 201.66 162.598 184.082 155.762 166.504 c 0
 149.414 148.926 144.043 130.371 140.137 110.84 c 1
 167.969 110.84 l 1
 183.105 150.391 194.824 174.805 202.148 184.082 c 0
 210.449 194.824 219.238 204.59 228.027 213.867 c 0
 236.816 223.145 245.605 232.91 254.883 242.188 c 0
 278.32 263.184 295.898 283.203 307.617 301.758 c 0
 319.336 320.801 326.66 337.891 330.078 353.027 c 0
96.1914 39.0625 m 0
 93.2617 26.8555 95.2148 16.6016 102.051 8.30078 c 0
 108.887 0 118.164 -3.90625 129.883 -3.90625 c 0
 142.09 -3.90625 153.32 0 163.574 8.30078 c 0
 173.828 16.6016 180.176 26.8555 183.105 39.0625 c 0
 185.547 50.7812 183.594 61.5234 176.758 69.8242 c 0
 170.41 78.6133 161.133 83.0078 148.926 83.0078 c 0
 137.207 83.0078 125.977 78.6133 115.723 69.8242 c 0
 104.98 61.5234 98.6328 50.7812 96.1914 39.0625 c 0
EndSplineSet
EndChar
StartChar: at
Encoding: 64 64 33
OldEncoding: 64
Width: 516
Flags: HW
HStem: -8 41<234.5 294.5> 93 48 424 37<333 398>
Fore
340 192 m 1
 356 219 370 244 377 271 c 1
 381 294 377 305 366 305 c 0
 343 305 321 291 300 264 c 0
 280 237 265 214 260 187 c 0
 253 156 261 141 282 141 c 0
 298 141 317 158 340 192 c 1
549 259 m 0
 541 218 522 182 493 150 c 0
 460 112 423 93 382 93 c 0
 359 93 346 102 335 117 c 0
 332 122 329 127 328 132 c 1
 309 117 l 1
 290 104 268 93 249 93 c 0
 205 93 183 125 195 185 c 0
 202 216 220 250 249 286 c 0
 284 330 325 352 371 352 c 0
 395 352 402 338 406 330 c 1
 412 342 l 1
 479 342 l 1
 394 165 l 1
 390 149 l 2
 387 138 391 133 401 133 c 0
 452 133 493 212 504 258 c 0
 526 352 447 424 360 424 c 0
 242 424 164 324 140 209 c 0
 118 109 184 33 283 33 c 0
 324 33 371 45 424 68 c 1
 432 32 l 1
 364 5 314 -8 275 -8 c 0
 194 -8 135 17 96 68 c 0
 63 112 56 163 67 215 c 0
 82 286 118 344 175 391 c 0
 234 438 298 461 368 461 c 0
 428 461 476 443 512 407 c 0
 550 370 562 320 549 259 c 0
EndSplineSet
Back
339.844 191.895 m 0
 348.145 205.566 355.469 218.262 361.816 231.445 c 0
 368.652 244.629 373.535 257.812 376.953 270.996 c 0
 380.859 293.457 377.441 305.176 366.211 305.176 c 0
 343.262 305.176 321.289 291.504 299.805 264.16 c 0
 290.039 250.488 281.738 237.793 274.414 225.586 c 0
 267.578 213.379 262.695 200.195 259.766 187.012 c 0
 253.418 156.25 260.742 141.113 282.227 141.113 c 0
 297.852 141.113 317.383 158.203 339.844 191.895 c 0
548.828 258.789 m 0
 541.016 218.262 522.461 182.129 493.164 149.902 c 0
 460.449 111.816 423.34 92.7734 381.836 92.7734 c 0
 370.605 92.7734 361.328 95.2148 354.004 99.6094 c 0
 346.68 104.004 340.332 109.863 334.961 117.188 c 0
 333.496 119.629 332.52 122.07 331.055 124.512 c 0
 329.59 126.953 328.613 129.395 328.125 131.836 c 1
 309.082 117.188 l 2
 299.805 110.352 289.551 104.492 278.809 100.098 c 0
 268.555 95.2148 258.301 92.7734 249.023 92.7734 c 0
 227.051 92.7734 210.938 101.074 201.172 116.699 c 0
 190.918 132.324 188.965 154.785 194.824 185.059 c 0
 201.66 216.309 219.727 250 249.023 286.133 c 0
 284.18 330.078 325.195 352.051 371.094 352.051 c 0
 382.812 352.051 391.113 349.121 395.996 344.238 c 0
 400.879 338.867 403.809 333.984 405.762 330.078 c 1
 412.109 341.797 l 1
 479.004 341.797 l 1
 394.043 165.039 l 1
 390.137 148.926 l 2
 387.207 138.184 391.113 132.812 400.879 132.812 c 0
 413.574 132.812 425.781 137.207 437.012 145.996 c 0
 448.242 154.785 458.496 165.527 467.285 178.223 c 0
 476.562 190.43 484.375 204.102 490.723 219.238 c 0
 497.07 233.887 501.465 246.582 503.906 257.812 c 0
 509.277 281.25 508.789 303.223 502.441 323.73 c 0
 496.094 343.75 486.328 361.328 472.656 376.465 c 0
 458.984 391.602 442.383 403.32 422.363 411.621 c 0
 402.832 419.922 381.836 423.828 359.863 423.828 c 0
 330.078 423.828 303.223 417.969 278.809 406.738 c 0
 254.883 395.02 233.887 379.395 214.844 359.375 c 0
 196.289 339.844 180.664 316.895 167.969 291.016 c 0
 155.273 265.137 145.996 237.793 140.137 208.984 c 0
 134.766 184.57 134.277 161.133 139.648 139.648 c 0
 144.531 117.676 153.32 99.1211 166.504 83.4961 c 0
 179.688 67.8711 195.801 55.6641 215.82 46.3867 c 0
 235.84 37.5977 258.301 33.2031 283.203 33.2031 c 0
 323.73 33.2031 370.605 44.4336 423.828 67.8711 c 1
 432.129 32.2266 l 1
 397.949 18.5547 368.164 8.78906 342.285 1.95312 c 0
 316.895 -4.88281 294.434 -7.8125 274.902 -7.8125 c 0
 194.336 -7.8125 134.766 17.0898 96.1914 67.8711 c 0
 79.1016 89.8438 68.8477 113.281 64.9414 138.672 c 0
 61.0352 163.574 61.5234 188.965 66.8945 214.844 c 0
 81.543 285.645 117.676 344.238 174.805 391.113 c 0
 233.887 437.5 297.852 460.938 368.164 460.938 c 0
 428.223 460.938 476.074 442.871 512.207 407.227 c 0
 549.805 369.629 562.5 320.312 548.828 258.789 c 0
EndSplineSet
EndChar
StartChar: A
Encoding: 65 65 34
OldEncoding: 65
Width: 496
Flags: HW
HStem: 0 29<17 28.5 153.5 162 162 162 303 330 476.5 485 485 485> 139 45<207 329> 432 20<323 360 323 323>
Fore
207 184 m 1
 329 184 l 1
 300 328 l 1
 207 184 l 1
485 0 m 1
 297 0 l 1
 303 29 l 1
 330 29 l 2
 342 29 350 38 351 43 c 0
 354 54 351 71 348 84 c 2
 336 139 l 1
 180 139 l 1
 138 69 l 1
 133 62 131 55 128 48 c 1
 126 35 139 29 168 29 c 1
 162 0 l 1
 11 0 l 1
 17 29 l 1
 40 29 63 45 78 66 c 1
 323 452 l 1
 360 452 l 1
 443 81 l 1
 454 40 462 29 491 29 c 1
 485 0 l 1
EndSplineSet
MinimumDistance: x0,-1 
Back
207.031 184.082 m 1
 329.102 184.082 l 1
 299.805 328.125 l 1
 207.031 184.082 l 1
484.863 0 m 1
 296.875 0 l 1
 303.223 28.8086 l 1
 330.078 28.8086 l 2
 335.938 28.8086 340.82 30.7617 344.727 34.1797 c 0
 348.145 37.1094 350.098 40.5273 351.074 42.9688 c 0
 352.539 48.3398 352.539 54.6875 351.562 62.5 c 0
 350.586 70.3125 349.121 77.1484 348.145 83.9844 c 2
 335.938 139.16 l 1
 180.176 139.16 l 1
 138.184 68.8477 l 1
 135.254 65.4297 133.301 62.0117 131.836 58.5938 c 0
 130.859 54.6875 129.395 51.2695 127.93 47.8516 c 0
 125.977 35.1562 139.16 28.8086 167.969 28.8086 c 1
 162.109 0 l 1
 11.2305 0 l 1
 17.0898 28.8086 l 1
 28.3203 28.8086 39.5508 32.7148 50.293 39.5508 c 0
 61.5234 46.3867 70.8008 55.1758 78.125 65.918 c 2
 323.242 452.148 l 1
 359.863 452.148 l 1
 442.871 81.0547 l 1
 448.242 60.5469 454.102 46.3867 459.961 39.5508 c 0
 465.82 32.7148 476.562 28.8086 491.211 28.8086 c 1
 484.863 0 l 1
EndSplineSet
EndChar
StartChar: B
Encoding: 66 66 35
OldEncoding: 66
Width: 451
Flags: HW
HStem: 0 41<218.5 263.5> 214 46 411 41<268 297 297 322>
Fore
385 329 m 0
 397 384 368 411 297 411 c 2
 268 411 l 2
 265 411 263 407 261 399 c 1
 231 257 l 1
 284 258 l 2
 341 259 375 283 385 329 c 0
356 127 m 0
 365 170 348 197 305 208 c 0
 289 212 261 214 221 214 c 1
 189 61 l 2
 187 52 189 46 195 43 c 2
 194 43 l 2
 201 42 211 41 226 41 c 0
 301 41 344 70 356 127 c 0
453 124 m 1
 434 47 362 0 269 0 c 2
 23 0 l 1
 29 30 l 1
 79 30 95 38 103 80 c 1
 165 372 l 1
 172 399 175 416 152 419 c 2
 113 424 l 1
 119 452 l 1
 322 452 l 2
 441 452 493 412 476 333 c 0
 469 298 448 274 423 255 c 0
 415 248 403 244 390 239 c 1
 444 218 465 180 453 124 c 1
EndSplineSet
MinimumDistance: x0,-1 
Back
384.766 329.102 m 0
 396.973 383.789 367.676 411.133 296.875 411.133 c 2
 268.066 411.133 l 2
 265.137 411.133 263.184 407.227 261.23 398.926 c 1
 230.957 256.836 l 1
 284.18 257.812 l 2
 341.309 259.277 375 283.203 384.766 329.102 c 0
355.957 126.953 m 0
 365.234 170.41 348.145 197.266 305.176 208.008 c 0
 289.062 211.914 261.23 213.867 221.191 213.867 c 1
 188.965 61.0352 l 2
 187.012 52.2461 188.965 46.3867 194.824 42.9688 c 2
 193.848 42.9688 l 2
 200.684 41.5039 211.426 41.0156 226.074 41.0156 c 0
 300.781 41.0156 344.238 69.8242 355.957 126.953 c 0
453.125 124.023 m 0
 443.848 85.4492 422.363 55.1758 389.16 33.2031 c 0
 355.469 11.2305 315.43 0 269.043 0 c 2
 22.9492 0 l 1
 28.8086 29.7852 l 1
 41.5039 29.7852 52.2461 30.7617 60.5469 32.2266 c 0
 68.8477 33.2031 75.6836 35.6445 81.543 39.5508 c 0
 87.4023 42.9688 91.7969 48.3398 95.2148 54.6875 c 0
 98.1445 61.0352 101.074 69.3359 103.027 80.0781 c 1
 165.039 372.07 l 1
 168.457 385.254 169.922 395.996 169.434 404.297 c 0
 168.945 412.598 163.574 417.48 151.855 418.945 c 2
 112.793 423.828 l 1
 119.141 452.148 l 1
 321.777 452.148 l 2
 441.406 452.148 492.676 412.109 476.074 333.008 c 0
 472.656 315.43 466.309 300.781 456.543 288.086 c 0
 446.777 275.391 435.547 264.16 422.852 254.883 c 0
 418.945 251.465 414.062 249.023 408.691 246.582 c 0
 402.832 244.141 396.484 241.699 390.137 238.77 c 1
 443.848 218.262 464.844 180.176 453.125 124.023 c 0
EndSplineSet
EndChar
StartChar: C
Encoding: 67 67 36
OldEncoding: 67
Width: 460
Flags: HW
HStem: -8 44<249.5 273> 410 41 433 20<486 520 486 486> 434 20<305.5 353>
Fore
453 83 m 1
 439 65 419 48 393 33 c 0
 349 6 299 -8 247 -8 c 0
 176 -8 123 13 92 54 c 1
 62 97 54 152 68 221 c 1
 83 285 113 341 169 389 c 0
 220 433 277 454 334 454 c 0
 372 454 417 446 424 444 c 2
 462 432 l 1
 471 433 479 440 486 453 c 1
 520 453 l 1
 492 292 l 1
 456 292 l 1
 456 368 417 410 346 410 c 0
 302 410 265 390 234 351 c 0
 205 315 183 274 172 219 c 0
 160 168 163 125 180 90 c 0
 197 57 224 36 275 36 c 0
 323 36 376 59 433 105 c 1
 453 83 l 1
EndSplineSet
Back
453.125 83.0078 m 1
 438.965 64.9414 418.945 48.3398 393.066 33.2031 c 0
 371.094 19.5312 347.656 9.27734 323.242 2.44141 c 0
 298.34 -4.39453 272.949 -7.8125 247.07 -7.8125 c 0
 211.426 -7.8125 180.664 -2.92969 154.297 7.32422 c 0
 127.93 18.0664 107.422 33.2031 91.7969 54.1992 c 0
 62.0117 96.6797 54.1992 152.344 67.8711 221.191 c 0
 75.1953 252.93 86.9141 283.203 103.027 311.035 c 0
 119.141 338.867 141.113 365.234 168.945 389.16 c 0
 194.336 411.133 221.191 427.246 249.023 437.988 c 0
 276.855 448.73 305.176 454.102 333.984 454.102 c 0
 343.262 454.102 353.027 453.613 362.793 452.637 c 0
 373.047 451.66 382.324 450.684 390.625 449.707 c 0
 398.926 448.73 405.762 447.266 412.109 446.289 c 0
 417.969 445.312 421.875 444.824 423.828 443.848 c 2
 461.914 432.129 l 1
 470.703 432.617 478.516 439.453 485.84 453.125 c 1
 520.02 453.125 l 1
 492.188 291.992 l 1
 456.055 291.992 l 1
 456.055 330.078 446.289 359.375 427.734 379.395 c 0
 408.691 399.902 381.348 410.156 346.191 410.156 c 0
 301.758 410.156 264.648 390.137 233.887 351.074 c 0
 219.238 333.008 206.543 313.477 195.801 291.992 c 0
 185.547 270.508 177.246 246.094 171.875 219.238 c 0
 160.156 168.457 162.598 125.488 180.176 89.8438 c 0
 188.477 73.2422 200.195 60.0586 214.844 50.293 c 0
 229.492 41.0156 249.512 36.1328 274.902 36.1328 c 0
 323.242 36.1328 375.488 59.082 433.105 104.98 c 1
 453.125 83.0078 l 1
EndSplineSet
EndChar
StartChar: D
Encoding: 68 68 37
OldEncoding: 68
Width: 516
Flags: HW
HStem: 0 41<207 232 232 277.5> 412 41<273.5 315.5>
Fore
441 225 m 0
 454 287 445 334 416 365 c 0
 387 396 348 412 283 412 c 0
 264 412 261 412 258 393 c 1
 187 61 l 2
 183 42 201 41 213 41 c 0
 342 41 414 102 441 225 c 0
542 225 m 0
 529 167 501 118 458 78 c 0
 401 26 326 0 232 0 c 2
 25 0 l 1
 31 30 l 1
 77 30 92 37 100 80 c 1
 162 373 l 1
 169 401 171 418 150 421 c 2
 115 424 l 1
 121 453 l 1
 318 453 l 2
 399 453 459 436 498 401 c 1
 545 362 558 304 542 225 c 0
EndSplineSet
MinimumDistance: x0,-1 
Back
440.918 225.098 m 0
 453.613 287.109 445.312 333.496 416.016 365.234 c 0
 401.367 380.371 383.789 392.09 362.793 399.902 c 0
 342.285 408.203 315.43 412.109 283.203 412.109 c 0
 273.438 412.109 267.578 411.133 264.648 409.668 c 0
 261.719 407.715 259.277 402.344 257.812 393.066 c 1
 187.012 61.0352 l 2
 185.059 51.7578 187.5 45.8984 193.848 43.9453 c 0
 200.684 41.9922 207.031 41.0156 212.891 41.0156 c 0
 277.832 41.0156 328.613 56.1523 365.723 86.9141 c 0
 402.344 117.676 427.734 163.574 440.918 225.098 c 0
541.992 225.098 m 0
 529.297 166.992 501.465 118.164 458.008 78.125 c 0
 401.367 25.8789 326.172 0 231.934 0 c 2
 24.9023 0 l 1
 30.7617 29.7852 l 1
 42.4805 29.7852 51.7578 30.7617 60.0586 32.2266 c 0
 67.8711 33.2031 74.707 35.6445 79.5898 39.0625 c 0
 84.4727 42.4805 88.8672 47.3633 91.7969 54.1992 c 0
 95.2148 60.5469 98.1445 69.3359 100.098 80.0781 c 1
 162.109 373.047 l 1
 165.527 387.207 166.992 397.949 166.504 406.738 c 0
 166.016 415.039 160.645 419.434 149.902 420.898 c 2
 115.234 423.828 l 1
 121.094 453.125 l 1
 317.871 453.125 l 2
 398.438 453.125 458.496 435.547 498.047 400.879 c 0
 521.484 381.836 536.621 357.422 543.457 328.125 c 0
 550.293 298.828 549.805 264.16 541.992 225.098 c 0
EndSplineSet
EndChar
StartChar: E
Encoding: 69 69 38
OldEncoding: 69
Width: 458
Flags: HW
HStem: 0 42<200.5 212 212 265> 214 46<228 303 303 313> 412 41<275 355 355 370>
Fore
461 128 m 1
 400 0 l 1
 25 0 l 1
 31 30 l 1
 75 30 90 41 98 80 c 1
 160 373 l 1
 167 404 168 415 148 419 c 2
 115 424 l 1
 121 453 l 1
 492 453 l 1
 468 341 l 1
 430 341 l 1
 433 374 428 395 417 402 c 0
 406 409 385 412 355 412 c 2
 275 412 l 2
 266 412 258 402 257 393 c 1
 228 260 l 1
 313 260 l 2
 338 260 353 263 360 269 c 0
 369 276 379 294 389 322 c 1
 429 322 l 1
 394 153 l 1
 354 153 l 1
 356 182 354 200 349 205 c 0
 344 211 328 214 303 214 c 2
 218 214 l 1
 186 62 l 1
 183 50 189 42 212 42 c 2
 265 42 l 2
 303 42 331 47 350 57 c 0
 373 69 396 92 419 128 c 1
 461 128 l 1
EndSplineSet
MinimumDistance: x18,-1 
Back
460.938 127.93 m 1
 399.902 0 l 1
 24.9023 0 l 1
 30.7617 29.7852 l 1
 53.2227 29.7852 68.8477 33.6914 78.125 40.5273 c 0
 87.4023 47.3633 94.2383 60.5469 98.1445 80.0781 c 2
 160.156 373.047 l 2
 163.574 388.184 164.551 399.414 164.062 405.762 c 0
 163.574 412.598 158.203 416.992 147.949 418.945 c 2
 115.234 423.828 l 1
 121.094 453.125 l 1
 492.188 453.125 l 1
 467.773 340.82 l 1
 430.176 340.82 l 1
 432.617 374.512 428.223 394.531 416.992 401.855 c 0
 405.762 408.691 384.766 412.109 354.98 412.109 c 2
 274.902 412.109 l 2
 270.508 412.109 266.113 410.156 263.184 405.762 c 0
 259.766 401.855 257.812 397.461 256.836 393.066 c 1
 228.027 259.766 l 1
 312.988 259.766 l 2
 337.891 259.766 353.516 263.184 359.863 269.043 c 0
 369.141 276.367 378.906 293.945 389.16 321.777 c 1
 429.199 321.777 l 1
 394.043 152.832 l 1
 354.004 152.832 l 1
 355.957 182.129 354.492 199.707 349.121 205.078 c 0
 343.75 210.938 328.125 213.867 303.223 213.867 c 2
 217.773 213.867 l 1
 186.035 62.0117 l 2
 184.57 56.1523 186.035 51.2695 189.453 47.3633 c 0
 193.359 43.9453 200.684 41.9922 211.914 41.9922 c 2
 265.137 41.9922 l 2
 303.223 41.9922 331.543 46.875 350.098 57.1289 c 0
 361.328 62.9883 373.047 71.7773 384.277 83.4961 c 0
 395.996 95.2148 407.715 109.863 418.945 127.93 c 1
 460.938 127.93 l 1
EndSplineSet
EndChar
StartChar: F
Encoding: 70 70 39
OldEncoding: 70
Width: 412
Flags: HW
HStem: 0 30<30 42.5 213 229 229 229> 216 44<227 301 301 310> 411 41<269 357 357 372>
Fore
471 341 m 1
 432 341 l 1
 436 374 432 394 419 401 c 0
 408 408 387 411 357 411 c 2
 269 411 l 2
 262 411 258 406 256 396 c 2
 227 260 l 1
 310 260 l 2
 355 260 371 273 386 321 c 1
 424 321 l 1
 388 152 l 1
 350 152 l 1
 357 201 345 216 301 216 c 2
 218 216 l 1
 189 80 l 1
 181 41 191 30 235 30 c 1
 229 0 l 1
 24 0 l 1
 30 30 l 1
 55 30 73 34 82 42 c 0
 89 49 94 65 99 88 c 2
 159 372 l 1
 167 414 153 419 147 419 c 2
 114 424 l 1
 120 452 l 1
 493 452 l 1
 471 341 l 1
EndSplineSet
MinimumDistance: x0,-1 
Back
471.191 340.82 m 1
 432.129 340.82 l 1
 436.035 373.535 431.641 393.555 418.945 400.879 c 0
 407.715 407.715 387.207 411.133 356.934 411.133 c 2
 269.043 411.133 l 2
 262.207 411.133 257.812 405.762 255.859 395.996 c 2
 227.051 259.766 l 1
 310.059 259.766 l 2
 332.52 259.766 349.121 264.16 359.375 272.461 c 0
 369.629 280.762 378.906 296.875 386.23 320.801 c 1
 423.828 320.801 l 1
 388.184 151.855 l 1
 350.098 151.855 l 1
 353.516 176.758 351.562 193.359 344.727 202.637 c 0
 337.402 211.426 323.242 215.82 300.781 215.82 c 2
 217.773 215.82 l 1
 188.965 80.0781 l 2
 185.059 60.5469 186.035 47.3633 192.383 40.5273 c 0
 198.73 33.6914 212.891 29.7852 234.863 29.7852 c 1
 229.004 0 l 1
 23.9258 0 l 1
 29.7852 29.7852 l 1
 55.1758 29.7852 72.7539 34.1797 82.0312 41.9922 c 0
 88.8672 49.3164 94.2383 64.4531 99.1211 87.8906 c 1
 159.18 372.07 l 1
 161.133 382.812 161.621 391.113 161.621 396.973 c 0
 161.133 402.832 160.156 407.715 158.691 411.133 c 0
 156.738 414.551 154.785 416.504 152.344 417.48 c 0
 150.391 418.457 148.438 418.945 146.973 418.945 c 2
 113.77 423.828 l 1
 120.117 452.148 l 1
 493.164 452.148 l 1
 471.191 340.82 l 1
EndSplineSet
EndChar
StartChar: G
Encoding: 71 71 40
OldEncoding: 71
Width: 507
Flags: HW
HStem: -8 21<228.5 279.5> 218 33<353 354.5 532 532> 411 43<330.5 368>
VStem: 62 107
Fore
532 218 m 1
 510 216 498 214 496 212 c 0
 488 205 482 192 478 175 c 1
 451 46 l 1
 448 28 393 13 346 3 c 0
 311 -4 289 -8 270 -8 c 0
 187 -8 128 16 93 63 c 0
 58 111 57 164 72 229 c 0
 86 294 120 348 173 391 c 0
 225 432 289 454 356 454 c 0
 380 454 419 450 432 445 c 2
 469 432 l 1
 477 432 487 441 494 454 c 1
 530 454 l 1
 502 300 l 1
 467 300 l 1
 453 374 416 411 356 411 c 0
 305 411 268 393 233 350 c 0
 202 313 184 269 173 216 c 0
 162 164 163 119 184 88 c 0
 208 52 232 34 283 34 c 0
 298 34 318 37 335 41 c 0
 356 46 367 54 369 63 c 2
 392 168 l 2
 399 199 399 210 380 215 c 0
 374 217 363 218 346 218 c 1
 353 251 l 1
 539 251 l 1
 532 218 l 1
EndSplineSet
MinimumDistance: x0,-1 
Back
532.227 217.773 m 1
 509.766 215.82 498.047 213.867 496.094 211.914 c 0
 487.793 204.59 481.934 192.383 478.027 174.805 c 1
 451.172 45.8984 l 2
 450.195 41.9922 446.777 37.5977 439.941 33.6914 c 0
 433.105 29.2969 424.805 25.3906 415.039 21.4844 c 0
 404.785 18.0664 394.043 14.6484 381.836 11.7188 c 0
 370.117 8.30078 357.91 5.85938 346.191 2.92969 c 0
 328.613 -0.488281 313.965 -2.92969 301.758 -4.88281 c 0
 290.039 -6.83594 279.297 -7.8125 270.02 -7.8125 c 0
 187.5 -7.8125 128.418 15.625 92.7734 62.9883 c 0
 75.6836 86.9141 65.918 112.305 63.9648 139.648 c 0
 62.0117 166.504 64.4531 196.289 71.7773 229.004 c 0
 85.9375 294.434 119.629 348.145 172.852 391.113 c 0
 199.219 411.621 227.539 427.246 258.789 437.988 c 0
 290.527 448.73 322.754 454.102 355.957 454.102 c 0
 368.164 454.102 381.836 453.125 397.949 451.66 c 0
 414.062 449.707 425.293 447.754 432.129 444.824 c 2
 469.238 432.129 l 1
 473.145 432.129 477.539 434.082 481.934 437.988 c 0
 486.816 441.895 490.723 447.266 494.141 454.102 c 1
 529.785 454.102 l 1
 501.953 299.805 l 1
 466.797 299.805 l 1
 453.125 374.023 416.016 411.133 355.957 411.133 c 0
 330.566 411.133 308.105 406.25 288.574 396.484 c 0
 269.043 386.719 250.488 371.094 232.91 350.098 c 0
 217.773 331.543 205.078 311.035 195.312 289.062 c 0
 186.035 267.09 178.223 242.676 172.852 215.82 c 0
 167.48 189.941 165.527 166.016 166.504 144.043 c 0
 167.48 122.07 173.34 103.516 184.082 87.8906 c 0
 195.801 69.8242 208.984 56.6406 223.633 47.3633 c 0
 237.793 38.5742 257.812 34.1797 283.203 34.1797 c 0
 290.527 34.1797 298.828 34.668 308.105 36.1328 c 0
 317.383 37.1094 326.172 39.0625 334.961 41.0156 c 0
 355.469 46.3867 367.188 53.7109 369.141 62.9883 c 2
 392.09 167.969 l 2
 395.508 183.105 396.484 194.336 395.508 201.172 c 0
 394.531 207.52 389.16 212.402 379.883 214.844 c 0
 374.023 216.797 362.793 217.773 346.191 217.773 c 1
 353.027 250.977 l 1
 539.062 250.977 l 1
 532.227 217.773 l 1
EndSplineSet
EndChar
StartChar: H
Encoding: 72 72 41
OldEncoding: 72
Width: 526
Flags: HW
HStem: 0 21<26 235 26 26 291 500 291 291> 207 46<230 395> 433 20<122 331 331 331 387 596 596 596>
Fore
590 425 m 1
 591 425 550 424 537 414 c 0
 529 407 523 387 522 380 c 1
 459 86 l 2
 454 62 451 50 459 39 c 0
 465 31 507 30 506 30 c 1
 500 0 l 1
 291 0 l 1
 297 30 l 1
 298 30 339 31 349 39 c 0
 358 46 362 54 370 91 c 2
 395 207 l 1
 220 207 l 1
 195 91 l 2
 187 54 189 46 193 39 c 0
 199 31 241 30 241 30 c 1
 235 0 l 1
 26 0 l 1
 32 30 l 1
 33 30 74 31 84 39 c 1
 95 50 98 62 103 86 c 2
 167 384 l 1
 168 392 172 407 165 414 c 1
 157 425 116 425 116 425 c 1
 122 453 l 1
 331 453 l 1
 325 425 l 1
 325 425 290 424 275 414 c 0
 264 406 261 396 254 369 c 1
 230 253 l 1
 405 253 l 1
 429 369 l 1
 436 396 434 406 427 414 c 0
 419 425 380 425 381 425 c 1
 387 453 l 1
 596 453 l 1
 590 425 l 1
EndSplineSet
MinimumDistance: x31,-1 
Back
589.844 424.805 m 1
 596.191 453.125 l 1
 387.207 453.125 l 1
 380.859 424.805 l 1
 381.836 424.805 384.766 424.805 390.625 424.316 c 0
 395.996 424.316 402.832 423.34 411.133 421.387 c 0
 418.945 419.922 424.316 417.48 426.758 414.062 c 0
 430.176 410.156 432.129 404.785 433.105 398.438 c 0
 433.594 392.09 432.129 382.324 429.199 369.141 c 1
 404.785 252.93 l 1
 229.98 252.93 l 1
 253.906 369.141 l 1
 257.324 382.324 260.254 392.09 263.184 398.438 c 0
 265.625 404.785 269.531 410.156 274.902 414.062 c 0
 279.785 417.48 286.133 419.922 294.434 421.387 c 0
 302.734 423.34 310.059 424.316 315.43 424.316 c 0
 321.289 424.805 324.219 424.805 325.195 424.805 c 1
 331.055 453.125 l 1
 122.07 453.125 l 1
 116.211 424.805 l 1
 117.188 424.805 121.094 424.805 126.953 424.316 c 0
 132.812 424.316 140.137 423.34 148.438 421.387 c 0
 156.738 419.922 162.109 417.48 165.039 414.062 c 0
 168.457 410.645 169.434 405.762 168.945 399.414 c 0
 168.457 393.066 167.48 388.184 166.992 383.789 c 2
 103.027 85.9375 l 2
 100.098 74.2188 97.6562 64.4531 95.7031 57.6172 c 0
 93.2617 50.293 89.3555 44.4336 83.9844 39.0625 c 0
 80.5664 36.1328 74.707 34.1797 65.918 33.2031 c 0
 57.1289 31.7383 49.8047 30.7617 43.457 30.2734 c 0
 37.1094 30.2734 33.2031 29.7852 32.2266 29.7852 c 1
 25.8789 0 l 1
 234.863 0 l 1
 241.211 29.7852 l 1
 239.746 29.7852 235.84 30.2734 229.98 30.2734 c 0
 224.121 30.7617 216.797 31.7383 208.496 33.2031 c 0
 200.195 34.1797 194.824 36.1328 192.871 39.0625 c 0
 190.918 42.4805 189.941 47.3633 189.453 53.7109 c 0
 188.965 60.0586 190.918 72.2656 194.824 90.8203 c 2
 220.215 207.031 l 1
 395.02 207.031 l 1
 370.117 90.8203 l 2
 366.211 72.2656 362.793 60.0586 359.863 53.7109 c 0
 357.422 47.3633 353.516 42.4805 349.121 39.0625 c 0
 345.703 36.1328 339.844 34.1797 331.055 33.2031 c 0
 322.266 31.7383 314.941 30.7617 308.594 30.2734 c 0
 302.246 30.2734 298.34 29.7852 296.875 29.7852 c 1
 291.016 0 l 1
 500 0 l 1
 505.859 29.7852 l 1
 505.371 29.7852 501.953 30.2734 495.605 30.2734 c 0
 489.258 30.7617 481.934 31.7383 474.121 33.2031 c 0
 465.82 34.1797 460.938 36.1328 458.984 39.0625 c 0
 455.078 44.4336 453.125 50.293 454.102 57.6172 c 0
 454.59 64.4531 456.543 74.2188 458.984 85.9375 c 2
 521.973 379.883 l 2
 522.461 383.301 524.414 389.16 526.855 396.973 c 0
 529.785 404.785 533.203 410.645 537.109 414.062 c 0
 541.016 417.48 547.363 419.922 556.641 421.387 c 0
 565.43 423.34 573.242 424.316 579.59 424.316 c 0
 585.938 424.805 589.355 424.805 589.844 424.805 c 1
EndSplineSet
EndChar
StartChar: I
Encoding: 73 73 42
OldEncoding: 73
Width: 248
Flags: HW
HStem: 0 30<25 48.5 210 228 228 228> 421 31
Fore
228 0 m 1
 19 0 l 1
 25 30 l 1
 72 30 86 39 95 80 c 1
 157 372 l 1
 161 392 163 407 159 414 c 0
 155 423 133 423 109 423 c 1
 115 452 l 1
 324 452 l 1
 318 423 l 1
 291 423 273 423 264 414 c 0
 258 408 252 394 247 372 c 1
 185 80 l 2
 176 37 186 30 234 30 c 1
 228 0 l 1
EndSplineSet
MinimumDistance: x4,-1 
Back
228.027 0 m 1
 19.043 0 l 1
 24.9023 29.7852 l 1
 48.3398 29.7852 64.4531 33.2031 74.2188 39.5508 c 0
 83.4961 45.8984 90.332 59.5703 95.2148 80.0781 c 1
 157.227 372.07 l 2
 159.18 381.836 160.156 390.625 161.133 397.949 c 0
 161.621 405.273 161.133 410.645 159.18 414.062 c 0
 157.227 418.457 151.367 421.387 141.602 421.875 c 0
 131.836 422.852 121.094 422.852 108.887 422.852 c 1
 115.234 452.148 l 1
 324.219 452.148 l 1
 317.871 422.852 l 1
 304.688 422.852 293.457 422.852 284.668 421.875 c 0
 275.391 421.387 268.555 418.457 264.16 414.062 c 0
 257.812 408.203 252.441 394.043 247.07 372.07 c 1
 185.059 80.0781 l 2
 180.176 58.5938 181.152 44.9219 187.988 39.0625 c 0
 194.824 33.2031 209.961 29.7852 233.887 29.7852 c 1
 228.027 0 l 1
EndSplineSet
EndChar
StartChar: J
Encoding: 74 74 43
OldEncoding: 74
Width: 278
Flags: HW
HStem: -8 21<77.5 107.5> 423 30<157 174.5 339.5 356>
Fore
356 423 m 1
 323 423 303 416 296 401 c 0
 293 395 290 386 287 373 c 1
 235 129 l 1
 227 90 211 57 188 32 c 1
 161 5 128 -8 87 -8 c 0
 68 -8 54 -4 44 3 c 0
 28 14 22 28 26 47 c 0
 30 66 51 89 74 89 c 0
 106 89 114 64 109 41 c 0
 106 33 110 33 113 33 c 0
 122 33 129 45 134 68 c 2
 199 373 l 2
 208 416 198 423 151 423 c 1
 157 453 l 1
 362 453 l 1
 356 423 l 1
EndSplineSet
Back
355.957 422.852 m 1
 323.242 422.852 303.223 415.527 295.898 400.879 c 0
 293.457 395.02 290.527 385.742 287.109 373.047 c 1
 234.863 128.906 l 1
 227.051 89.8438 211.426 57.1289 187.988 32.2266 c 1
 161.133 5.37109 127.441 -7.8125 86.9141 -7.8125 c 0
 68.3594 -7.8125 54.1992 -4.39453 43.9453 2.92969 c 0
 27.832 13.6719 21.9727 28.3203 25.8789 46.875 c 0
 27.832 56.1523 33.6914 65.4297 42.9688 75.1953 c 0
 52.2461 84.4727 62.5 88.8672 74.2188 88.8672 c 0
 89.8438 88.8672 100.586 83.9844 105.469 73.7305 c 0
 110.352 62.9883 111.816 52.2461 108.887 41.0156 c 0
 107.91 37.1094 107.91 34.668 108.887 34.1797 c 0
 110.352 33.2031 111.816 33.2031 112.793 33.2031 c 0
 122.559 33.2031 129.395 44.4336 133.789 67.8711 c 1
 199.219 373.047 l 2
 203.613 394.531 202.637 408.203 195.801 414.062 c 0
 189.453 419.922 174.316 422.852 150.879 422.852 c 1
 157.227 453.125 l 1
 361.816 453.125 l 1
 355.957 422.852 l 1
EndSplineSet
EndChar
StartChar: K
Encoding: 75 75 44
OldEncoding: 75
Width: 540
Flags: HW
HStem: 0 30<36 49.5 237 239 239 239 294 307.5 503 509 509 509> 421 32
Fore
509 0 m 1
 288 0 l 1
 294 30 l 1
 321 30 337 32 341 36 c 0
 342 37 342 37 342 38 c 0
 342 39 342 40 343 41 c 0
 344 49 338 61 330 73 c 1
 232 205 l 1
 223 198 l 1
 198 80 l 2
 194 61 191 47 198 40 c 1
 205 29 229 30 245 30 c 1
 239 0 l 1
 30 0 l 1
 36 30 l 1
 63 30 82 34 93 43 c 0
 98 47 103 64 108 88 c 2
 168 372 l 1
 177 412 167 423 120 423 c 1
 126 453 l 1
 337 453 l 1
 331 423 l 1
 308 423 285 420 276 412 c 0
 268 405 264 392 260 372 c 1
 236 260 l 1
 383 372 l 2
 404 388 415 401 417 411 c 0
 419 419 405 423 374 423 c 1
 380 453 l 1
 573 453 l 1
 567 423 l 1
 548 423 532 423 513 415 c 0
 498 408 481 395 454 374 c 2
 311 257 l 1
 460 48 l 2
 468 37 491 30 515 30 c 1
 509 0 l 1
EndSplineSet
MinimumDistance: x16,-1 
Back
508.789 0 m 1
 288.086 0 l 1
 293.945 29.7852 l 1
 321.289 29.7852 336.914 32.2266 340.82 36.1328 c 0
 341.797 36.6211 341.797 37.1094 341.797 38.0859 c 0
 341.797 38.5742 342.285 39.5508 342.773 41.0156 c 0
 343.75 44.9219 342.773 49.8047 339.844 55.6641 c 0
 337.402 61.0352 333.984 66.8945 330.078 73.2422 c 2
 231.934 205.078 l 1
 223.145 198.242 l 1
 198.242 80.0781 l 2
 195.801 70.8008 194.824 62.5 193.848 55.6641 c 0
 193.359 48.3398 194.824 43.457 198.242 40.0391 c 0
 201.172 34.668 208.008 31.7383 217.773 30.7617 c 0
 228.027 30.2734 236.816 29.7852 245.117 29.7852 c 1
 238.77 0 l 1
 29.7852 0 l 1
 36.1328 29.7852 l 1
 63.4766 29.7852 82.5195 34.1797 92.7734 42.9688 c 0
 95.7031 44.9219 98.1445 49.8047 100.586 58.1055 c 0
 103.027 65.918 105.469 76.1719 107.91 87.8906 c 2
 167.969 372.07 l 1
 172.852 392.09 171.875 405.273 165.039 412.598 c 0
 158.203 419.434 143.555 422.852 120.117 422.852 c 1
 125.977 453.125 l 1
 336.914 453.125 l 1
 331.055 422.852 l 1
 319.824 422.852 308.594 422.363 298.34 420.41 c 0
 288.086 418.945 280.762 416.016 275.879 412.109 c 0
 271.973 408.691 269.043 403.809 266.602 396.973 c 0
 264.16 390.137 262.207 381.836 259.766 372.07 c 2
 235.84 259.766 l 1
 382.812 372.07 l 2
 403.809 388.184 415.039 400.879 416.992 411.133 c 0
 418.945 418.945 404.785 422.852 374.023 422.852 c 1
 379.883 453.125 l 1
 573.242 453.125 l 1
 566.895 422.852 l 1
 557.617 422.852 548.828 422.852 540.039 421.875 c 0
 531.25 421.387 522.461 418.945 513.184 415.039 c 0
 505.859 411.621 497.559 406.738 487.793 399.902 c 0
 478.516 393.555 467.285 384.766 454.102 374.023 c 2
 311.035 256.836 l 1
 459.961 47.8516 l 2
 463.867 42.4805 471.191 38.5742 481.445 35.1562 c 0
 491.699 31.7383 502.93 29.7852 515.137 29.7852 c 1
 508.789 0 l 1
EndSplineSet
EndChar
StartChar: L
Encoding: 76 76 45
OldEncoding: 76
Width: 444
Flags: HW
HStem: 0 42<212.5 218 218 238> 433 20<122 331 122 122>
Fore
464 132 m 1
 400 0 l 1
 26 0 l 1
 32 30 l 1
 76 30 91 41 99 80 c 1
 161 373 l 1
 166 394 168 411 161 414 c 1
 116 424 l 1
 122 453 l 1
 331 453 l 1
 325 424 l 1
 286 420 l 2
 282 419 277 417 272 414 c 0
 265 409 258 395 253 373 c 1
 187 62 l 1
 184 54 186 52 190 47 c 0
 193 44 207 42 218 42 c 2
 238 42 l 2
 293 42 328 46 345 54 c 0
 371 65 398 91 425 132 c 1
 464 132 l 1
EndSplineSet
MinimumDistance: x9,-1 
Back
463.867 131.836 m 1
 399.902 0 l 1
 25.8789 0 l 1
 32.2266 29.7852 l 1
 54.1992 29.7852 69.8242 33.6914 79.1016 40.5273 c 0
 88.3789 47.3633 95.2148 60.5469 99.1211 80.0781 c 2
 161.133 373.047 l 1
 163.574 383.789 165.039 393.066 165.527 400.391 c 0
 166.016 408.203 164.551 412.598 161.133 414.062 c 2
 116.211 423.828 l 1
 122.07 453.125 l 1
 331.055 453.125 l 1
 325.195 423.828 l 1
 286.133 419.922 l 2
 282.227 419.434 277.344 417.48 271.973 414.062 c 0
 264.648 408.691 258.301 395.02 252.93 373.047 c 1
 187.012 62.0117 l 1
 185.547 58.1055 185.547 55.1758 186.035 53.7109 c 0
 186.523 51.7578 187.988 49.8047 189.941 46.875 c 0
 191.406 45.8984 194.824 44.4336 201.172 43.457 c 0
 207.031 42.4805 212.891 41.9922 217.773 41.9922 c 2
 237.793 41.9922 l 2
 292.48 41.9922 328.125 45.8984 345.215 54.1992 c 0
 371.094 64.4531 397.461 90.8203 424.805 131.836 c 1
 463.867 131.836 l 1
EndSplineSet
EndChar
StartChar: M
Encoding: 77 77 46
OldEncoding: 77
Width: 646
Flags: HW
HStem: 0 30<33 48.5 198 207 207 207 415 429> 432 20<125 276 125 125 559 714 559 559>
Fore
618 0 m 1
 409 0 l 1
 415 30 l 1
 443 30 463 33 471 41 c 0
 476 47 482 63 488 88 c 1
 541 337 l 1
 317 0 l 1
 294 0 l 1
 214 324 l 1
 167 105 l 2
 161 76 159 56 162 47 c 0
 166 36 183 30 213 30 c 1
 207 0 l 1
 27 0 l 1
 33 30 l 1
 64 30 83 35 90 44 c 0
 99 54 107 74 113 105 c 1
 170 371 l 1
 175 392 174 406 169 413 c 0
 167 415 163 417 156 418 c 2
 119 423 l 1
 125 452 l 1
 276 452 l 1
 353 135 l 1
 559 452 l 1
 714 452 l 1
 708 422 l 1
 663 422 648 410 640 371 c 1
 578 80 l 1
 572 54 576 38 590 33 c 1
 624 29 l 1
 618 0 l 1
EndSplineSet
MinimumDistance: x4,-1 
Back
618.164 0 m 1
 409.18 0 l 1
 415.039 29.7852 l 1
 429.199 29.7852 440.918 30.7617 450.684 32.7148 c 0
 459.961 34.1797 466.797 37.1094 471.191 41.0156 c 0
 476.562 46.875 481.934 62.5 487.793 87.8906 c 1
 541.016 336.914 l 1
 316.895 0 l 1
 293.945 0 l 1
 213.867 324.219 l 1
 166.992 104.98 l 1
 161.133 75.6836 159.18 56.1523 162.109 46.875 c 0
 166.016 35.6445 183.105 29.7852 212.891 29.7852 c 1
 207.031 0 l 1
 26.8555 0 l 1
 33.2031 29.7852 l 1
 64.4531 29.7852 83.4961 34.668 89.8438 43.9453 c 1
 99.1211 54.1992 106.934 74.2188 112.793 104.98 c 1
 169.922 371.094 l 2
 174.805 392.09 174.316 406.25 168.945 413.086 c 0
 166.992 415.039 162.598 416.504 155.762 417.969 c 2
 119.141 422.852 l 1
 125 452.148 l 1
 275.879 452.148 l 1
 353.027 134.766 l 1
 559.082 452.148 l 1
 713.867 452.148 l 1
 708.008 421.875 l 1
 685.547 421.875 669.434 418.457 660.156 411.133 c 0
 650.879 403.809 644.043 390.137 640.137 371.094 c 2
 578.125 80.0781 l 1
 571.777 54.1992 576.172 38.5742 589.844 33.2031 c 1
 624.023 28.8086 l 1
 618.164 0 l 1
EndSplineSet
EndChar
StartChar: N
Encoding: 78 78 47
OldEncoding: 78
Width: 534
Flags: HW
HStem: -6 21<415 446 446 446> 0 30<30 45.5 193.5 203 203 203> 423 30<120 127.5 427 436.5 587 601>
Fore
601 423 m 1
 573 423 552 415 543 404 c 0
 534 392 526 373 521 347 c 1
 446 -6 l 1
 415 -6 l 1
 213 336 l 1
 165 106 l 1
 158 77 156 57 159 47 c 0
 162 36 178 30 209 30 c 1
 203 0 l 1
 24 0 l 1
 30 30 l 1
 61 30 81 36 90 48 c 0
 97 56 104 75 111 106 c 1
 172 394 l 1
 160 413 141 423 114 423 c 1
 120 453 l 1
 253 453 l 1
 426 155 l 1
 467 347 l 1
 474 378 477 396 474 405 c 0
 469 417 452 423 421 423 c 1
 427 453 l 1
 607 453 l 1
 601 423 l 1
EndSplineSet
MinimumDistance: x23,-1 
Back
601.074 422.852 m 1
 586.914 422.852 575.195 421.387 564.941 417.48 c 0
 555.176 414.062 547.852 409.18 542.969 403.809 c 0
 533.691 392.09 526.367 373.047 520.996 347.168 c 2
 445.801 -5.85938 l 1
 415.039 -5.85938 l 1
 212.891 335.938 l 1
 165.039 105.957 l 1
 158.203 76.6602 156.25 57.1289 159.18 46.875 c 0
 161.621 35.6445 178.223 29.7852 208.984 29.7852 c 1
 203.125 0 l 1
 23.9258 0 l 1
 29.7852 29.7852 l 1
 61.5234 29.7852 81.543 36.1328 89.8438 47.8516 c 0
 97.168 56.1523 104.492 75.1953 110.84 105.957 c 2
 171.875 394.043 l 1
 160.156 413.574 140.625 422.852 113.77 422.852 c 1
 120.117 453.125 l 1
 252.93 453.125 l 1
 425.781 154.785 l 1
 466.797 347.168 l 2
 470.215 362.305 472.656 374.512 474.121 383.789 c 0
 475.098 393.555 475.098 400.391 474.121 404.785 c 0
 469.238 416.992 451.66 422.852 420.898 422.852 c 1
 426.758 453.125 l 1
 606.934 453.125 l 1
 601.074 422.852 l 1
EndSplineSet
EndChar
StartChar: O
Encoding: 79 79 48
OldEncoding: 79
Width: 499
Flags: HW
HStem: -8 21<184.5 308.5> 441 20<284.5 408.5>
Fore
74 226 m 1
 103 356 222 461 347 461 c 0
 470 461 550 356 521 226 c 1
 494 96 370 -8 247 -8 c 0
 122 -8 47 96 74 226 c 1
171 226 m 0
 147 119 186 35 257 35 c 0
 328 35 400 119 424 226 c 0
 448 332 407 416 338 416 c 0
 266 416 195 332 171 226 c 0
EndSplineSet
Back
74.2188 226.074 m 0
 67.3828 193.359 66.8945 162.598 71.7773 134.277 c 0
 77.1484 105.957 87.8906 81.543 103.516 60.5469 c 0
 119.141 39.5508 139.16 22.9492 164.062 10.7422 c 0
 188.477 -1.95312 216.309 -7.8125 247.07 -7.8125 c 0
 278.32 -7.8125 308.594 -1.95312 338.379 10.7422 c 0
 368.164 22.9492 395.508 39.5508 419.922 60.5469 c 0
 444.824 81.543 465.82 105.957 483.887 134.277 c 0
 501.953 162.598 514.16 193.359 520.996 226.074 c 0
 528.32 258.789 529.297 289.062 523.438 317.383 c 0
 518.066 345.703 506.836 370.605 491.211 392.09 c 0
 475.098 413.574 454.59 430.176 430.664 442.383 c 0
 406.25 454.59 378.418 460.938 347.168 460.938 c 0
 316.406 460.938 286.133 454.59 255.859 442.383 c 0
 226.074 430.176 198.73 413.574 174.316 392.09 c 0
 150.391 370.605 129.395 345.703 111.328 317.383 c 0
 93.75 289.062 81.543 258.789 74.2188 226.074 c 0
170.898 226.074 m 0
 176.758 252.441 185.547 277.344 196.777 300.293 c 0
 208.496 323.73 221.68 343.262 236.328 360.352 c 0
 251.465 377.441 267.578 391.113 285.156 400.879 c 0
 302.246 411.133 319.824 416.016 337.891 416.016 c 0
 355.469 416.016 370.605 411.133 383.789 400.879 c 0
 397.461 391.113 408.203 377.441 416.016 360.352 c 0
 423.828 343.262 428.711 323.73 430.664 300.293 c 0
 432.129 277.344 430.176 252.441 423.828 226.074 c 0
 417.969 199.219 409.18 174.316 397.949 150.879 c 0
 386.719 127.441 373.535 107.422 358.398 90.332 c 0
 343.262 73.7305 327.148 60.0586 309.57 49.8047 c 0
 291.992 40.0391 274.414 35.1562 256.836 35.1562 c 0
 238.77 35.1562 223.145 40.0391 209.961 49.8047 c 0
 196.777 60.0586 186.035 73.7305 178.711 90.332 c 0
 170.898 107.422 166.016 127.441 164.551 150.879 c 0
 162.598 174.316 165.039 199.219 170.898 226.074 c 0
EndSplineSet
EndChar
StartChar: P
Encoding: 80 80 49
OldEncoding: 80
Width: 404
Flags: HW
HStem: 0 21<25 231 231 231> 190 44<228.5 231 231 244 244 249> 412 41<267.5 307>
Fore
366 325 m 0
 378 382 351 412 274 412 c 0
 261 412 257 410 254 398 c 1
 219 235 l 1
 222 234 226 234 231 234 c 2
 249 234 l 2
 314 234 353 264 366 325 c 0
462 326 m 0
 451 278 420 241 373 217 c 0
 337 198 295 190 244 190 c 2
 209 190 l 1
 186 80 l 1
 178 40 192 30 237 30 c 1
 231 0 l 1
 25 0 l 1
 31 30 l 1
 56 30 75 33 82 40 c 0
 89 48 92 63 99 88 c 1
 159 373 l 1
 168 413 160 423 115 423 c 1
 121 453 l 1
 307 453 l 2
 352 453 390 445 420 428 c 0
 458 405 472 371 462 326 c 0
EndSplineSet
MinimumDistance: x0,-1 
Back
366.211 325.195 m 0
 372.07 353.516 367.676 375.488 353.516 390.137 c 0
 339.355 404.785 312.5 412.109 273.926 412.109 c 0
 267.09 412.109 262.695 411.133 259.766 409.668 c 0
 257.324 407.715 255.371 403.809 253.906 397.949 c 2
 219.238 234.863 l 1
 221.68 234.375 225.586 233.887 230.957 233.887 c 2
 249.023 233.887 l 2
 314.453 233.887 353.516 264.16 366.211 325.195 c 0
461.914 326.172 m 0
 456.543 301.758 446.289 280.762 431.152 262.695 c 0
 415.527 244.141 396.484 229.004 373.047 216.797 c 0
 354.98 207.52 335.449 200.684 313.965 196.289 c 0
 292.48 192.383 269.531 189.941 244.141 189.941 c 2
 208.984 189.941 l 1
 186.035 80.0781 l 2
 182.129 60.0586 183.594 46.875 191.406 40.0391 c 0
 199.219 33.2031 214.355 29.7852 236.816 29.7852 c 1
 230.957 0 l 1
 24.9023 0 l 1
 30.7617 29.7852 l 1
 43.457 29.7852 54.6875 30.7617 63.4766 32.7148 c 0
 72.2656 34.1797 78.6133 36.6211 82.0312 40.0391 c 0
 85.4492 43.9453 88.3789 49.8047 90.332 57.6172 c 0
 92.7734 64.9414 95.7031 75.1953 99.1211 87.8906 c 1
 159.18 373.047 l 1
 163.574 393.066 163.086 406.25 157.715 413.086 c 0
 151.855 419.434 137.695 422.852 115.234 422.852 c 1
 121.094 453.125 l 1
 307.129 453.125 l 2
 352.539 453.125 390.137 444.824 419.922 428.223 c 0
 458.008 405.273 472.168 371.094 461.914 326.172 c 0
EndSplineSet
EndChar
StartChar: Q
Encoding: 81 81 50
OldEncoding: 81
Width: 484
Flags: HW
HStem: -107 21<314.5 356 356 416> 444 20<276.5 399>
VStem: 65 92
Fore
64 227 m 1
 93 357 215 464 338 464 c 0
 460 464 539 357 510 227 c 0
 486 112 390 20 286 -4 c 1
 316 -66 375 -77 423 -77 c 1
 416 -107 l 1
 356 -107 l 2
 273 -107 216 -79 184 -28 c 1
 170 1 l 1
 87 33 42 119 64 227 c 1
163 226 m 0
 142 122 178 37 248 37 c 0
 316 37 391 122 412 226 c 0
 433 330 397 415 328 415 c 0
 259 415 184 330 163 226 c 0
EndSplineSet
Back
63.9648 227.051 m 0
 58.5938 200.195 57.1289 174.805 59.5703 150.879 c 0
 62.0117 126.953 67.8711 104.98 77.6367 85.4492 c 0
 87.4023 65.918 99.6094 48.8281 115.723 34.668 c 0
 131.348 20.0195 149.414 8.78906 169.922 0.976562 c 1
 184.082 -27.832 l 1
 200.195 -53.2227 222.168 -72.7539 250.977 -86.4258 c 0
 279.785 -100.098 314.453 -106.934 355.957 -106.934 c 2
 416.016 -106.934 l 1
 422.852 -77.1484 l 1
 411.133 -77.1484 398.438 -76.1719 385.742 -74.707 c 0
 372.559 -72.7539 359.863 -69.3359 347.656 -63.9648 c 0
 334.961 -58.5938 323.73 -51.2695 312.988 -41.5039 c 0
 302.246 -31.7383 293.457 -19.5312 286.133 -3.90625 c 1
 312.012 1.95312 337.402 12.207 361.328 25.8789 c 0
 385.742 40.0391 408.203 57.1289 428.223 77.6367 c 0
 448.242 97.6562 465.332 120.605 479.492 145.996 c 0
 493.652 171.387 503.906 198.242 509.766 227.051 c 0
 517.09 259.766 518.066 290.527 512.695 318.848 c 0
 506.836 347.656 496.094 373.047 480.469 394.531 c 0
 464.844 416.016 444.824 433.105 420.41 445.312 c 0
 395.996 458.008 368.652 463.867 337.891 463.867 c 0
 307.129 463.867 277.344 458.008 247.559 445.312 c 0
 217.773 433.105 190.43 416.016 165.527 394.531 c 0
 140.625 373.047 119.141 347.656 101.562 318.848 c 0
 83.9844 290.527 71.2891 259.766 63.9648 227.051 c 0
163.086 226.074 m 0
 168.457 251.953 176.758 276.367 187.988 299.316 c 0
 199.219 322.266 212.402 342.285 227.539 359.375 c 0
 242.676 376.465 258.789 390.137 275.879 399.902 c 0
 293.457 410.156 310.547 415.039 328.125 415.039 c 0
 345.215 415.039 360.352 410.156 373.535 399.902 c 0
 386.719 390.137 396.484 376.465 403.809 359.375 c 0
 411.133 342.285 416.016 322.266 417.48 299.316 c 0
 418.945 276.367 417.48 251.953 412.109 226.074 c 0
 406.738 200.195 398.438 175.293 387.207 152.344 c 0
 375.488 129.395 362.305 109.375 347.656 92.2852 c 0
 332.52 75.6836 316.406 62.0117 299.316 51.7578 c 0
 282.715 41.9922 265.137 37.1094 248.047 37.1094 c 0
 230.469 37.1094 215.332 41.9922 202.148 51.7578 c 0
 188.477 62.0117 178.223 75.6836 170.898 92.2852 c 0
 163.574 109.375 159.18 129.395 157.715 152.344 c 0
 155.762 175.293 157.715 200.195 163.086 226.074 c 0
EndSplineSet
EndChar
StartChar: R
Encoding: 82 82 51
OldEncoding: 82
Width: 488
Flags: HW
HStem: 0 30<32 45.5 214.5 231 231 231 464 470 470 470> 412 41<284.5 317>
Fore
372 331 m 0
 384 384 355 412 292 412 c 0
 277 412 268 411 265 410 c 1
 262 407 260 405 257 396 c 1
 225 243 l 1
 262 243 286 248 307 256 c 0
 342 269 364 294 372 331 c 0
470 0 m 1
 345 0 l 1
 232 202 l 1
 216 201 l 1
 190 80 l 1
 182 41 192 30 237 30 c 1
 231 0 l 1
 26 0 l 1
 32 30 l 1
 59 30 77 36 84 41 c 0
 89 45 93 61 100 88 c 1
 160 373 l 1
 165 394 166 408 162 413 c 0
 156 420 141 423 116 423 c 1
 122 453 l 1
 317 453 l 2
 436 453 486 412 468 330 c 0
 455 271 409 232 330 213 c 1
 423 58 l 2
 434 39 452 30 476 30 c 1
 470 0 l 1
EndSplineSet
MinimumDistance: x0,-1 
Back
372.07 331.055 m 0
 377.93 357.91 374.023 377.93 359.863 391.602 c 0
 346.191 405.273 323.242 412.109 291.992 412.109 c 0
 276.855 412.109 267.578 411.133 265.137 410.156 c 0
 263.672 408.691 262.207 407.227 261.23 405.273 c 0
 259.766 403.809 258.301 400.879 256.836 395.996 c 1
 225.098 243.164 l 1
 243.652 243.164 259.277 244.141 271.973 246.582 c 0
 284.668 249.023 296.387 251.953 307.129 255.859 c 0
 342.285 269.531 363.77 294.434 372.07 331.055 c 0
470.215 0 m 1
 345.215 0 l 1
 231.934 202.148 l 1
 215.82 201.172 l 1
 189.941 80.0781 l 2
 186.035 60.5469 187.012 47.3633 193.359 40.5273 c 0
 199.707 33.6914 214.355 29.7852 236.816 29.7852 c 1
 230.957 0 l 1
 25.8789 0 l 1
 32.2266 29.7852 l 1
 45.4102 29.7852 56.6406 31.25 65.4297 33.6914 c 0
 74.707 35.6445 80.5664 38.5742 83.9844 41.0156 c 0
 86.4258 42.9688 89.3555 47.8516 91.3086 56.1523 c 0
 93.75 63.9648 96.6797 74.707 100.098 87.8906 c 1
 160.156 373.047 l 1
 165.527 394.531 166.016 407.715 162.109 413.086 c 0
 155.762 419.434 140.625 422.852 116.211 422.852 c 1
 122.07 453.125 l 1
 316.895 453.125 l 2
 435.547 453.125 485.84 412.109 467.773 330.078 c 0
 455.566 271.484 409.18 232.422 330.078 212.891 c 1
 422.852 58.1055 l 2
 434.57 39.5508 452.148 29.7852 476.074 29.7852 c 1
 470.215 0 l 1
EndSplineSet
EndChar
StartChar: S
Encoding: 83 83 52
OldEncoding: 83
Width: 361
Flags: HW
HStem: -7 38<178.5 199.5> 417 44<246.5 272.5>
Fore
362 118 m 0
 354 81 332 49 295 24 c 0
 262 3 225 -7 186 -7 c 0
 171 -7 153 -5 130 2 c 0
 111 9 97 13 90 13 c 0
 83 13 78 6 76 -7 c 1
 43 -7 l 1
 55 147 l 1
 85 147 l 1
 101 68 128 31 181 31 c 0
 218 31 255 59 262 96 c 0
 267 120 261 142 244 161 c 0
 237 169 218 184 187 204 c 1
 159 224 138 241 126 256 c 1
 109 281 103 309 110 341 c 0
 126 413 194 461 266 461 c 0
 279 461 296 458 321 450 c 2
 353 439 l 1
 358 440 363 448 370 461 c 1
 401 461 l 1
 383 304 l 1
 350 304 l 1
 349 339 343 365 327 386 c 0
 310 407 289 417 262 417 c 0
 231 417 208 396 201 364 c 0
 196 341 208 318 237 295 c 2
 325 227 l 2
 360 200 372 164 362 118 c 0
EndSplineSet
Back
361.816 118.164 m 0
 354.004 80.5664 331.543 49.3164 294.922 23.9258 c 1
 261.719 3.41797 225.098 -6.83594 186.035 -6.83594 c 0
 178.711 -6.83594 170.41 -6.34766 161.133 -4.88281 c 0
 151.855 -3.90625 141.113 -1.46484 129.883 1.95312 c 0
 110.84 9.27734 97.168 13.1836 89.8438 13.1836 c 0
 82.5195 13.1836 78.125 6.34766 76.1719 -6.83594 c 1
 42.9688 -6.83594 l 1
 55.1758 146.973 l 1
 84.9609 146.973 l 1
 92.7734 107.91 104.492 78.6133 119.141 59.5703 c 0
 133.789 40.5273 154.297 30.7617 181.152 30.7617 c 0
 199.707 30.7617 216.797 37.1094 232.91 49.3164 c 0
 249.023 62.0117 258.789 77.1484 262.207 96.1914 c 0
 267.09 120.117 261.23 141.602 244.141 161.133 c 0
 240.723 165.039 234.375 170.898 224.609 178.223 c 0
 214.844 185.547 202.148 193.848 187.012 204.102 c 0
 172.852 213.867 160.645 223.145 150.391 231.934 c 0
 140.137 240.723 131.836 248.535 125.977 255.859 c 0
 108.887 280.762 103.516 309.082 109.863 340.82 c 0
 113.77 358.887 121.094 375.488 130.859 390.137 c 0
 141.113 404.785 152.832 417.48 166.992 428.223 c 0
 181.152 438.477 196.289 446.777 213.379 452.637 c 0
 230.469 458.008 248.047 460.938 266.113 460.938 c 0
 272.461 460.938 280.273 459.961 289.062 458.496 c 0
 297.852 457.031 308.105 454.102 320.801 450.195 c 2
 353.027 438.965 l 1
 357.91 440.43 363.281 447.754 370.117 460.938 c 1
 400.879 460.938 l 1
 382.812 304.199 l 1
 350.098 304.199 l 1
 349.121 321.289 347.168 336.426 344.238 350.098 c 0
 340.82 363.281 334.961 375.488 327.148 386.23 c 0
 310.547 406.738 288.574 416.992 262.207 416.992 c 0
 246.582 416.992 233.398 412.109 222.656 402.344 c 0
 211.426 393.066 204.102 379.883 201.172 363.77 c 0
 196.289 340.82 208.496 317.871 236.816 294.922 c 2
 325.195 227.051 l 2
 359.863 200.195 372.07 164.062 361.816 118.164 c 0
EndSplineSet
EndChar
StartChar: T
Encoding: 84 84 53
OldEncoding: 84
Width: 435
Flags: HW
HStem: 0 30<119 134.5 304 322 322 322> 324 129<118 122 122 122 449 486 486 486> 409 44<233 258 258 258 350 376 376 392>
Fore
486 324 m 1
 449 324 l 1
 450 362 446 385 436 393 c 0
 423 402 408 409 376 409 c 2
 350 409 l 1
 280 80 l 1
 272 40 280 30 328 30 c 1
 322 0 l 1
 113 0 l 1
 119 30 l 1
 150 30 162 35 173 42 c 2
 172 42 l 1
 178 47 184 62 190 88 c 1
 258 409 l 1
 233 409 l 2
 200 409 181 405 166 394 c 0
 153 385 138 362 122 324 c 1
 86 324 l 1
 118 453 l 1
 508 453 l 1
 486 324 l 1
EndSplineSet
MinimumDistance: x19,-1 
Back
485.84 324.219 m 1
 449.219 324.219 l 1
 450.195 361.816 445.801 384.766 436.035 393.066 c 0
 429.199 397.461 421.875 401.367 413.086 404.297 c 0
 404.297 407.715 392.09 409.18 375.977 409.18 c 2
 350.098 409.18 l 1
 279.785 80.0781 l 1
 275.879 60.0586 276.855 46.875 283.203 40.0391 c 0
 289.062 33.2031 304.199 29.7852 328.125 29.7852 c 1
 321.777 0 l 1
 112.793 0 l 1
 119.141 29.7852 l 1
 134.277 29.7852 145.996 31.25 153.32 33.6914 c 0
 161.133 35.6445 167.48 38.5742 172.852 41.9922 c 2
 171.875 41.9922 l 2
 178.223 46.875 184.082 62.0117 189.941 87.8906 c 1
 257.812 409.18 l 1
 232.91 409.18 l 2
 216.309 409.18 202.637 407.715 192.383 405.273 c 0
 182.129 403.32 173.34 399.414 166.016 394.043 c 0
 152.832 385.254 138.184 361.816 122.07 324.219 c 1
 85.9375 324.219 l 1
 118.164 453.125 l 1
 507.812 453.125 l 1
 485.84 324.219 l 1
EndSplineSet
EndChar
StartChar: U
Encoding: 85 85 54
OldEncoding: 85
Width: 521
Flags: HW
HStem: -8 45<248 293.5> 423 30<115 132.5 296.5 320 422 429.5>
Fore
592 424 m 1
 561 421 541 416 534 405 c 0
 527 396 521 376 515 347 c 1
 478 176 l 1
 467 129 453 91 433 64 c 1
 394 16 333 -8 254 -8 c 0
 138 -8 90 50 114 167 c 1
 158 373 l 1
 167 413 156 423 109 423 c 1
 115 453 l 1
 326 453 l 1
 320 423 l 1
 273 423 256 415 248 373 c 1
 203 162 l 1
 186 79 213 37 283 37 c 0
 328 37 365 53 393 85 c 0
 405 99 415 127 424 169 c 2
 462 347 l 1
 469 378 470 397 466 404 c 0
 460 417 443 423 416 423 c 1
 422 453 l 1
 598 453 l 1
 592 424 l 1
EndSplineSet
MinimumDistance: x0,-1 
Back
591.797 423.828 m 1
 576.66 422.852 563.965 420.41 554.199 417.48 c 0
 543.945 414.551 537.109 410.156 534.18 404.785 c 0
 527.344 395.508 520.996 376.465 515.137 347.168 c 1
 478.027 175.781 l 1
 472.656 152.832 466.309 131.348 458.984 112.305 c 0
 451.66 93.2617 442.871 77.1484 433.105 63.9648 c 0
 413.574 40.0391 388.672 21.9727 358.398 9.76562 c 0
 328.125 -1.95312 293.457 -7.8125 253.906 -7.8125 c 0
 195.801 -7.8125 155.273 6.34766 131.348 35.6445 c 0
 107.91 64.4531 102.051 108.398 113.77 166.992 c 1
 158.203 373.047 l 1
 162.598 393.066 161.621 406.25 154.297 413.086 c 0
 147.461 419.434 132.324 422.852 108.887 422.852 c 1
 115.234 453.125 l 1
 326.172 453.125 l 1
 319.824 422.852 l 1
 308.105 422.852 297.852 422.363 290.039 420.898 c 0
 282.227 419.434 275.391 416.992 269.531 413.574 c 0
 263.672 409.668 259.277 404.785 255.859 398.438 c 0
 252.441 392.09 250 383.789 248.047 373.047 c 1
 203.125 162.109 l 1
 186.523 78.6133 212.891 37.1094 283.203 37.1094 c 0
 328.125 37.1094 365.234 53.2227 393.066 84.9609 c 0
 404.785 99.1211 415.527 126.953 423.828 168.945 c 1
 461.914 347.168 l 2
 468.75 377.441 470.215 396.484 465.82 403.809 c 0
 459.961 416.504 443.359 422.852 416.016 422.852 c 1
 421.875 453.125 l 1
 598.145 453.125 l 1
 591.797 423.828 l 1
EndSplineSet
EndChar
StartChar: V
Encoding: 86 86 55
OldEncoding: 86
Width: 497
Flags: HW
HStem: -6 21<243 276 276 276> 424 29<105 107 286 298 423 433.5 570 576>
Fore
576 424 m 1
 564 424 555 423 550 421 c 0
 531 414 525 404 520 397 c 1
 276 -6 l 1
 243 -6 l 1
 156 360 l 1
 150 387 144 405 138 413 c 1
 127 424 115 424 99 424 c 1
 105 453 l 1
 304 453 l 1
 298 424 l 1
 274 424 260 423 251 418 c 0
 248 417 247 412 246 408 c 0
 245 405 250 383 259 342 c 1
 305 140 l 1
 440 361 l 1
 447 374 455 387 460 402 c 0
 464 417 450 424 417 424 c 1
 423 453 l 1
 582 453 l 1
 576 424 l 1
EndSplineSet
Back
576.172 423.828 m 1
 563.965 423.828 555.176 422.852 549.805 420.898 c 0
 540.527 417.48 534.18 413.574 529.785 409.18 c 0
 525.879 404.297 522.461 400.391 520.02 396.973 c 1
 275.879 -5.85938 l 1
 243.164 -5.85938 l 1
 155.762 359.863 l 1
 149.902 387.207 144.043 404.785 138.184 413.086 c 0
 132.812 418.457 126.953 421.387 120.605 422.363 c 0
 114.258 423.34 106.934 423.828 99.1211 423.828 c 1
 104.98 453.125 l 1
 304.199 453.125 l 1
 297.852 423.828 l 1
 286.133 423.828 276.367 423.828 269.043 422.852 c 0
 261.719 422.363 255.859 420.898 250.977 417.969 c 0
 249.512 417.48 248.535 416.016 248.047 414.062 c 0
 247.559 412.109 246.582 410.156 246.094 408.203 c 0
 245.117 404.785 249.512 382.812 258.789 341.797 c 2
 305.176 140.137 l 1
 439.941 360.84 l 1
 443.359 367.676 446.777 374.512 450.684 380.859 c 0
 454.102 387.695 457.52 394.531 459.961 401.855 c 0
 463.867 416.504 449.707 423.828 416.992 423.828 c 1
 422.852 453.125 l 1
 582.031 453.125 l 1
 576.172 423.828 l 1
EndSplineSet
EndChar
StartChar: W
Encoding: 87 87 56
OldEncoding: 87
Width: 683
Flags: HW
HStem: -6 21<215 243 243 243 439 471 471 471> 423 30<285.5 293 322 327.5 501.5 518>
Fore
756 425 m 1
 721 418 711 412 696 389 c 1
 471 -6 l 1
 439 -6 l 1
 432 43 417 133 394 254 c 1
 243 -6 l 1
 215 -6 l 1
 161 352 l 1
 157 380 153 397 150 402 c 0
 144 415 129 422 106 424 c 1
 112 453 l 1
 299 453 l 1
 293 423 l 1
 278 423 273 422 266 421 c 0
 261 420 256 419 249 416 c 1
 246 405 245 398 248 383 c 1
 288 158 l 1
 383 319 l 1
 374 370 l 1
 369 393 364 407 361 412 c 1
 354 419 339 423 316 423 c 1
 322 453 l 1
 524 453 l 1
 518 423 l 1
 485 423 466 418 463 408 c 1
 463 395 l 1
 505 157 l 1
 623 357 l 2
 634 376 638 390 641 402 c 0
 643 411 642 416 637 419 c 1
 601 424 l 1
 607 453 l 1
 762 453 l 1
 756 425 l 1
EndSplineSet
MinimumDistance: x0,-1 
Back
755.859 424.805 m 1
 738.77 421.875 726.074 417.48 718.262 413.086 c 0
 710.938 408.203 703.125 400.391 695.801 389.16 c 1
 471.191 -5.85938 l 1
 438.965 -5.85938 l 1
 435.547 18.5547 430.176 53.2227 422.363 97.168 c 0
 415.039 141.113 405.273 193.359 394.043 253.906 c 1
 243.164 -5.85938 l 1
 214.844 -5.85938 l 1
 161.133 352.051 l 1
 157.227 379.883 153.32 396.484 149.902 401.855 c 0
 144.043 414.551 129.395 421.875 105.957 423.828 c 1
 111.816 453.125 l 1
 298.828 453.125 l 1
 292.969 422.852 l 1
 285.645 422.852 280.273 422.852 276.367 422.363 c 0
 272.949 422.363 269.531 421.875 266.113 420.898 c 0
 263.184 420.41 260.742 419.434 257.812 418.945 c 0
 255.371 418.457 252.441 417.48 249.023 416.016 c 1
 247.559 410.645 247.07 405.762 246.582 400.879 c 0
 246.094 396.484 246.582 390.137 248.047 382.812 c 2
 288.086 158.203 l 1
 382.812 318.848 l 1
 374.023 370.117 l 1
 368.652 392.578 364.258 406.738 360.84 412.109 c 0
 354.492 419.434 339.355 422.852 315.918 422.852 c 1
 321.777 453.125 l 1
 523.926 453.125 l 1
 518.066 422.852 l 1
 484.863 422.852 466.309 417.969 462.891 408.203 c 1
 462.891 395.02 l 1
 504.883 157.227 l 1
 623.047 356.934 l 2
 628.418 366.211 632.324 374.512 634.766 381.836 c 0
 637.695 389.16 639.648 395.996 641.113 401.855 c 0
 643.066 410.645 641.602 416.504 637.207 418.945 c 1
 601.074 423.828 l 1
 606.934 453.125 l 1
 762.207 453.125 l 1
 755.859 424.805 l 1
EndSplineSet
EndChar
StartChar: X
Encoding: 88 88 57
OldEncoding: 88
Width: 541
Flags: HW
HStem: 0 21<30 207 207 207 291 511 511 511> 423 30<339 351 426 435.5 587.5 600>
Fore
511 0 m 1
 291 0 l 1
 297 29 l 1
 337 32 351 40 352 45 c 0
 355 56 349 69 334 98 c 1
 297 181 l 1
 209 95 l 2
 183 69 169 52 168 45 c 0
 166 35 181 30 213 30 c 1
 207 0 l 1
 30 0 l 1
 36 29 l 1
 59 32 75 33 84 41 c 2
 114 68 l 1
 113 68 l 1
 274 224 l 1
 227 324 l 1
 206 371 189 400 177 410 c 0
 170 417 152 420 127 424 c 1
 133 453 l 1
 357 453 l 1
 351 423 l 1
 327 423 308 422 305 421 c 0
 301 418 294 416 294 412 c 0
 291 400 306 369 333 318 c 1
 346 290 l 1
 455 396 l 2
 460 401 462 406 463 411 c 0
 465 419 451 423 420 423 c 1
 426 453 l 1
 606 453 l 1
 600 423 l 1
 575 423 547 411 543 408 c 0
 536 405 514 385 493 365 c 2
 372 248 l 1
 452 75 l 1
 464 46 488 32 517 29 c 1
 511 0 l 1
EndSplineSet
MinimumDistance: x5,-1 
Back
511.23 0 m 1
 291.016 0 l 1
 296.875 28.8086 l 1
 316.895 30.2734 331.055 32.7148 338.867 36.1328 c 0
 347.168 39.5508 351.562 42.4805 352.051 44.9219 c 0
 353.516 50.293 352.539 56.6406 349.609 64.4531 c 0
 346.68 72.2656 341.309 83.4961 333.984 98.1445 c 1
 296.875 181.152 l 1
 208.984 95.2148 l 2
 183.105 68.8477 169.434 52.2461 167.969 44.9219 c 0
 166.016 35.1562 181.152 29.7852 212.891 29.7852 c 1
 207.031 0 l 1
 29.7852 0 l 1
 36.1328 28.8086 l 1
 47.3633 30.2734 57.1289 31.7383 64.9414 33.2031 c 0
 73.2422 34.1797 79.1016 37.1094 83.9844 41.0156 c 2
 113.77 67.8711 l 1
 112.793 67.8711 l 1
 273.926 224.121 l 1
 227.051 324.219 l 1
 205.566 371.094 188.965 399.902 176.758 410.156 c 0
 173.828 413.574 167.48 416.016 159.18 417.969 c 0
 150.391 419.922 139.648 421.875 126.953 423.828 c 1
 132.812 453.125 l 1
 356.934 453.125 l 1
 351.074 422.852 l 1
 338.867 422.852 328.613 422.852 319.824 422.363 c 0
 311.523 422.363 306.152 421.875 305.176 420.898 c 0
 303.223 419.434 300.781 418.457 297.852 416.992 c 0
 295.41 415.527 293.945 414.062 293.945 412.109 c 0
 292.48 405.762 295.41 395.02 302.734 379.395 c 0
 309.57 363.77 319.824 343.262 333.008 317.871 c 1
 346.191 290.039 l 1
 455.078 395.996 l 2
 459.473 400.879 462.402 405.762 462.891 411.133 c 0
 464.844 418.945 450.684 422.852 419.922 422.852 c 1
 425.781 453.125 l 1
 605.957 453.125 l 1
 600.098 422.852 l 1
 587.402 422.852 575.195 420.898 563.477 416.504 c 0
 551.758 412.109 544.922 409.18 542.969 408.203 c 0
 539.551 406.738 533.203 401.855 523.438 393.066 c 0
 513.672 384.277 503.906 375 493.164 365.234 c 2
 372.07 248.047 l 1
 452.148 75.1953 l 1
 458.008 60.5469 466.797 49.3164 478.027 41.9922 c 0
 489.258 34.668 502.441 30.2734 517.09 28.8086 c 1
 511.23 0 l 1
EndSplineSet
EndChar
StartChar: Y
Encoding: 89 89 58
OldEncoding: 89
Width: 502
Flags: HW
HStem: 0 30<146 162 357.5 368 368 368> 424 29<110 113.5 295.5 311 418 427>
Fore
578 425 m 1
 559 422 544 418 534 413 c 0
 519 405 499 385 470 352 c 2
 344 207 l 1
 317 80 l 2
 313 61 311 46 316 39 c 0
 323 31 341 30 374 30 c 1
 368 0 l 1
 140 0 l 1
 146 30 l 1
 178 30 199 34 210 42 c 0
 215 45 220 61 226 88 c 1
 250 201 l 1
 170 366 159 393 145 409 c 0
 134 421 123 424 104 424 c 1
 110 453 l 1
 317 453 l 1
 311 424 l 1
 280 424 264 420 263 412 c 1
 260 405 264 400 268 389 c 1
 327 254 l 1
 445 395 l 2
 449 400 453 406 454 411 c 0
 456 420 442 424 412 424 c 1
 418 453 l 1
 584 453 l 1
 578 425 l 1
EndSplineSet
MinimumDistance: x0,-1 
Back
578.125 424.805 m 1
 558.594 421.875 543.945 417.48 534.18 413.086 c 0
 526.855 409.18 518.066 401.855 507.324 392.09 c 0
 497.07 381.836 484.863 368.652 470.215 352.051 c 2
 344.238 207.031 l 1
 316.895 80.0781 l 2
 314.941 70.8008 313.477 62.5 312.988 55.1758 c 0
 312.5 47.8516 313.477 42.4805 315.918 39.0625 c 0
 319.336 35.1562 325.684 32.7148 334.961 31.7383 c 0
 344.238 30.2734 357.422 29.7852 374.023 29.7852 c 1
 368.164 0 l 1
 140.137 0 l 1
 145.996 29.7852 l 1
 178.223 29.7852 199.219 34.1797 209.961 41.9922 c 0
 214.844 45.4102 220.215 60.5469 226.074 87.8906 c 2
 250 201.172 l 1
 229.98 242.188 213.867 275.879 202.148 300.781 c 0
 189.941 326.172 180.176 346.191 172.852 360.84 c 0
 165.527 375.488 160.156 386.23 155.762 393.066 c 0
 151.855 399.902 148.438 404.785 145.02 409.18 c 0
 139.648 415.039 133.789 418.945 127.441 420.898 c 0
 121.094 422.852 113.281 423.828 104.004 423.828 c 1
 109.863 453.125 l 1
 316.895 453.125 l 1
 311.035 423.828 l 1
 280.273 423.828 264.16 419.922 263.184 412.109 c 0
 261.719 408.691 261.719 405.273 263.184 401.855 c 0
 264.16 398.438 266.113 394.531 268.066 389.16 c 2
 327.148 253.906 l 1
 444.824 395.02 l 2
 446.777 397.461 448.73 400.391 450.684 402.832 c 0
 452.148 405.762 453.125 408.203 454.102 411.133 c 0
 456.055 419.434 441.895 423.828 412.109 423.828 c 1
 417.969 453.125 l 1
 583.984 453.125 l 1
 578.125 424.805 l 1
EndSplineSet
EndChar
StartChar: Z
Encoding: 90 90 59
OldEncoding: 90
Width: 465
Flags: HW
HStem: 0 42<157 307> 412 41<265 395 395 395>
Fore
465 133 m 1
 418 0 l 1
 27 0 l 1
 31 20 l 1
 395 412 l 1
 265 412 l 2
 226 412 198 404 179 387 c 0
 170 380 159 359 145 324 c 1
 109 324 l 1
 151 453 l 1
 518 453 l 1
 514 433 l 1
 157 42 l 1
 307 42 l 2
 343 42 370 50 389 67 c 0
 398 76 412 98 431 133 c 1
 465 133 l 1
EndSplineSet
Back
464.844 132.812 m 1
 417.969 0 l 1
 26.8555 0 l 1
 30.7617 20.0195 l 1
 395.02 412.109 l 1
 265.137 412.109 l 2
 226.562 412.109 197.754 403.809 179.199 387.207 c 0
 170.41 379.883 159.18 358.887 145.02 324.219 c 1
 108.887 324.219 l 1
 150.879 453.125 l 1
 518.066 453.125 l 1
 514.16 433.105 l 1
 157.227 41.9922 l 1
 307.129 41.9922 l 2
 342.773 41.9922 370.117 50.293 389.16 66.8945 c 0
 393.555 71.7773 399.414 79.5898 406.738 90.332 c 0
 413.574 101.562 421.875 115.723 431.152 132.812 c 1
 464.844 132.812 l 1
EndSplineSet
EndChar
StartChar: bracketleft
Encoding: 91 91 60
OldEncoding: 91
Width: 171
Flags: HW
HStem: -84 34<90 97 97 152 152 152> 452 34<201 266 266 266>
Fore
152 -84 m 1
 5 -84 l 1
 126 486 l 1
 273 486 l 1
 266 452 l 1
 201 452 l 2
 190 452 182 445 178 430 c 1
 82 -23 l 2
 78 -41 83 -50 97 -50 c 2
 159 -50 l 1
 152 -84 l 1
EndSplineSet
Back
151.855 -83.9844 m 1
 4.88281 -83.9844 l 1
 125.977 485.84 l 1
 272.949 485.84 l 1
 266.113 452.148 l 1
 201.172 452.148 l 2
 189.453 452.148 182.129 444.824 178.223 430.176 c 1
 82.0312 -22.9492 l 2
 78.125 -41.0156 83.0078 -49.8047 97.168 -49.8047 c 2
 159.18 -49.8047 l 1
 151.855 -83.9844 l 1
EndSplineSet
EndChar
StartChar: backslash
Encoding: 92 92 61
OldEncoding: 92
Width: 247
Flags: HW
HStem: -117 21<165 218 218 218> 457 20<104 156 104 104>
Fore
218 -117 m 1
 165 -117 l 1
 104 477 l 1
 156 477 l 1
 218 -117 l 1
EndSplineSet
MinimumDistance: x0,-1 
Back
217.773 -117.188 m 1
 165.039 -117.188 l 1
 104.004 477.051 l 1
 155.762 477.051 l 1
 217.773 -117.188 l 1
EndSplineSet
EndChar
StartChar: bracketright
Encoding: 93 93 62
OldEncoding: 93
Width: 174
Flags: HW
HStem: -84 34<-10 54> 452 34<104 159 159 166>
Fore
130 -84 m 1
 -17 -84 l 1
 -10 -50 l 1
 54 -50 l 2
 67 -50 75 -43 78 -29 c 2
 174 425 l 2
 178 443 173 452 159 452 c 2
 97 452 l 1
 104 486 l 1
 251 486 l 1
 130 -84 l 1
EndSplineSet
Back
129.883 -83.9844 m 1
 -17.0898 -83.9844 l 1
 -9.76562 -49.8047 l 1
 54.1992 -49.8047 l 2
 67.3828 -49.8047 75.1953 -42.9688 78.125 -28.8086 c 1
 173.828 424.805 l 2
 178.223 442.871 172.852 452.148 159.18 452.148 c 2
 97.168 452.148 l 1
 104.004 485.84 l 1
 250.977 485.84 l 1
 129.883 -83.9844 l 1
EndSplineSet
EndChar
StartChar: asciicircum
Encoding: 94 94 63
OldEncoding: 94
Width: 332
Flags: HW
HStem: 194 21<55 113 113 113 301 359 359 359> 429 20<235 287 235 235>
Fore
359 194 m 1
 301 194 l 1
 248 385 l 1
 113 194 l 1
 55 194 l 1
 235 449 l 1
 287 449 l 1
 359 194 l 1
EndSplineSet
Back
358.887 193.848 m 1
 300.781 193.848 l 1
 248.047 384.766 l 1
 112.793 193.848 l 1
 55.1758 193.848 l 1
 234.863 449.219 l 1
 287.109 449.219 l 1
 358.887 193.848 l 1
EndSplineSet
EndChar
StartChar: underscore
Encoding: 95 95 64
OldEncoding: 95
Width: 352
Flags: HW
HStem: -56 35<-3 339 339 339>
Fore
339 -56 m 1
 -11 -56 l 1
 -3 -21 l 1
 347 -21 l 1
 339 -56 l 1
EndSplineSet
Back
338.867 -56.1523 m 1
 -11.2305 -56.1523 l 1
 -2.92969 -20.9961 l 1
 347.168 -20.9961 l 1
 338.867 -56.1523 l 1
EndSplineSet
EndChar
StartChar: grave
Encoding: 96 96 65
OldEncoding: 96
Width: 139
Flags: HW
HStem: 204 21<136 174 174 174> 268 20<86.5 97.5>
Fore
174 204 m 1
 136 204 l 1
 79 245 l 1
 70 249 67 257 68 268 c 0
 71 281 79 288 94 288 c 0
 101 288 109 284 116 277 c 1
 174 204 l 1
EndSplineSet
Back
173.828 204.102 m 1
 136.23 204.102 l 1
 79.1016 245.117 l 1
 70.3125 249.023 66.8945 256.836 67.8711 268.066 c 0
 70.8008 281.25 79.1016 288.086 94.2383 288.086 c 0
 101.562 288.086 108.887 284.18 116.211 276.855 c 1
 173.828 204.102 l 1
EndSplineSet
EndChar
StartChar: a
Encoding: 97 97 66
OldEncoding: 97
Width: 347
Flags: HMW
HStem: -5 21<82.5 120.5 239.5 267.5> 313 34<220.5 237.5>
Fore
241 188 m 1
 172 165 133 137 126 102 c 0
 123 87 124 75 131 65 c 0
 135 58 141 53 154 53 c 0
 179 53 198 61 213 77 c 0
 217 81 221 92 222 97 c 2
 241 188 l 1
335 34 m 1
 307 8 280 -5 255 -5 c 0
 224 -5 210 9 211 36 c 1
 168 9 134 -5 107 -5 c 0
 58 -5 29 28 40 76 c 0
 48 113 71 143 109 166 c 0
 124 174 169 193 249 224 c 1
 257 263 l 2
 264 296 252 313 223 313 c 0
 196 313 180 304 175 285 c 0
 174 283 174 279 174 273 c 0
 174 258 173 248 156 231 c 0
 147 223 132 219 123 219 c 0
 100 219 87 232 92 259 c 0
 98 286 118 309 152 327 c 0
 179 342 205 347 236 347 c 0
 320 347 344 309 325 224 c 1
 295 84 l 1
 291 63 292 52 299 52 c 0
 306 52 320 59 345 78 c 1
 335 34 l 1
EndSplineSet
MinimumDistance: x11,-1 
Back
241.211 187.988 m 1
 171.875 165.527 133.301 136.719 125.977 102.051 c 0
 122.559 87.4023 124.512 75.1953 130.859 64.9414 c 0
 132.812 61.5234 135.742 58.5938 139.16 56.6406 c 0
 142.09 54.1992 147.461 53.2227 153.809 53.2227 c 0
 178.711 53.2227 198.242 61.0352 212.891 77.1484 c 0
 214.844 79.1016 216.797 82.0312 218.262 86.4258 c 0
 220.215 90.8203 221.191 94.2383 222.168 97.168 c 2
 241.211 187.988 l 1
334.961 34.1797 m 1
 307.129 7.8125 280.273 -4.88281 254.883 -4.88281 c 0
 224.121 -4.88281 209.473 8.78906 210.938 36.1328 c 1
 168.457 8.78906 133.789 -4.88281 106.934 -4.88281 c 0
 82.5195 -4.88281 63.4766 2.44141 50.7812 17.5781 c 0
 38.5742 32.7148 34.668 51.7578 40.0391 76.1719 c 0
 47.8516 113.281 70.8008 143.555 108.887 166.016 c 0
 116.211 169.922 131.348 176.758 154.297 186.523 c 0
 177.734 196.289 208.984 208.496 249.023 224.121 c 1
 256.836 263.184 l 2
 263.672 296.387 252.441 312.988 223.145 312.988 c 0
 196.289 312.988 180.176 303.711 174.805 285.156 c 0
 174.316 283.203 173.828 278.809 173.828 272.949 c 0
 173.828 267.09 173.828 262.207 172.852 258.789 c 0
 172.363 255.859 170.898 251.465 167.969 246.582 c 0
 165.527 241.699 161.133 236.328 155.762 230.957 c 0
 151.367 227.051 145.996 224.121 139.648 222.168 c 0
 133.301 220.215 127.441 219.238 123.047 219.238 c 0
 111.816 219.238 103.027 222.168 97.168 229.004 c 0
 90.8203 235.84 89.3555 245.605 91.7969 258.789 c 0
 98.1445 286.133 118.164 309.082 151.855 327.148 c 0
 165.527 334.473 178.711 339.355 192.383 342.285 c 0
 206.055 345.703 220.703 347.168 235.84 347.168 c 0
 277.832 347.168 305.664 337.402 318.848 317.383 c 0
 332.52 297.852 334.473 266.602 325.195 224.121 c 2
 294.922 83.9844 l 1
 291.016 62.5 292.48 51.7578 298.828 51.7578 c 0
 302.246 51.7578 307.617 54.1992 314.941 58.1055 c 0
 322.266 62.0117 332.52 68.8477 345.215 78.125 c 1
 334.961 34.1797 l 1
EndSplineSet
EndChar
StartChar: b
Encoding: 98 98 67
OldEncoding: 98
Width: 401
Flags: HMW
HStem: -5 39<204.5 222> 291 62 437 20<152 155> 497 20<248 248>
Fore
324 157 m 0
 332 193 334 222 327 246 c 0
 319 276 301 291 273 291 c 0
 258 291 243 287 230 278 c 0
 214 267 205 256 202 243 c 2
 163 61 l 1
 160 42 194 34 215 34 c 0
 271 34 307 75 324 157 c 0
414 183 m 0
 405 140 382 99 347 63 c 0
 305 18 253 -5 191 -5 c 0
 166 -5 142 -4 122 7 c 0
 93 22 78 30 81 49 c 1
 162 427 l 2
 165 442 166 451 165 452 c 0
 162 455 158 457 152 457 c 2
 121 454 l 1
 126 482 l 1
 150 489 197 502 248 517 c 1
 259 513 l 1
 218 318 l 1
 245 339 283 353 312 353 c 0
 357 353 388 335 405 298 c 0
 420 265 423 227 414 183 c 0
EndSplineSet
MinimumDistance: x13,-1 
Back
324.219 157.227 m 0
 328.125 174.805 330.566 191.406 331.055 206.055 c 0
 331.543 220.703 330.566 233.887 327.148 246.094 c 0
 318.848 275.879 300.781 291.016 272.949 291.016 c 0
 257.812 291.016 243.164 286.621 229.98 277.832 c 0
 213.867 267.09 204.59 255.859 202.148 243.164 c 2
 163.086 61.0352 l 1
 162.109 56.1523 163.574 52.2461 166.992 48.8281 c 0
 170.41 45.8984 174.805 42.9688 180.176 40.5273 c 0
 185.547 38.0859 191.406 36.6211 198.242 35.6445 c 0
 204.59 34.668 210.449 34.1797 214.844 34.1797 c 0
 270.996 34.1797 307.129 75.1953 324.219 157.227 c 0
414.062 183.105 m 0
 409.18 161.621 401.367 140.625 390.137 120.605 c 0
 378.906 100.098 364.258 81.0547 347.168 62.9883 c 0
 305.176 17.5781 252.93 -4.88281 190.918 -4.88281 c 0
 178.223 -4.88281 166.016 -4.39453 154.297 -2.92969 c 0
 143.066 -1.46484 131.836 1.46484 122.07 6.83594 c 0
 107.422 14.1602 96.6797 20.9961 89.3555 26.3672 c 0
 82.5195 32.2266 79.5898 39.5508 81.0547 48.8281 c 1
 162.109 426.758 l 2
 165.527 442.383 166.504 450.684 165.039 452.148 c 0
 162.109 455.566 158.203 457.031 151.855 457.031 c 2
 121.094 454.102 l 1
 125.977 481.934 l 1
 138.184 485.352 154.785 490.234 176.758 496.582 c 0
 199.219 502.93 222.656 509.766 248.047 517.09 c 1
 258.789 513.184 l 1
 217.773 317.871 l 1
 231.445 328.613 246.582 337.402 264.16 343.262 c 0
 281.25 349.609 297.363 353.027 312.012 353.027 c 0
 357.422 353.027 388.184 334.473 404.785 297.852 c 0
 412.109 281.25 416.992 263.672 418.457 244.629 c 0
 420.41 225.586 418.457 205.078 414.062 183.105 c 0
EndSplineSet
EndChar
StartChar: c
Encoding: 99 99 68
OldEncoding: 99
Width: 336
Flags: HW
HStem: -5 67<192.5 195> 310 37<239 257.5>
Fore
341 118 m 1
 286 36 227 -5 163 -5 c 0
 120 -5 87 11 68 48 c 0
 53 79 46 116 57 163 c 0
 67 213 91 256 129 292 c 0
 169 329 214 347 264 347 c 0
 293 347 316 341 333 329 c 0
 357 314 365 290 361 267 c 0
 356 244 335 226 310 226 c 0
 289 226 276 243 275 266 c 0
 272 298 271 310 244 310 c 0
 219 310 195 297 174 271 c 0
 155 248 142 221 136 191 c 0
 128 155 130 125 143 102 c 1
 156 75 178 62 207 62 c 0
 228 62 247 68 266 81 c 0
 279 89 297 106 320 133 c 1
 341 118 l 1
EndSplineSet
Back
340.82 118.164 m 1
 286.133 36.1328 227.051 -4.88281 163.086 -4.88281 c 0
 141.602 -4.88281 123.047 -0.976562 106.445 7.32422 c 0
 90.332 15.625 77.1484 29.2969 67.8711 47.8516 c 0
 60.5469 63.4766 55.6641 80.5664 53.2227 99.6094 c 0
 50.293 118.652 51.7578 139.648 57.1289 163.086 c 0
 66.8945 212.891 90.8203 255.859 128.906 291.992 c 0
 168.945 328.613 213.867 347.168 264.16 347.168 c 0
 293.457 347.168 316.406 340.82 333.008 329.102 c 0
 345.215 321.777 353.027 312.5 357.422 300.781 c 0
 361.816 289.551 362.793 278.32 360.84 267.09 c 0
 358.398 255.859 352.539 246.094 342.773 237.793 c 0
 333.496 229.98 322.754 226.074 310.059 226.074 c 0
 299.316 226.074 291.016 229.98 285.156 237.305 c 0
 278.809 245.117 275.879 254.883 274.902 266.113 c 0
 273.438 282.227 271.484 293.457 268.555 299.805 c 0
 265.625 306.641 257.324 310.059 244.141 310.059 c 0
 218.75 310.059 195.312 296.875 173.828 270.996 c 0
 154.785 247.559 142.09 221.191 136.23 190.918 c 0
 127.93 154.785 130.371 125.488 143.066 102.051 c 0
 156.25 75.1953 177.734 62.0117 207.031 62.0117 c 0
 227.539 62.0117 247.559 68.3594 266.113 81.0547 c 0
 279.297 88.8672 297.363 106.445 319.824 132.812 c 1
 340.82 118.164 l 1
EndSplineSet
EndChar
StartChar: d
Encoding: 100 100 69
OldEncoding: 100
Width: 383
Flags: HW
HStem: -6 21<247 247> -5 53<156.5 166.5> 436 20<315 318.5> 497 20<409 409>
Fore
288 251 m 1
 291 271 287 288 277 301 c 0
 268 312 253 316 237 316 c 0
 176 316 142 244 131 191 c 0
 118 127 122 48 191 48 c 0
 220 48 241 60 253 85 c 1
 288 251 l 1
369 33 m 1
 247 -6 l 1
 235 1 l 1
 240 24 l 1
 213 5 183 -5 150 -5 c 0
 121 -5 95 4 72 21 c 0
 41 45 32 97 47 165 c 0
 58 216 80 258 114 293 c 0
 153 333 197 353 244 353 c 0
 267 353 287 346 306 333 c 1
 326 427 l 2
 329 440 330 448 329 450 c 0
 326 454 322 456 315 456 c 2
 284 453 l 1
 290 482 l 1
 365 503 385 509 409 517 c 1
 423 513 l 1
 334 92 l 1
 327 65 331 59 352 59 c 2
 375 61 l 1
 369 33 l 1
EndSplineSet
Back
288.086 250.977 m 1
 290.527 270.996 287.109 287.598 276.855 300.781 c 0
 272.461 306.152 266.602 310.059 259.277 312.5 c 0
 252.441 314.941 245.117 315.918 236.816 315.918 c 0
 221.68 315.918 208.008 312.012 195.801 304.199 c 0
 184.082 295.898 173.828 285.645 165.039 273.438 c 0
 156.25 261.23 148.926 247.559 143.555 232.91 c 0
 137.695 218.262 133.789 204.102 130.859 190.918 c 0
 127.441 174.805 125.488 158.691 125 141.602 c 0
 124.512 124.512 125.977 109.375 129.883 95.7031 c 0
 133.789 82.0312 140.625 70.3125 150.391 61.5234 c 0
 160.156 52.7344 173.828 47.8516 190.918 47.8516 c 0
 220.215 47.8516 241.211 60.5469 252.93 84.9609 c 1
 288.086 250.977 l 1
369.141 33.2031 m 1
 247.07 -5.85938 l 1
 234.863 0.976562 l 1
 240.234 23.9258 l 1
 213.379 4.88281 183.105 -4.88281 149.902 -4.88281 c 0
 120.605 -4.88281 94.7266 3.90625 71.7773 20.9961 c 0
 56.6406 33.2031 46.875 51.2695 42.4805 76.6602 c 0
 38.0859 101.562 39.5508 130.859 46.875 165.039 c 0
 57.6172 215.82 80.0781 258.301 113.77 292.969 c 0
 153.32 333.008 196.777 353.027 244.141 353.027 c 0
 266.602 353.027 287.109 346.191 306.152 333.008 c 1
 326.172 426.758 l 1
 329.102 440.43 330.566 448.242 329.102 450.195 c 0
 326.172 454.102 321.777 456.055 314.941 456.055 c 2
 284.18 453.125 l 1
 290.039 481.934 l 1
 308.594 487.305 324.219 491.699 336.914 495.117 c 0
 349.609 498.535 360.352 501.465 369.141 503.906 c 0
 377.441 506.836 384.766 508.789 391.113 511.23 c 0
 396.973 513.184 402.832 515.137 409.18 517.09 c 1
 422.852 513.184 l 1
 333.984 91.7969 l 1
 330.566 78.6133 330.078 69.8242 332.52 65.4297 c 0
 334.961 61.0352 341.309 59.082 352.051 59.082 c 2
 375 61.0352 l 1
 369.141 33.2031 l 1
EndSplineSet
EndChar
StartChar: e
Encoding: 101 101 70
OldEncoding: 101
Width: 344
Flags: HW
HStem: -5 65<173.5 186> 199 41<145 269> 305 42<225.5 241.5>
Fore
226 305 m 0
 192 305 165 283 145 240 c 1
 269 240 l 1
 272 283 257 305 226 305 c 0
352 126 m 1
 339 99 319 72 292 48 c 0
 252 13 209 -5 163 -5 c 0
 83 -5 46 46 51 126 c 0
 52 135 54 147 58 163 c 0
 68 212 89 254 121 288 c 0
 158 327 201 347 250 347 c 0
 335 347 371 291 351 199 c 1
 132 199 l 1
 115 106 140 60 207 60 c 0
 246 60 284 87 331 139 c 1
 352 126 l 1
EndSplineSet
Back
226.074 305.176 m 0
 191.895 305.176 165.039 283.203 145.02 240.234 c 1
 269.043 240.234 l 1
 271.484 283.203 257.324 305.176 226.074 305.176 c 0
352.051 125.977 m 1
 345.215 112.793 336.914 99.1211 327.148 85.9375 c 0
 316.895 72.7539 305.176 60.0586 291.992 47.8516 c 0
 251.953 12.6953 208.984 -4.88281 163.086 -4.88281 c 0
 123.047 -4.88281 93.75 6.83594 75.1953 30.2734 c 0
 56.1523 54.1992 48.3398 85.9375 50.7812 125.977 c 0
 51.7578 130.859 52.7344 136.23 53.7109 142.09 c 0
 54.6875 147.949 56.1523 154.785 58.1055 163.086 c 0
 67.8711 212.402 88.8672 253.906 121.094 288.086 c 0
 158.203 327.148 201.172 347.168 250 347.168 c 0
 292.48 347.168 322.754 333.984 339.844 307.617 c 0
 357.422 281.25 360.84 245.117 351.074 199.219 c 1
 131.836 199.219 l 1
 115.234 106.445 140.137 60.0586 207.031 60.0586 c 0
 226.562 60.0586 246.094 66.8945 266.113 80.0781 c 0
 286.133 93.2617 307.617 112.793 331.055 139.16 c 1
 352.051 125.977 l 1
EndSplineSet
EndChar
StartChar: f
Encoding: 102 102 71
OldEncoding: 102
Width: 302
Flags: HW
HStem: 0 30 306 40<89 138 138 138 224 301 301 301> 497 20<274 327.5>
Fore
387 463 m 0
 383 440 366 424 338 424 c 0
 326 424 314 432 307 449 c 0
 301 468 294 478 285 478 c 0
 263 478 248 459 239 421 c 1
 224 346 l 1
 310 346 l 1
 301 306 l 1
 216 306 l 1
 169 84 l 2
 164 61 163 47 166 41 c 0
 171 32 189 28 222 28 c 1
 216 0 l 1
 14 0 l 1
 20 28 l 1
 61 31 70 34 73 37 c 0
 80 45 86 61 91 84 c 2
 138 306 l 1
 80 306 l 1
 89 346 l 1
 147 346 l 1
 173 460 230 517 318 517 c 0
 337 517 350 515 365 506 c 0
 382 495 391 479 387 463 c 0
EndSplineSet
MinimumDistance: x18,-1 
Back
387.207 462.891 m 0
 384.766 451.66 379.883 442.383 371.582 435.059 c 0
 363.281 427.734 352.051 423.828 337.891 423.828 c 0
 332.031 423.828 326.172 425.781 320.312 430.176 c 0
 314.941 434.082 310.547 440.43 307.129 449.219 c 0
 300.781 468.262 293.457 478.027 285.156 478.027 c 0
 263.184 478.027 247.559 458.984 238.77 420.898 c 1
 224.121 346.191 l 1
 310.059 346.191 l 1
 300.781 306.152 l 1
 215.82 306.152 l 1
 168.945 83.9844 l 1
 163.574 61.5234 162.598 46.875 166.016 41.0156 c 0
 170.898 32.2266 189.453 27.832 222.168 27.832 c 1
 215.82 0 l 1
 14.1602 0 l 1
 20.0195 27.832 l 1
 40.5273 29.2969 54.1992 30.7617 61.0352 32.7148 c 0
 67.8711 34.1797 71.7773 35.6445 73.2422 37.1094 c 0
 79.5898 44.9219 85.4492 60.5469 90.8203 83.9844 c 1
 138.184 306.152 l 1
 80.0781 306.152 l 1
 88.8672 346.191 l 1
 146.973 346.191 l 1
 172.852 459.961 229.98 517.09 317.871 517.09 c 0
 327.148 517.09 335.449 516.113 342.773 515.137 c 0
 350.098 513.672 357.91 510.742 365.234 505.859 c 0
 373.535 500.488 379.883 494.141 383.789 486.328 c 0
 388.184 479.004 389.16 471.191 387.207 462.891 c 0
EndSplineSet
EndChar
StartChar: g
Encoding: 103 103 72
OldEncoding: 103
Width: 359
Flags: HW
HStem: -135 21<94.5 152.5> -78 89<141 174.5> 72 48 153 162<217.5 229.5> 332 20<212 256.5>
Fore
268 212 m 0
 272 232 273 252 270 272 c 0
 266 301 253 315 231 315 c 0
 204 315 186 297 178 261 c 0
 163 189 176 153 216 153 c 0
 243 153 260 173 268 212 c 0
291 -19 m 0
 294 -8 285 0 270 4 c 0
 251 11 226 11 203 11 c 2
 141 11 l 2
 132 11 123 12 116 14 c 1
 93 -11 80 -28 78 -38 c 0
 72 -65 100 -78 162 -78 c 0
 187 -78 213 -72 238 -64 c 0
 269 -54 287 -39 291 -19 c 0
399 285 m 1
 346 285 l 1
 349 267 348 249 344 230 c 0
 331 163 271 119 203 119 c 0
 190 119 174 119 166 122 c 2
 164 122 l 2
 159 122 153 116 145 109 c 0
 133 98 127 91 127 88 c 0
 126 83 140 79 171 77 c 2
 256 72 l 2
 308 69 341 39 330 -9 c 1
 314 -92 186 -135 119 -135 c 0
 70 -135 -4 -118 7 -59 c 0
 12 -35 38 -8 84 23 c 1
 68 36 59 46 62 61 c 0
 66 78 89 103 132 135 c 1
 99 155 87 186 95 228 c 0
 111 301 176 352 248 352 c 0
 265 352 287 347 314 336 c 0
 325 332 336 330 347 330 c 2
 408 330 l 1
 399 285 l 1
EndSplineSet
Back
268.066 211.914 m 0
 271.973 231.934 272.461 251.953 270.02 271.973 c 0
 266.113 300.781 252.93 314.941 230.957 314.941 c 0
 203.613 314.941 186.035 296.875 178.223 261.23 c 0
 163.574 188.965 175.781 152.832 215.82 152.832 c 0
 242.676 152.832 259.766 172.852 268.066 211.914 c 0
291.016 -19.043 m 0
 292.48 -13.6719 291.016 -8.78906 287.109 -4.88281 c 0
 283.203 -0.976562 277.344 1.95312 270.02 3.90625 c 0
 260.742 7.32422 250 9.27734 237.793 9.76562 c 0
 226.074 10.7422 214.355 11.2305 203.125 11.2305 c 2
 141.113 11.2305 l 2
 131.836 11.2305 123.535 12.207 116.211 14.1602 c 1
 92.7734 -10.7422 80.0781 -27.832 78.125 -38.0859 c 0
 71.7773 -64.4531 100.098 -78.125 162.109 -78.125 c 0
 174.805 -78.125 187.5 -76.6602 200.195 -74.2188 c 0
 212.891 -71.2891 225.098 -67.8711 237.793 -63.9648 c 0
 269.531 -54.1992 287.109 -39.0625 291.016 -19.043 c 0
398.926 285.156 m 1
 346.191 285.156 l 1
 348.633 267.09 348.145 248.535 344.238 229.98 c 0
 340.82 213.379 334.473 198.242 326.172 184.57 c 0
 317.383 170.898 306.641 159.18 293.945 149.414 c 0
 281.25 139.648 267.09 132.324 251.953 126.953 c 0
 236.816 121.582 220.215 119.141 203.125 119.141 c 0
 196.289 119.141 189.453 119.141 182.617 119.629 c 0
 175.293 119.629 169.922 120.605 166.016 122.07 c 2
 164.062 122.07 l 2
 161.133 122.07 158.691 120.605 155.273 118.164 c 0
 152.344 115.234 148.926 112.305 145.02 108.887 c 0
 132.812 98.1445 126.953 91.3086 126.953 87.8906 c 0
 125.488 82.5195 140.137 79.1016 170.898 77.1484 c 2
 255.859 71.7773 l 2
 282.227 70.8008 302.246 62.9883 316.406 48.3398 c 0
 331.055 34.1797 335.449 15.1367 330.078 -8.78906 c 0
 326.172 -29.7852 315.918 -47.8516 299.316 -63.4766 c 0
 283.203 -79.1016 264.648 -92.2852 243.652 -103.027 c 0
 222.656 -113.77 200.684 -121.582 178.711 -126.953 c 0
 156.25 -132.324 136.23 -134.766 119.141 -134.766 c 0
 106.934 -134.766 93.75 -133.789 79.5898 -131.348 c 0
 64.9414 -129.395 52.2461 -125 40.5273 -119.141 c 0
 28.8086 -112.793 19.5312 -104.98 13.1836 -95.7031 c 0
 6.34766 -85.9375 4.39453 -73.7305 6.83594 -59.082 c 0
 12.207 -35.1562 38.0859 -7.8125 83.9844 22.9492 c 1
 76.1719 29.7852 69.8242 35.6445 65.918 41.5039 c 0
 62.0117 47.3633 60.5469 53.7109 62.0117 61.0352 c 0
 65.918 78.125 89.3555 103.027 131.836 134.766 c 1
 99.1211 154.785 86.9141 186.035 95.2148 228.027 c 0
 99.1211 246.094 105.957 262.695 115.723 277.832 c 0
 125 293.457 136.719 306.641 150.391 317.383 c 0
 164.062 328.613 179.199 336.914 195.801 342.773 c 0
 212.891 349.121 229.98 352.051 248.047 352.051 c 0
 265.137 352.051 287.109 346.68 313.965 335.938 c 0
 325.195 332.031 336.426 330.078 347.168 330.078 c 2
 408.203 330.078 l 1
 398.926 285.156 l 1
EndSplineSet
EndChar
StartChar: h
Encoding: 104 104 73
OldEncoding: 104
Width: 394
Flags: HW
HStem: 0 21<24 197 197 197 215 384 384 384> 297 56 434 20<151 153.5> 497 20<247 247>
Fore
384 0 m 1
 215 0 l 1
 221 26 l 1
 268 31 269 34 281 83 c 1
 311 228 l 1
 321 274 311 297 281 297 c 0
 260 297 234 283 203 256 c 1
 167 83 l 2
 162 60 158 44 165 37 c 0
 166 35 179 31 202 25 c 1
 197 0 l 1
 24 0 l 1
 30 26 l 1
 54 29 69 36 74 43 c 0
 78 47 83 60 88 83 c 2
 165 449 l 1
 160 452 156 454 151 454 c 2
 121 452 l 1
 127 481 l 1
 247 517 l 1
 257 509 l 1
 215 311 l 1
 248 339 283 353 319 353 c 0
 384 353 409 312 392 229 c 1
 361 83 l 1
 356 62 355 48 356 43 c 0
 359 37 370 30 389 23 c 1
 384 0 l 1
EndSplineSet
MinimumDistance: x4,-1 
Back
383.789 0 m 1
 214.844 0 l 1
 221.191 25.8789 l 1
 232.422 27.3438 241.699 28.8086 248.535 30.7617 c 0
 255.371 33.2031 260.742 35.1562 264.16 38.0859 c 0
 267.09 40.5273 270.508 45.8984 272.949 54.1992 c 0
 275.879 62.0117 278.32 71.7773 280.762 83.0078 c 1
 311.035 228.027 l 1
 320.801 273.926 311.035 296.875 280.762 296.875 c 0
 260.254 296.875 234.375 283.203 203.125 255.859 c 1
 166.992 83.0078 l 1
 164.551 71.7773 162.598 62.0117 161.621 54.1992 c 0
 160.645 45.8984 161.621 40.5273 165.039 37.1094 c 0
 166.504 35.1562 178.711 30.7617 202.148 24.9023 c 1
 196.777 0 l 1
 23.9258 0 l 1
 29.7852 25.8789 l 1
 41.9922 27.3438 51.7578 29.7852 59.082 33.2031 c 0
 66.4062 36.1328 71.2891 39.5508 74.2188 42.9688 c 0
 78.125 46.875 82.5195 60.5469 87.8906 83.0078 c 1
 165.039 449.219 l 1
 160.156 452.148 155.762 454.102 150.879 454.102 c 2
 121.094 452.148 l 1
 126.953 480.957 l 1
 247.07 517.09 l 1
 256.836 508.789 l 1
 214.844 311.035 l 1
 248.535 338.867 283.203 353.027 318.848 353.027 c 0
 384.277 353.027 408.691 311.523 392.09 229.004 c 1
 360.84 83.0078 l 2
 356.445 61.5234 354.492 48.3398 355.957 42.9688 c 0
 358.887 37.1094 369.629 30.2734 389.16 22.9492 c 1
 383.789 0 l 1
EndSplineSet
EndChar
StartChar: i
Encoding: 105 105 74
OldEncoding: 105
Width: 205
Flags: HW
HStem: 0 21<13 193 13 13> 498 20<197.5 223.5>
Fore
193 0 m 1
 13 0 l 1
 19 27 l 1
 64 27 75 39 83 82 c 1
 120 253 l 2
 125 276 123 288 114 289 c 1
 76 284 l 1
 82 309 l 1
 206 355 l 1
 217 351 l 1
 159 82 l 2
 155 63 154 45 157 38 c 0
 159 34 173 30 199 26 c 1
 193 0 l 1
156 472 m 1
 163 499 184 518 211 518 c 0
 236 518 252 499 245 472 c 1
 240 445 216 425 191 425 c 0
 164 425 151 445 156 472 c 1
EndSplineSet
Back
192.871 0 m 1
 199.219 25.8789 l 1
 172.852 29.7852 159.18 34.1797 157.227 38.0859 c 0
 155.762 41.5039 155.273 47.3633 155.273 55.6641 c 0
 155.762 63.9648 157.227 72.7539 159.18 82.0312 c 2
 216.797 351.074 l 1
 206.055 354.98 l 1
 82.0312 309.082 l 1
 76.1719 284.18 l 1
 113.77 289.062 l 1
 123.535 288.574 125.488 276.367 120.117 252.93 c 1
 83.0078 82.0312 l 1
 79.1016 60.5469 73.2422 46.3867 64.9414 38.5742 c 0
 57.1289 30.7617 41.5039 26.8555 19.043 26.8555 c 1
 13.1836 0 l 1
 192.871 0 l 1
155.762 472.168 m 0
 153.32 458.496 155.273 447.266 161.621 438.477 c 0
 167.969 429.688 177.734 424.805 190.918 424.805 c 0
 203.613 424.805 215.332 429.688 225.586 438.477 c 0
 235.84 447.266 242.188 458.496 245.117 472.168 c 0
 248.535 485.352 246.582 496.094 240.234 504.883 c 0
 233.398 513.672 223.633 518.066 210.938 518.066 c 0
 197.754 518.066 186.035 513.672 175.781 504.883 c 0
 166.016 496.094 159.18 485.352 155.762 472.168 c 0
EndSplineSet
EndChar
StartChar: j
Encoding: 106 106 75
OldEncoding: 106
Width: 232
Flags: HW
HStem: -159 21<15.5 80.5> 502 20<257.5 282.5>
Fore
276 354 m 1
 201 2 l 2
 178 -106 122 -159 39 -159 c 0
 -8 -159 -26 -135 -21 -108 c 0
 -18 -97 -11 -88 -4 -81 c 1
 3 -76 18 -72 21 -72 c 0
 36 -72 48 -76 55 -95 c 0
 60 -110 71 -117 75 -117 c 0
 83 -117 94 -107 101 -94 c 0
 105 -87 111 -63 119 -22 c 1
 178 255 l 2
 183 278 181 290 173 291 c 1
 134 286 l 1
 139 312 l 1
 266 358 l 1
 276 354 l 1
215 475 m 0
 222 502 245 522 270 522 c 0
 295 522 312 502 305 475 c 0
 298 448 275 429 250 429 c 0
 225 429 208 448 215 475 c 0
EndSplineSet
Back
275.879 354.004 m 1
 266.113 357.91 l 1
 139.16 312.012 l 1
 133.789 286.133 l 1
 172.852 291.016 l 1
 181.152 290.527 182.617 278.32 178.223 254.883 c 1
 119.141 -21.9727 l 1
 110.84 -63.4766 104.98 -87.4023 101.074 -94.2383 c 0
 97.6562 -100.586 93.2617 -105.957 88.3789 -110.352 c 0
 83.4961 -114.746 79.1016 -117.188 75.1953 -117.188 c 0
 73.2422 -117.188 69.8242 -115.234 65.4297 -111.328 c 0
 61.0352 -107.91 57.6172 -102.539 55.1758 -95.2148 c 0
 51.7578 -85.4492 46.875 -79.5898 41.0156 -76.6602 c 0
 35.1562 -73.7305 28.3203 -71.7773 20.9961 -71.7773 c 0
 19.5312 -71.7773 16.1133 -72.7539 9.76562 -74.707 c 0
 3.90625 -76.1719 -0.488281 -78.125 -3.90625 -81.0547 c 0
 -7.32422 -84.4727 -10.7422 -88.3789 -14.1602 -92.7734 c 0
 -17.0898 -97.6562 -19.5312 -102.539 -20.9961 -107.91 c 0
 -23.4375 -121.094 -20.0195 -133.301 -10.7422 -143.555 c 0
 -0.976562 -153.809 15.625 -159.18 39.0625 -159.18 c 0
 80.5664 -159.18 114.746 -145.508 142.578 -119.141 c 0
 170.41 -92.2852 189.453 -51.7578 201.172 1.95312 c 2
 275.879 354.004 l 1
214.844 475.098 m 0
 211.426 461.426 213.379 450.684 220.703 441.895 c 0
 227.539 433.105 237.305 429.199 250 429.199 c 0
 262.695 429.199 273.926 433.105 284.668 441.895 c 0
 294.922 450.684 301.758 461.426 305.176 475.098 c 0
 308.105 488.281 306.641 499.512 299.316 508.301 c 0
 292.48 517.578 282.715 521.973 270.02 521.973 c 0
 257.324 521.973 245.605 517.578 235.352 508.301 c 0
 225.098 499.512 218.262 488.281 214.844 475.098 c 0
EndSplineSet
EndChar
StartChar: k
Encoding: 107 107 76
OldEncoding: 107
Width: 405
Flags: HW
HStem: 0 29<231 249> 326 20<289 454 289 289> 435 20<154 159.5> 495 20<251 251>
Fore
399 0 m 1
 225 0 l 1
 231 29 l 1
 249 29 l 2
 254 29 256 30 257 32 c 0
 257 33 256 34 256 37 c 1
 190 161 l 1
 168 57 l 1
 165 41 174 32 193 30 c 2
 216 28 l 1
 210 0 l 1
 24 0 l 1
 30 28 l 1
 57 31 71 34 72 35 c 0
 81 42 87 50 91 69 c 2
 165 420 l 1
 169 436 169 444 168 447 c 0
 167 451 165 455 154 455 c 2
 120 452 l 1
 126 479 l 1
 251 515 l 1
 265 511 l 1
 203 221 l 1
 301 295 l 1
 310 303 316 307 317 311 c 0
 318 315 306 317 282 317 c 1
 289 346 l 1
 454 346 l 1
 447 316 l 1
 418 316 401 312 386 305 c 0
 375 300 351 285 324 266 c 2
 252 213 l 1
 330 78 l 1
 347 47 370 30 405 29 c 1
 399 0 l 1
EndSplineSet
MinimumDistance: x5,-1 
Back
398.926 0 m 1
 225.098 0 l 1
 230.957 28.8086 l 1
 249.023 28.8086 l 2
 253.906 28.8086 256.348 29.7852 256.836 32.2266 c 0
 256.836 32.7148 256.836 33.2031 256.348 34.1797 c 0
 256.348 34.668 255.859 35.6445 255.859 37.1094 c 1
 189.941 161.133 l 1
 167.969 57.1289 l 1
 165.527 41.0156 173.828 32.2266 192.871 29.7852 c 2
 215.82 27.832 l 1
 209.961 0 l 1
 23.9258 0 l 1
 29.7852 27.832 l 1
 56.6406 31.25 70.8008 33.6914 71.7773 35.1562 c 0
 76.6602 38.5742 80.5664 42.4805 83.4961 47.3633 c 0
 86.4258 52.7344 88.8672 59.5703 90.8203 68.8477 c 2
 165.039 419.922 l 1
 166.992 428.223 167.969 434.082 168.457 438.477 c 0
 168.945 442.871 168.457 445.801 167.969 446.777 c 0
 167.48 449.219 166.016 450.684 164.551 452.637 c 0
 162.598 454.102 159.18 455.078 153.809 455.078 c 2
 120.117 452.148 l 1
 125.977 479.004 l 1
 250.977 515.137 l 1
 265.137 511.23 l 1
 203.125 221.191 l 1
 300.781 294.922 l 2
 305.664 298.828 309.57 302.246 312.012 304.688 c 0
 314.453 306.641 316.406 309.082 316.895 311.035 c 0
 317.871 314.941 306.152 316.895 282.227 316.895 c 1
 289.062 346.191 l 1
 454.102 346.191 l 1
 446.777 315.918 l 1
 432.129 315.918 420.41 314.941 411.133 312.988 c 0
 401.855 311.035 393.555 308.105 386.23 305.176 c 0
 380.859 302.246 372.559 297.363 360.84 290.527 c 0
 349.609 283.691 337.402 275.391 324.219 266.113 c 2
 251.953 212.891 l 1
 330.078 78.125 l 2
 338.867 62.5 349.121 50.7812 360.84 42.4805 c 0
 373.047 34.1797 387.695 29.7852 404.785 28.8086 c 1
 398.926 0 l 1
EndSplineSet
EndChar
StartChar: l
Encoding: 108 108 77
OldEncoding: 108
Width: 209
Flags: HW
HStem: 0 21<17 195 195 195> 436 20<149 152.5> 501 20<255 255>
Fore
195 0 m 1
 17 0 l 1
 23 26 l 1
 63 31 77 41 84 72 c 1
 158 420 l 1
 162 437 163 446 162 449 c 0
 161 454 156 456 149 456 c 2
 111 453 l 1
 117 482 l 1
 142 487 234 516 255 521 c 1
 159 71 l 2
 153 42 167 27 201 27 c 1
 195 0 l 1
EndSplineSet
Back
194.824 0 m 1
 17.0898 0 l 1
 22.9492 25.8789 l 1
 42.9688 28.8086 57.1289 33.2031 65.918 39.5508 c 0
 74.707 45.8984 80.5664 56.6406 83.9844 71.7773 c 2
 158.203 419.922 l 1
 162.109 436.523 163.574 446.289 162.109 449.219 c 0
 160.645 453.613 156.25 456.055 148.926 456.055 c 2
 110.84 453.125 l 1
 117.188 481.934 l 1
 123.047 483.398 132.812 485.84 145.996 489.258 c 0
 159.18 493.164 173.34 497.07 187.5 501.465 c 0
 201.66 505.859 215.332 509.766 228.027 513.672 c 0
 240.723 517.09 249.512 519.531 254.883 520.996 c 1
 159.18 70.8008 l 1
 152.832 41.5039 166.992 26.8555 201.172 26.8555 c 1
 194.824 0 l 1
EndSplineSet
EndChar
StartChar: m
Encoding: 109 109 78
OldEncoding: 109
Width: 625
Flags: HW
HStem: 0 27<34 50.5 197.5 210 210 210 231 249 393.5 408 408 408 428 443.5 589 601 601 601> 294 53
Fore
601 0 m 1
 422 0 l 1
 428 27 l 1
 459 27 479 43 486 75 c 2
 517 222 l 2
 522 245 524 262 522 273 c 0
 518 287 507 294 489 294 c 0
 460 294 434 281 410 256 c 1
 372 75 l 1
 365 44 373 27 414 27 c 1
 408 0 l 1
 225 0 l 1
 231 27 l 1
 267 27 284 44 291 75 c 1
 323 226 l 1
 333 271 324 294 296 294 c 0
 276 294 257 288 238 275 c 0
 225 266 215 261 215 258 c 1
 176 75 l 1
 169 44 179 27 216 27 c 1
 210 0 l 1
 28 0 l 1
 34 27 l 1
 67 27 88 43 95 75 c 2
 135 263 l 2
 136 268 137 273 137 276 c 0
 137 280 136 284 133 287 c 0
 132 288 130 288 127 288 c 0
 120 288 107 287 90 284 c 1
 97 313 l 1
 168 334 190 339 213 347 c 1
 230 347 l 1
 220 300 l 1
 268 327 289 336 296 339 c 0
 312 346 323 347 334 347 c 0
 371 347 395 330 405 296 c 1
 447 330 489 347 530 347 c 0
 593 347 615 301 596 210 c 1
 567 75 l 1
 560 44 571 27 607 27 c 1
 601 0 l 1
EndSplineSet
MinimumDistance: x4,-1 x37,0 x34,0 
Back
601.074 0 m 1
 421.875 0 l 1
 428.223 26.8555 l 1
 459.473 26.8555 478.516 42.9688 485.84 75.1953 c 1
 517.09 222.168 l 1
 522.461 245.117 523.926 262.207 521.973 272.949 c 0
 518.066 287.109 506.836 293.945 488.77 293.945 c 0
 460.449 293.945 434.082 281.25 410.156 255.859 c 1
 372.07 75.1953 l 2
 368.652 59.5703 369.629 47.8516 375 39.5508 c 0
 380.371 31.25 393.555 26.8555 414.062 26.8555 c 1
 408.203 0 l 1
 225.098 0 l 1
 230.957 26.8555 l 1
 249.023 26.8555 262.695 31.25 271.973 39.5508 c 0
 281.25 47.8516 287.598 59.5703 291.016 75.1953 c 2
 323.242 226.074 l 1
 333.008 271.484 324.219 293.945 295.898 293.945 c 0
 275.879 293.945 256.836 287.598 237.793 274.902 c 0
 231.445 270.508 226.074 266.602 221.68 264.16 c 0
 217.285 261.23 214.844 259.277 214.844 257.812 c 1
 175.781 75.1953 l 2
 172.852 59.5703 173.828 47.8516 179.688 39.5508 c 0
 185.059 31.25 197.266 26.8555 215.82 26.8555 c 1
 209.961 0 l 1
 27.832 0 l 1
 34.1797 26.8555 l 1
 67.3828 26.8555 87.8906 42.9688 95.2148 75.1953 c 1
 134.766 263.184 l 2
 136.23 268.555 137.207 272.461 137.207 275.879 c 0
 137.207 279.785 135.742 283.691 132.812 287.109 c 0
 132.324 287.598 130.371 288.086 126.953 288.086 c 0
 123.535 288.086 118.652 287.598 112.305 287.109 c 0
 105.957 286.133 98.6328 285.156 89.8438 284.18 c 1
 97.168 312.988 l 1
 115.234 318.359 129.883 322.754 142.09 326.172 c 0
 153.809 329.102 164.551 332.52 172.852 334.961 c 0
 181.641 337.891 188.965 339.844 194.824 341.309 c 0
 201.172 343.262 207.031 345.215 212.891 347.168 c 1
 229.98 347.168 l 1
 220.215 299.805 l 1
 244.141 313.477 261.719 322.754 273.438 328.613 c 0
 285.156 333.984 292.48 337.891 295.898 338.867 c 0
 304.199 342.285 311.035 344.727 316.895 345.703 c 0
 323.242 346.68 328.613 347.168 333.984 347.168 c 0
 371.094 347.168 395.02 330.078 404.785 295.898 c 1
 446.777 330.078 488.77 347.168 529.785 347.168 c 0
 593.262 347.168 615.234 301.27 596.191 209.961 c 2
 566.895 75.1953 l 2
 563.477 59.5703 564.941 47.8516 570.801 39.5508 c 0
 577.148 31.25 588.867 26.8555 606.934 26.8555 c 1
 601.074 0 l 1
EndSplineSet
EndChar
StartChar: n
Encoding: 110 110 79
OldEncoding: 110
Width: 413
Flags: HW
HStem: 0 21<32 201 201 201 217 382 382 382> 289 57
Fore
382 0 m 1
 217 0 l 1
 223 26 l 1
 242 29 253 32 257 35 c 0
 266 40 273 54 278 79 c 1
 310 229 l 1
 318 269 307 289 278 289 c 0
 261 289 238 278 209 255 c 1
 167 57 l 1
 164 40 178 30 207 26 c 1
 201 0 l 1
 32 0 l 1
 38 26 l 1
 47 26 58 27 67 31 c 0
 78 36 87 50 93 73 c 1
 130 251 l 1
 134 267 135 278 133 283 c 0
 133 286 126 286 118 286 c 0
 113 286 99 283 90 280 c 1
 97 313 l 1
 128 321 189 338 210 346 c 1
 227 346 l 1
 217 300 l 1
 233 315 246 323 257 330 c 0
 278 342 299 346 322 346 c 0
 383 346 405 307 389 230 c 1
 354 67 l 1
 351 51 349 40 353 35 c 0
 356 32 368 29 387 25 c 1
 382 0 l 1
EndSplineSet
MinimumDistance: x5,-1 
Back
381.836 0 m 1
 216.797 0 l 1
 223.145 25.8789 l 1
 241.699 28.8086 252.93 31.7383 256.836 35.1562 c 0
 265.625 39.5508 272.461 54.1992 277.832 79.1016 c 2
 310.059 229.004 l 1
 317.871 269.043 307.129 289.062 277.832 289.062 c 0
 261.23 289.062 238.281 277.832 208.984 254.883 c 1
 166.992 57.1289 l 1
 164.551 40.5273 177.734 29.7852 207.031 25.8789 c 1
 201.172 0 l 1
 32.2266 0 l 1
 38.0859 25.8789 l 1
 42.4805 25.8789 47.3633 26.3672 52.7344 26.8555 c 0
 57.6172 27.832 62.5 28.8086 66.8945 30.7617 c 0
 78.125 35.6445 86.9141 49.8047 92.7734 73.2422 c 1
 129.883 250.977 l 1
 133.789 267.09 134.766 277.832 132.812 283.203 c 0
 132.812 284.18 131.348 285.156 128.418 285.645 c 0
 125.488 285.645 122.07 286.133 118.164 286.133 c 0
 115.234 286.133 111.328 285.156 105.469 284.18 c 0
 99.6094 282.715 94.7266 281.25 89.8438 279.785 c 1
 97.168 312.988 l 1
 104.98 314.941 114.258 317.383 125 319.824 c 0
 135.742 322.754 146.484 325.684 157.715 329.102 c 0
 168.457 332.52 178.711 335.449 187.988 338.379 c 0
 197.266 341.309 204.59 344.238 209.961 346.191 c 1
 227.051 346.191 l 1
 216.797 299.805 l 1
 225.098 307.129 232.422 313.477 238.77 317.871 c 0
 245.605 322.754 251.465 326.66 256.836 330.078 c 0
 267.578 335.938 278.32 340.332 289.062 342.285 c 0
 299.805 344.727 310.547 346.191 321.777 346.191 c 0
 382.812 346.191 404.785 307.129 389.16 229.98 c 1
 354.004 66.8945 l 1
 352.539 59.082 351.562 52.2461 351.074 46.875 c 0
 350.098 41.5039 351.074 37.5977 353.027 35.1562 c 0
 356.445 32.2266 367.676 28.8086 387.207 24.9023 c 1
 381.836 0 l 1
EndSplineSet
EndChar
StartChar: o
Encoding: 111 111 80
OldEncoding: 111
Width: 377
Flags: HW
HStem: -5 21<136 234.5> 327 20<212 310>
Fore
58 171 m 1
 79 267 163 347 261 347 c 0
 359 347 411 267 390 171 c 1
 371 75 283 -5 186 -5 c 0
 86 -5 39 75 58 171 c 1
140 170 m 0
 124 93 137 29 193 29 c 1
 304 21 365 319 253 310 c 1
 197 310 156 246 140 170 c 0
EndSplineSet
Back
58.1055 170.898 m 0
 53.2227 146.973 52.7344 124.512 56.1523 103.027 c 0
 59.5703 81.543 66.4062 62.9883 77.6367 46.875 c 0
 88.3789 30.7617 103.027 18.5547 121.582 8.78906 c 0
 139.648 -0.488281 161.133 -4.88281 186.035 -4.88281 c 0
 210.449 -4.88281 234.375 -0.488281 256.348 8.78906 c 0
 278.809 18.5547 298.828 30.7617 316.895 46.875 c 0
 334.961 62.9883 350.586 81.543 363.281 103.027 c 0
 376.465 124.512 385.254 146.973 390.137 170.898 c 0
 395.508 194.824 395.996 217.773 392.578 238.77 c 0
 388.672 260.254 381.348 278.809 370.117 294.922 c 0
 358.887 311.035 343.75 323.73 325.684 333.008 c 0
 307.129 342.285 285.645 347.168 261.23 347.168 c 0
 236.328 347.168 212.891 342.285 190.918 333.008 c 0
 168.945 323.73 148.926 311.035 130.859 294.922 c 0
 112.793 278.809 97.6562 260.254 84.9609 238.77 c 0
 72.2656 217.773 63.4766 194.824 58.1055 170.898 c 0
140.137 169.922 m 0
 144.043 189.453 149.414 207.52 156.738 224.121 c 0
 163.574 240.723 171.875 255.371 181.641 268.555 c 0
 191.406 281.738 202.148 291.504 213.867 298.828 c 0
 226.074 306.152 238.77 310.059 252.93 310.059 c 0
 267.578 310.059 279.297 306.152 288.086 298.828 c 0
 296.875 291.504 303.223 281.738 307.129 268.555 c 0
 311.035 255.371 312.988 240.723 312.5 224.121 c 0
 312.012 207.52 310.059 189.453 306.152 169.922 c 0
 301.758 150.879 296.875 132.324 290.039 115.723 c 0
 283.203 98.6328 275.391 83.4961 265.625 70.3125 c 0
 255.859 57.6172 245.117 47.3633 232.91 40.0391 c 0
 221.191 32.7148 207.52 28.8086 192.871 28.8086 c 0
 179.199 28.8086 167.48 32.7148 159.18 40.0391 c 0
 150.391 47.3633 144.043 57.6172 139.648 70.3125 c 0
 135.254 83.4961 133.301 98.6328 133.301 115.723 c 0
 133.789 132.324 136.23 150.879 140.137 169.922 c 0
EndSplineSet
EndChar
StartChar: p
Encoding: 112 112 81
OldEncoding: 112
Width: 381
Flags: HW
HStem: -146 21<-13 176 -13 -13> -5 21<196.5 259> 335 20
Fore
129 -74 m 2
 125 -92 126 -103 132 -108 c 0
 137 -113 154 -115 183 -115 c 1
 176 -146 l 1
 -13 -146 l 1
 -7 -117 l 1
 32 -117 43 -107 50 -80 c 1
 121 254 l 1
 124 267 125 277 125 282 c 0
 124 287 120 289 113 289 c 2
 81 287 l 1
 87 313 l 1
 130 326 173 340 216 355 c 1
 213 340 212 327 209 312 c 1
 244 340 279 352 316 352 c 0
 403 352 423 267 407 187 c 0
 386 89 310 -5 208 -5 c 0
 185 -5 165 1 148 14 c 1
 129 -74 l 2
323 164 m 0
 326 179 328 193 328 208 c 0
 328 253 313 291 269 291 c 0
 242 291 209 274 198 251 c 1
 161 73 l 1
 159 62 165 53 179 46 c 0
 193 38 206 34 217 34 c 0
 245 34 268 48 287 76 c 0
 303 99 315 129 323 164 c 0
EndSplineSet
MinimumDistance: x20,-1 
Back
128.906 -74.2188 m 2
 147.949 14.1602 l 1
 164.551 1.46484 184.57 -4.88281 208.008 -4.88281 c 0
 233.398 -4.88281 256.836 0.488281 278.809 11.2305 c 0
 300.781 21.4844 320.801 36.1328 337.891 54.1992 c 0
 355.469 71.7773 369.629 92.2852 381.348 115.723 c 0
 393.066 138.672 401.855 162.109 407.227 187.012 c 0
 411.133 207.031 412.598 227.051 412.109 246.582 c 0
 411.133 266.113 407.715 283.691 400.391 299.316 c 0
 393.555 314.941 382.812 327.637 369.141 337.402 c 0
 354.98 347.168 337.402 352.051 315.918 352.051 c 0
 297.363 352.051 279.297 348.633 261.719 342.285 c 0
 243.652 335.938 226.562 326.172 208.984 312.012 c 1
 210.449 319.336 211.426 326.66 212.402 333.496 c 0
 213.379 340.332 214.844 347.656 215.82 354.98 c 1
 173.34 340.332 130.371 326.172 86.9141 312.988 c 1
 81.0547 287.109 l 1
 112.793 289.062 l 2
 120.117 289.062 124.512 286.621 125 282.227 c 0
 125 276.855 123.535 267.09 121.094 253.906 c 2
 49.8047 -80.0781 l 1
 46.875 -93.2617 41.0156 -103.027 33.6914 -108.398 c 0
 25.8789 -114.258 12.207 -117.188 -6.83594 -117.188 c 1
 -13.1836 -145.996 l 1
 175.781 -145.996 l 1
 183.105 -115.234 l 1
 153.809 -115.234 136.719 -112.793 131.836 -107.91 c 0
 125.977 -103.516 125 -91.7969 128.906 -74.2188 c 2
323.242 164.062 m 0
 314.941 128.906 303.223 99.1211 287.109 76.1719 c 0
 268.555 47.8516 245.117 34.1797 216.797 34.1797 c 0
 205.566 34.1797 192.871 38.0859 179.199 45.8984 c 0
 165.039 53.2227 159.18 62.5 161.133 73.2422 c 2
 198.242 250.977 l 1
 203.125 262.207 213.379 271.973 227.539 279.297 c 0
 241.699 287.109 255.859 291.016 269.043 291.016 c 0
 283.691 291.016 295.41 287.109 304.199 279.297 c 0
 312.5 271.973 318.848 261.719 322.266 249.512 c 0
 326.172 237.305 328.125 223.145 328.125 208.008 c 0
 328.125 193.359 326.172 178.711 323.242 164.062 c 0
EndSplineSet
EndChar
StartChar: q
Encoding: 113 113 82
OldEncoding: 113
Width: 381
Flags: HW
HStem: -155 31<148 169.5> -5 21<105 155> 315 37<212.5 265.5> 333 20<383 383>
Fore
329 -155 m 1
 141 -155 l 1
 148 -124 l 1
 191 -124 216 -108 223 -77 c 1
 246 33 l 1
 212 9 171 -5 139 -5 c 0
 71 -5 41 41 41 100 c 0
 41 121 43 142 48 163 c 0
 70 265 153 352 256 352 c 0
 281 352 305 345 332 328 c 1
 373 351 l 1
 383 353 l 1
 389 345 l 1
 296 -93 l 1
 292 -110 305 -122 335 -127 c 1
 329 -155 l 1
250 76 m 1
 261 104 l 1
 293 252 l 2
 302 294 286 315 245 315 c 0
 180 315 145 244 132 183 c 0
 121 126 126 55 187 55 c 0
 214 55 235 62 250 76 c 1
EndSplineSet
Back
329.102 -154.785 m 1
 334.961 -126.953 l 1
 305.176 -121.582 291.992 -110.352 295.898 -92.7734 c 1
 389.16 345.215 l 1
 382.812 353.027 l 1
 373.047 351.074 l 1
 332.031 328.125 l 1
 318.848 336.426 305.664 342.773 293.457 346.68 c 0
 281.25 350.098 268.555 352.051 255.859 352.051 c 0
 229.98 352.051 205.566 347.168 183.105 336.914 c 0
 160.156 327.148 139.648 313.477 121.582 295.898 c 0
 103.027 278.809 87.8906 258.301 75.1953 235.352 c 0
 62.5 212.402 53.2227 188.477 47.8516 163.086 c 0
 43.457 141.602 41.0156 120.605 41.0156 100.098 c 0
 41.0156 80.0781 44.4336 62.0117 51.2695 46.3867 c 0
 58.5938 30.7617 68.8477 18.5547 83.0078 8.78906 c 0
 97.168 -0.488281 115.723 -4.88281 139.16 -4.88281 c 0
 148.438 -4.88281 159.668 -3.90625 172.852 -0.976562 c 0
 186.523 1.46484 199.219 5.85938 210.938 12.207 c 0
 223.145 18.0664 234.863 24.9023 246.094 33.2031 c 1
 223.145 -77.1484 l 2
 216.309 -108.398 191.406 -124.023 147.949 -124.023 c 1
 141.113 -154.785 l 1
 329.102 -154.785 l 1
250 76.1719 m 1
 235.352 62.0117 214.355 55.1758 187.012 55.1758 c 0
 172.363 55.1758 160.645 59.082 151.367 66.8945 c 0
 142.578 75.1953 136.23 84.9609 132.324 97.6562 c 0
 128.906 109.863 126.953 123.535 127.441 139.16 c 0
 127.93 154.297 129.395 168.945 131.836 183.105 c 0
 135.254 198.242 140.137 213.867 145.996 229.492 c 0
 151.855 245.117 159.668 259.277 168.945 271.973 c 0
 178.223 284.668 189.453 294.922 202.148 303.223 c 0
 214.844 311.035 229.004 314.941 245.117 314.941 c 0
 285.645 314.941 301.758 293.945 292.969 251.953 c 1
 261.23 104.004 l 1
 250 76.1719 l 1
EndSplineSet
EndChar
StartChar: r
Encoding: 114 114 83
OldEncoding: 114
Width: 287
Flags: HW
HStem: 0 27<193 207 207 207> 327 20<209 222 209 209 284.5 313.5>
Fore
335 300 m 0
 328 273 310 260 290 260 c 0
 277 260 267 265 260 274 c 0
 256 279 257 286 249 286 c 0
 241 286 231 280 219 268 c 0
 207 256 200 245 198 235 c 2
 164 74 l 1
 157 43 173 27 213 27 c 1
 207 0 l 1
 21 0 l 1
 26 25 l 1
 51 30 68 34 73 37 c 0
 76 40 81 53 85 69 c 1
 123 249 l 1
 127 272 125 283 118 283 c 2
 83 280 l 1
 88 306 l 1
 135 322 182 336 209 347 c 1
 222 347 l 1
 212 301 l 1
 243 332 271 347 298 347 c 0
 329 347 341 331 335 300 c 0
EndSplineSet
MinimumDistance: x19,-1 
Back
334.961 299.805 m 0
 331.543 286.621 325.684 276.855 317.383 270.02 c 0
 309.082 263.184 299.805 259.766 290.039 259.766 c 0
 277.344 259.766 267.09 264.648 259.766 273.926 c 0
 257.812 276.855 256.836 279.297 255.859 282.227 c 0
 255.371 284.668 252.93 286.133 249.023 286.133 c 0
 241.211 286.133 230.957 279.785 219.238 268.066 c 0
 207.031 255.859 200.195 245.117 198.242 234.863 c 2
 164.062 74.2188 l 1
 156.738 42.4805 172.852 26.8555 212.891 26.8555 c 1
 207.031 0 l 1
 20.9961 0 l 1
 25.8789 24.9023 l 1
 38.5742 27.832 48.8281 29.7852 57.1289 32.2266 c 0
 64.9414 34.1797 70.3125 35.6445 73.2422 37.1094 c 0
 74.2188 38.5742 76.1719 41.9922 78.6133 47.8516 c 0
 81.0547 54.1992 83.0078 61.0352 84.9609 68.8477 c 1
 123.047 249.023 l 1
 126.953 271.484 125.488 283.203 118.164 283.203 c 2
 83.0078 279.785 l 1
 87.8906 306.152 l 1
 111.328 313.965 133.789 321.289 155.762 328.613 c 0
 178.223 335.449 195.801 341.797 208.984 347.168 c 1
 222.168 347.168 l 1
 211.914 300.781 l 1
 242.676 331.543 271.484 347.168 297.852 347.168 c 0
 328.613 347.168 340.82 331.543 334.961 299.805 c 0
EndSplineSet
EndChar
StartChar: s
Encoding: 115 115 84
OldEncoding: 115
Width: 283
Flags: HW
HStem: -5 31<136.5 160> 0 21<29 51 51 51> 327 20<188.5 222>
Fore
273 94 m 0
 260 30 203 -5 142 -5 c 0
 131 -5 116 -3 97 1 c 2
 63 8 l 2
 60 8 56 5 51 0 c 1
 29 0 l 1
 56 127 l 1
 86 127 l 1
 85 94 87 84 92 57 c 0
 97 34 119 26 144 26 c 0
 176 26 195 40 201 69 c 0
 204 88 197 103 179 115 c 1
 116 162 104 172 96 183 c 0
 76 207 73 253 99 290 c 0
 124 325 167 347 210 347 c 0
 234 347 246 344 249 341 c 1
 271 332 l 1
 272 333 273 335 278 342 c 1
 301 342 l 1
 280 226 l 1
 251 226 l 1
 251 285 234 314 201 314 c 0
 176 314 155 302 148 274 c 0
 144 253 149 243 164 232 c 2
 231 186 l 2
 250 173 260 162 267 151 c 0
 278 135 278 118 273 94 c 0
EndSplineSet
Back
272.949 94.2383 m 0
 266.113 62.0117 250.488 37.5977 225.586 20.5078 c 0
 200.684 3.41797 172.852 -4.88281 142.09 -4.88281 c 0
 131.348 -4.88281 116.211 -2.92969 97.168 0.976562 c 2
 62.9883 7.8125 l 2
 60.5469 7.8125 56.1523 5.37109 50.7812 0 c 1
 28.8086 0 l 1
 56.1523 126.953 l 1
 85.9375 126.953 l 1
 85.4492 110.352 85.4492 97.6562 86.4258 89.3555 c 0
 87.4023 81.0547 89.3555 70.3125 91.7969 57.1289 c 0
 94.7266 45.8984 101.074 37.5977 110.352 33.2031 c 0
 120.117 28.3203 131.348 25.8789 144.043 25.8789 c 0
 175.781 25.8789 194.824 40.5273 201.172 68.8477 c 0
 204.102 87.8906 196.777 103.027 179.199 115.234 c 0
 163.086 126.953 150.391 136.719 140.625 144.043 c 0
 130.859 151.367 123.047 157.715 117.188 162.598 c 0
 110.84 167.48 106.445 171.387 103.516 174.316 c 0
 100.586 177.734 98.1445 180.176 96.1914 183.105 c 0
 89.8438 192.383 85.4492 202.148 82.0312 212.891 c 0
 78.6133 223.633 78.6133 236.328 82.0312 250.977 c 0
 85.4492 265.625 91.3086 278.809 99.6094 290.527 c 0
 107.91 302.246 117.676 312.012 129.395 320.312 c 0
 141.113 328.613 153.809 335.449 167.969 339.844 c 0
 182.129 344.727 195.801 347.168 209.961 347.168 c 0
 222.168 347.168 230.957 346.191 237.305 345.215 c 0
 243.652 343.75 247.559 342.285 249.023 340.82 c 2
 270.996 332.031 l 2
 271.484 332.52 272.461 333.496 272.949 334.961 c 0
 273.438 336.426 275.391 338.867 277.832 341.797 c 1
 300.781 341.797 l 1
 279.785 226.074 l 1
 250.977 226.074 l 1
 250.977 284.668 234.375 313.965 201.172 313.965 c 0
 188.477 313.965 177.246 311.035 167.48 304.688 c 0
 157.715 298.34 151.367 288.086 147.949 273.926 c 0
 145.996 263.184 146.484 254.883 148.926 249.023 c 0
 151.855 243.164 156.738 237.305 164.062 231.934 c 2
 230.957 186.035 l 2
 240.234 179.199 248.047 173.34 253.418 167.48 c 0
 259.277 161.621 263.672 156.25 267.09 150.879 c 0
 272.461 143.066 275.391 134.277 275.879 125.488 c 0
 276.855 116.699 275.879 105.957 272.949 94.2383 c 0
EndSplineSet
EndChar
StartChar: t
Encoding: 116 116 85
OldEncoding: 116
Width: 225
Flags: HW
HStem: -5 21<98.5 139.5> 303 41<200 261 261 261> 429 20<212 212>
Fore
227 59 m 1
 203 23 157 -5 122 -5 c 0
 75 -5 59 28 73 94 c 2
 117 303 l 1
 82 303 l 1
 79 319 l 1
 94 330 107 340 122 352 c 0
 150 376 176 405 212 449 c 1
 216 418 l 1
 200 344 l 1
 270 344 l 1
 261 303 l 1
 191 303 l 1
 149 105 l 2
 141 67 146 48 163 48 c 0
 174 48 191 58 212 78 c 1
 227 59 l 1
EndSplineSet
MinimumDistance: x4,-1 
Back
227.051 59.082 m 1
 214.844 41.0156 198.73 25.8789 178.711 13.6719 c 0
 158.203 0.976562 139.16 -4.88281 122.07 -4.88281 c 0
 75.1953 -4.88281 59.082 27.832 73.2422 94.2383 c 2
 117.188 303.223 l 1
 82.0312 303.223 l 1
 79.1016 318.848 l 1
 86.4258 324.219 93.2617 329.59 100.586 334.961 c 0
 107.422 340.332 114.746 346.191 122.07 352.051 c 0
 136.23 363.77 149.902 377.441 164.062 393.066 c 0
 178.223 408.203 193.848 426.758 211.914 449.219 c 1
 215.82 417.969 l 1
 200.195 344.238 l 1
 270.02 344.238 l 1
 261.23 303.223 l 1
 190.918 303.223 l 1
 148.926 104.98 l 2
 141.113 66.8945 145.508 47.8516 163.086 47.8516 c 0
 174.316 47.8516 190.43 58.1055 211.914 78.125 c 1
 227.051 59.082 l 1
EndSplineSet
EndChar
StartChar: u
Encoding: 117 117 86
OldEncoding: 117
Width: 396
Flags: HW
HStem: -8 21<256 256> -5 21<147.5 175> 320 20<92 214 92 92 270 403 270 270>
Fore
380 27 m 1
 367 24 347 22 328 15 c 2
 256 -8 l 1
 264 42 l 1
 246 27 l 2
 218 6 191 -5 159 -5 c 0
 136 -5 115 1 100 13 c 0
 77 29 77 60 84 95 c 1
 123 276 l 1
 126 291 124 301 119 306 c 0
 114 311 106 314 87 314 c 1
 92 340 l 1
 214 340 l 1
 163 99 l 1
 160 83 163 64 176 57 c 0
 183 54 192 53 200 53 c 0
 220 53 241 62 262 77 c 0
 267 80 270 90 273 105 c 2
 309 275 l 1
 316 306 304 311 264 311 c 1
 270 340 l 1
 403 340 l 1
 349 86 l 1
 344 59 349 54 385 54 c 1
 380 27 l 1
EndSplineSet
Back
379.883 26.8555 m 1
 373.535 25.8789 365.234 23.9258 355.957 22.4609 c 0
 346.68 20.9961 337.402 18.5547 328.125 15.1367 c 2
 255.859 -7.8125 l 1
 264.16 41.9922 l 1
 246.094 26.8555 l 2
 231.934 16.1133 217.773 8.30078 204.102 2.92969 c 0
 189.941 -2.44141 174.805 -4.88281 159.18 -4.88281 c 0
 147.461 -4.88281 136.719 -3.41797 126.465 -0.488281 c 0
 116.211 2.44141 107.422 6.83594 100.098 13.1836 c 0
 88.8672 20.9961 82.5195 32.2266 81.0547 46.875 c 0
 79.5898 61.5234 80.5664 77.6367 83.9844 95.2148 c 1
 123.047 275.879 l 1
 125.488 290.527 124.512 300.781 119.141 306.152 c 0
 116.211 308.594 112.793 310.547 107.91 312.012 c 0
 103.516 313.477 96.1914 313.965 86.9141 313.965 c 1
 91.7969 339.844 l 1
 213.867 339.844 l 1
 163.086 99.1211 l 1
 161.621 90.8203 161.621 83.0078 163.574 74.707 c 0
 165.039 66.4062 169.434 60.5469 175.781 57.1289 c 0
 179.199 55.6641 183.105 54.6875 187.5 54.1992 c 0
 191.895 53.2227 195.801 53.2227 200.195 53.2227 c 0
 209.961 53.2227 220.215 55.1758 230.469 59.5703 c 0
 240.723 63.9648 251.465 69.8242 262.207 77.1484 c 0
 266.602 80.5664 270.508 89.8438 272.949 104.98 c 1
 309.082 274.902 l 2
 312.5 290.527 310.547 300.293 304.199 304.688 c 0
 297.363 308.594 284.18 311.035 264.16 311.035 c 1
 270.02 339.844 l 1
 402.832 339.844 l 1
 349.121 85.9375 l 2
 346.191 72.7539 347.168 63.9648 351.562 60.0586 c 0
 355.957 56.1523 367.188 54.1992 384.766 54.1992 c 1
 379.883 26.8555 l 1
EndSplineSet
EndChar
StartChar: v
Encoding: 118 118 87
OldEncoding: 118
Width: 365
Flags: HW
HStem: -13 21<195 195> 320 20<81 239 81 81 308 426 308 308>
Fore
420 312 m 1
 407 312 392 308 385 297 c 2
 195 -13 l 1
 171 4 l 1
 112 290 l 1
 109 294 108 301 104 304 c 0
 97 311 91 312 75 312 c 1
 81 340 l 1
 239 340 l 1
 234 313 l 1
 219 312 210 312 202 305 c 0
 200 304 198 301 197 296 c 0
 196 293 197 288 198 281 c 1
 229 116 l 1
 331 284 l 2
 334 288 335 291 335 293 c 0
 336 298 336 303 333 306 c 0
 329 313 322 312 302 312 c 1
 308 340 l 1
 426 340 l 1
 420 312 l 1
EndSplineSet
Back
419.922 312.012 m 1
 413.574 312.012 406.738 311.035 399.902 308.594 c 0
 393.555 306.152 388.184 302.246 384.766 296.875 c 2
 194.824 -13.1836 l 1
 170.898 3.90625 l 1
 111.816 290.039 l 1
 110.84 291.992 109.375 294.434 108.398 297.363 c 0
 107.422 300.293 105.957 302.734 104.004 304.199 c 0
 100.586 307.129 97.168 309.57 92.7734 310.547 c 0
 88.8672 311.523 83.0078 312.012 75.1953 312.012 c 1
 81.0547 339.844 l 1
 238.77 339.844 l 1
 233.887 312.988 l 1
 226.562 312.5 220.703 311.523 215.332 311.035 c 0
 210.449 310.547 206.055 308.105 202.148 305.176 c 0
 200.195 303.711 198.242 300.781 196.777 295.898 c 0
 196.289 292.48 196.777 287.598 198.242 280.762 c 2
 229.004 116.211 l 1
 331.055 284.18 l 2
 333.496 288.086 334.961 291.016 334.961 292.969 c 0
 336.426 298.34 335.449 302.734 333.008 306.152 c 0
 331.055 309.57 327.637 311.035 323.73 311.523 c 0
 319.336 312.012 312.012 312.012 301.758 312.012 c 1
 308.105 339.844 l 1
 425.781 339.844 l 1
 419.922 312.012 l 1
EndSplineSet
EndChar
StartChar: w
Encoding: 119 119 88
OldEncoding: 119
Width: 541
Flags: HW
HStem: -11 21 313 27<233 233 262 266.5 488 491.5>
Fore
590 314 m 1
 577 311 564 299 552 280 c 2
 373 -11 l 1
 351 10 l 1
 318 182 l 1
 188 -11 l 1
 162 10 l 1
 107 294 l 2
 105 305 97 311 84 313 c 1
 89 340 l 1
 238 340 l 1
 233 313 l 1
 210 311 197 306 195 297 c 0
 194 290 195 276 199 249 c 1
 223 113 l 1
 305 233 l 1
 295 294 l 1
 294 306 276 313 257 313 c 1
 262 340 l 1
 429 340 l 1
 424 314 l 1
 385 305 l 1
 382 302 379 299 377 294 c 0
 377 291 379 276 383 249 c 2
 403 113 l 1
 487 249 l 2
 494 260 500 276 503 287 c 0
 507 304 500 313 483 313 c 1
 488 340 l 1
 595 340 l 1
 590 314 l 1
EndSplineSet
Back
589.844 313.965 m 1
 576.66 310.547 563.965 299.316 551.758 279.785 c 2
 373.047 -11.2305 l 1
 351.074 9.76562 l 1
 317.871 182.129 l 1
 187.988 -11.2305 l 1
 162.109 9.76562 l 1
 106.934 293.945 l 2
 104.98 304.688 97.168 311.035 83.9844 312.988 c 1
 88.8672 339.844 l 1
 237.793 339.844 l 1
 232.91 312.988 l 1
 209.473 311.035 196.777 305.664 194.824 296.875 c 0
 194.336 293.457 194.336 288.086 194.824 280.273 c 0
 195.801 272.949 196.777 262.207 199.219 249.023 c 1
 223.145 112.793 l 1
 305.176 232.91 l 1
 294.922 293.945 l 1
 294.434 299.805 290.039 304.688 282.715 308.105 c 0
 274.902 311.523 266.113 312.988 256.836 312.988 c 1
 262.207 339.844 l 1
 429.199 339.844 l 1
 423.828 313.965 l 1
 384.766 305.176 l 1
 381.836 302.246 378.906 298.828 376.953 293.945 c 0
 376.953 291.504 378.906 276.367 382.812 249.023 c 2
 402.832 112.793 l 1
 486.816 249.023 l 2
 490.234 254.395 493.652 260.742 496.582 268.066 c 0
 499.512 275.391 501.465 281.738 502.93 287.109 c 0
 506.836 304.199 500.488 312.988 482.91 312.988 c 1
 487.793 339.844 l 1
 595.215 339.844 l 1
 589.844 313.965 l 1
EndSplineSet
EndChar
StartChar: x
Encoding: 120 120 89
OldEncoding: 120
Width: 398
Flags: HW
HStem: 0 21<26 148 148 148 212 375 375 375> 312 28<253.5 264 282 285.5 393.5 407>
Fore
375 0 m 1
 212 0 l 1
 217 25 l 1
 241 29 l 2
 244 30 246 33 247 38 c 0
 248 41 247 47 243 56 c 2
 209 133 l 1
 144 57 l 2
 135 46 129 38 126 31 c 0
 123 27 134 25 153 25 c 1
 148 0 l 1
 26 0 l 1
 31 25 l 1
 48 28 57 30 61 33 c 0
 71 38 82 48 93 61 c 2
 195 175 l 1
 153 273 l 1
 146 288 141 305 128 308 c 2
 97 312 l 1
 103 340 l 1
 270 340 l 1
 264 312 l 1
 243 312 233 309 232 304 c 0
 230 298 237 277 252 242 c 1
 283 277 300 297 303 304 c 0
 304 309 295 312 276 312 c 1
 282 340 l 1
 413 340 l 1
 407 312 l 1
 380 312 358 303 343 285 c 1
 268 203 l 1
 329 66 l 2
 340 41 357 28 380 25 c 1
 375 0 l 1
EndSplineSet
MinimumDistance: x2,-1 
Back
375 0 m 1
 211.914 0 l 1
 216.797 24.9023 l 1
 241.211 28.8086 l 2
 244.141 30.2734 246.094 33.2031 247.07 38.0859 c 0
 248.535 40.5273 247.07 46.875 243.164 56.1523 c 2
 208.984 132.812 l 1
 144.043 57.1289 l 2
 139.16 51.7578 135.742 46.875 132.324 42.4805 c 0
 129.395 38.0859 127.441 34.1797 125.977 30.7617 c 0
 124.512 28.8086 126.465 27.3438 131.348 26.3672 c 0
 136.719 25.3906 143.555 24.9023 152.832 24.9023 c 1
 147.949 0 l 1
 25.8789 0 l 1
 30.7617 24.9023 l 1
 39.5508 26.3672 46.3867 27.832 50.7812 28.8086 c 0
 55.6641 30.2734 59.082 31.7383 61.0352 33.2031 c 0
 70.8008 38.5742 81.543 47.8516 92.7734 61.0352 c 2
 194.824 174.805 l 1
 152.832 272.949 l 2
 149.902 280.273 146.484 287.598 143.066 294.922 c 0
 139.648 302.246 134.766 306.641 127.93 308.105 c 2
 97.168 312.012 l 1
 103.027 339.844 l 1
 270.02 339.844 l 1
 264.16 312.012 l 1
 243.164 312.012 232.91 309.57 231.934 304.199 c 0
 229.98 297.852 236.816 277.344 251.953 242.188 c 1
 267.09 259.277 279.297 272.949 288.086 283.691 c 0
 296.875 293.945 301.758 300.781 303.223 304.199 c 0
 303.711 309.57 294.434 312.012 275.879 312.012 c 1
 282.227 339.844 l 1
 413.086 339.844 l 1
 407.227 312.012 l 1
 379.883 312.012 358.398 303.223 342.773 285.156 c 1
 268.066 203.125 l 1
 329.102 65.918 l 2
 339.844 41.5039 356.445 27.832 379.883 24.9023 c 1
 375 0 l 1
EndSplineSet
EndChar
StartChar: y
Encoding: 121 121 90
OldEncoding: 121
Width: 381
Flags: HW
HStem: -163 21<38.5 84.5> 318 28<247 261 333 333.5 435 443>
Fore
228 -7 m 1
 165 -111 109 -163 60 -163 c 0
 17 -163 1 -143 8 -115 c 0
 12 -92 31 -69 62 -69 c 0
 75 -69 83 -72 94 -77 c 0
 99 -80 106 -83 111 -83 c 0
 124 -83 143 -67 162 -35 c 2
 194 19 l 1
 128 300 l 1
 125 308 114 314 95 318 c 1
 101 346 l 1
 267 346 l 1
 261 318 l 1
 233 318 218 314 216 305 c 0
 215 299 215 293 217 287 c 1
 256 119 l 1
 357 302 l 1
 358 305 357 310 354 313 c 0
 349 316 340 318 327 318 c 1
 333 346 l 1
 449 346 l 1
 443 318 l 1
 427 318 411 308 402 291 c 1
 228 -7 l 1
EndSplineSet
MinimumDistance: x3,-1 
Back
228.027 -6.83594 m 1
 401.855 291.016 l 2
 406.738 299.805 412.598 306.152 419.922 311.035 c 0
 427.246 315.43 435.059 317.871 442.871 317.871 c 1
 449.219 346.191 l 1
 333.008 346.191 l 1
 327.148 317.871 l 1
 339.844 317.871 348.633 316.406 354.004 312.988 c 0
 355.469 311.523 356.445 310.059 356.934 307.617 c 0
 357.91 305.176 357.91 303.223 356.934 301.758 c 2
 255.859 119.141 l 1
 216.797 287.109 l 1
 214.844 292.969 214.844 298.828 215.82 305.176 c 0
 217.773 313.477 232.91 317.871 261.23 317.871 c 1
 267.09 346.191 l 1
 101.074 346.191 l 1
 95.2148 317.871 l 1
 113.77 313.965 124.512 308.105 127.93 299.805 c 1
 193.848 19.043 l 1
 162.109 -35.1562 l 2
 152.832 -50.7812 143.555 -62.9883 134.277 -70.8008 c 0
 125.488 -79.1016 117.676 -83.0078 110.84 -83.0078 c 0
 108.398 -83.0078 105.469 -82.5195 102.539 -81.0547 c 0
 99.6094 -79.5898 96.6797 -78.125 94.2383 -77.1484 c 0
 88.8672 -74.2188 83.4961 -72.2656 79.1016 -70.8008 c 0
 74.2188 -69.8242 68.8477 -68.8477 62.0117 -68.8477 c 0
 46.875 -68.8477 34.1797 -73.7305 24.9023 -83.4961 c 0
 15.625 -93.2617 9.76562 -103.516 7.8125 -115.234 c 0
 4.88281 -128.906 7.32422 -140.625 15.625 -149.414 c 0
 23.9258 -158.691 38.5742 -163.086 60.0586 -163.086 c 0
 109.375 -163.086 165.527 -110.84 228.027 -6.83594 c 1
EndSplineSet
EndChar
StartChar: z
Encoding: 122 122 91
OldEncoding: 122
Width: 351
Flags: HW
HStem: 0 39<136 217> 300 40<190 273 273 273>
Fore
345 110 m 1
 312 0 l 1
 27 0 l 1
 31 20 l 1
 273 300 l 1
 190 300 l 2
 151 300 137 273 126 237 c 1
 92 237 l 1
 118 340 l 1
 384 340 l 1
 380 318 l 1
 136 39 l 1
 217 39 l 2
 272 39 294 58 317 119 c 1
 345 110 l 1
EndSplineSet
Back
345.215 109.863 m 1
 312.012 0 l 1
 26.8555 0 l 1
 30.7617 20.0195 l 1
 272.949 299.805 l 1
 189.941 299.805 l 2
 170.898 299.805 156.738 293.945 147.461 282.227 c 0
 138.672 270.02 131.348 254.883 125.977 236.816 c 1
 91.7969 236.816 l 1
 118.164 339.844 l 1
 383.789 339.844 l 1
 379.883 317.871 l 1
 136.23 39.0625 l 1
 216.797 39.0625 l 2
 244.141 39.0625 265.137 44.4336 278.809 56.1523 c 0
 292.969 67.3828 305.664 88.3789 316.895 119.141 c 1
 345.215 109.863 l 1
EndSplineSet
EndChar
StartChar: braceleft
Encoding: 123 123 92
OldEncoding: 123
Width: 215
Flags: HW
HStem: -121 21<153.5 175> 460 20<281.5 303>
Fore
175 -121 m 1
 132 -121 104 -117 89 -102 c 0
 72 -86 67 -58 75 -17 c 1
 100 101 l 2
 109 144 96 160 41 179 c 1
 101 195 125 215 133 255 c 1
 159 377 l 1
 168 417 182 444 209 460 c 1
 228 473 260 480 303 480 c 1
 298 456 l 1
 251 445 234 425 225 380 c 1
 201 266 l 1
 195 239 187 218 176 203 c 1
 166 192 154 184 141 179 c 1
 170 162 174 142 163 91 c 1
 140 -21 l 1
 129 -66 140 -85 180 -98 c 1
 175 -121 l 1
EndSplineSet
Back
174.805 -121.094 m 1
 153.809 -121.094 135.742 -119.629 121.582 -117.188 c 0
 106.934 -114.258 96.1914 -109.375 88.8672 -102.051 c 0
 71.7773 -85.9375 66.8945 -57.6172 75.1953 -17.0898 c 1
 100.098 101.074 l 2
 104.492 122.559 103.027 138.184 94.7266 148.926 c 0
 85.9375 159.668 68.3594 169.434 41.0156 179.199 c 1
 70.8008 187.012 92.7734 196.777 106.445 208.008 c 0
 120.117 219.238 128.906 234.863 132.812 254.883 c 1
 159.18 376.953 l 1
 163.574 396.973 169.922 414.062 177.734 427.734 c 0
 185.059 441.406 195.801 452.148 208.984 459.961 c 0
 228.516 473.145 259.766 479.98 303.223 479.98 c 1
 297.852 456.055 l 1
 274.902 450.684 257.812 442.383 247.559 431.152 c 0
 237.305 419.434 229.492 402.832 225.098 379.883 c 2
 201.172 266.113 l 1
 194.824 239.258 186.523 218.262 175.781 203.125 c 1
 166.016 191.895 154.297 183.594 141.113 179.199 c 1
 155.762 170.41 164.551 159.668 166.992 147.461 c 0
 169.434 135.254 168.457 116.211 163.086 90.8203 c 2
 140.137 -20.9961 l 1
 134.766 -43.457 134.766 -60.5469 141.113 -71.2891 c 0
 146.973 -82.5195 160.156 -91.3086 180.176 -98.1445 c 1
 174.805 -121.094 l 1
EndSplineSet
EndChar
StartChar: bar
Encoding: 124 124 93
OldEncoding: 124
Width: 67
Flags: HW
HStem: -117 21<-13 22 22 22> 457 20<113 148 113 113>
Fore
22 -117 m 1
 -13 -117 l 1
 113 477 l 1
 148 477 l 1
 22 -117 l 1
EndSplineSet
Back
21.9727 -117.188 m 1
 -13.1836 -117.188 l 1
 112.793 477.051 l 1
 147.949 477.051 l 1
 21.9727 -117.188 l 1
EndSplineSet
EndChar
StartChar: braceright
Encoding: 125 125 94
OldEncoding: 125
Width: 188
Flags: HW
HStem: -121 21<-15 7> 460 20<113 135.5>
Fore
216 170 m 1
 177 159 162 142 153 101 c 1
 128 -17 l 2
 120 -56 104 -85 80 -102 c 0
 61 -115 29 -121 -15 -121 c 1
 -10 -98 l 1
 31 -87 56 -62 65 -21 c 1
 88 91 l 1
 94 118 102 139 112 152 c 2
 111 151 l 2
 119 162 131 171 146 178 c 1
 118 194 115 217 126 266 c 1
 150 380 l 2
 159 424 149 445 108 456 c 1
 113 480 l 1
 158 480 188 473 201 460 c 0
 217 445 221 417 212 376 c 2
 186 255 l 1
 179 220 190 197 220 187 c 1
 216 170 l 1
EndSplineSet
Back
215.82 169.922 m 1
 196.777 164.551 182.617 157.227 173.34 146.973 c 0
 164.551 137.207 157.715 121.582 152.832 101.074 c 1
 127.93 -17.0898 l 1
 120.117 -56.1523 104.004 -84.4727 80.0781 -102.051 c 0
 70.8008 -108.887 58.1055 -113.281 41.9922 -116.699 c 0
 25.8789 -119.629 6.83594 -121.094 -15.1367 -121.094 c 1
 -9.76562 -98.1445 l 1
 31.25 -87.4023 56.1523 -61.5234 64.9414 -20.9961 c 1
 87.8906 90.8203 l 1
 94.2383 118.164 102.051 138.672 111.816 151.855 c 2
 110.84 150.879 l 2
 119.141 162.109 130.859 171.387 145.996 178.223 c 1
 131.836 186.035 124.023 196.289 121.582 209.473 c 0
 119.141 222.656 120.605 241.211 125.977 266.113 c 2
 149.902 379.883 l 2
 154.785 401.855 153.809 418.945 147.949 430.664 c 0
 142.09 442.383 128.906 450.684 107.91 456.055 c 1
 112.793 479.98 l 1
 158.203 479.98 187.5 473.145 201.172 459.961 c 0
 216.797 444.824 220.703 416.504 211.914 375.977 c 2
 186.035 254.883 l 2
 178.711 219.727 189.941 196.777 220.215 187.012 c 1
 215.82 169.922 l 1
EndSplineSet
EndChar
StartChar: asciitilde
Encoding: 126 126 95
OldEncoding: 126
Width: 368
Flags: HW
HStem: 101 21<78 78> 193 20<357 357>
Fore
383 169 m 1
 355 143 l 1
 337 129 l 2
 320 117 301 111 278 111 c 0
 262 111 239 116 208 131 c 0
 182 144 160 150 143 150 c 0
 126 150 105 134 78 101 c 1
 52 145 l 1
 83 184 118 204 157 204 c 0
 174 204 198 197 228 183 c 0
 255 171 277 165 290 164 c 0
 305 164 328 180 357 213 c 1
 383 169 l 1
EndSplineSet
Back
382.812 168.945 m 1
 354.98 143.066 l 1
 336.914 128.906 l 2
 320.312 117.188 300.781 110.84 277.832 110.84 c 0
 270.02 110.84 260.254 112.305 248.535 115.723 c 0
 236.816 118.652 223.145 123.535 208.008 130.859 c 0
 182.129 143.555 160.156 149.902 143.066 149.902 c 0
 126.465 149.902 104.492 133.789 78.125 101.074 c 1
 51.7578 145.02 l 1
 83.4961 184.57 118.164 204.102 157.227 204.102 c 0
 174.316 204.102 198.242 196.777 228.027 183.105 c 0
 241.211 176.758 253.418 172.363 264.16 169.434 c 0
 274.902 166.504 283.203 164.551 290.039 164.062 c 0
 305.176 164.062 327.637 180.176 356.934 212.891 c 1
 382.812 168.945 l 1
EndSplineSet
EndChar
StartChar: uni0E10.descless
Encoding: 128 -1 96
OldEncoding: 63232
Width: 359
Flags: HW
HStem: 0 21<180 253 180 180> 327 20<309.5 320.5> 365 20 380 21<352 390 390 390>
Fore
295 197 m 1
 253 0 l 1
 180 0 l 1
 195 71 196 119 185 152 c 1
 176 124 151 101 124 101 c 0
 96 101 82 135 89 163 c 0
 97 200 121 227 162 227 c 0
 189 227 209 217 222 197 c 1
 226 226 213 246 183 256 c 0
 160 263 124 267 77 267 c 1
 101 331 155 385 213 385 c 0
 232 385 249 384 266 373 c 2
 280 365 l 2
 292 357 306 347 313 347 c 0
 328 347 339 361 352 380 c 1
 390 380 l 1
 365 328 332 302 292 302 c 0
 279 302 252 309 231 316 c 0
 215 321 203 326 198 326 c 0
 173 326 154 319 141 304 c 1
 163 304 l 2
 202 304 233 298 257 282 c 0
 288 262 303 233 295 197 c 1
114 164 m 0
 110 145 116 131 131 131 c 0
 163 131 178 197 145 197 c 0
 130 197 118 183 114 164 c 0
EndSplineSet
Back
294.922 196.777 m 2
 298.828 214.844 297.363 230.957 290.527 245.605 c 0
 283.691 259.766 272.461 271.973 256.836 282.227 c 0
 245.117 290.039 230.957 295.898 215.332 298.828 c 0
 199.707 302.246 182.129 304.199 163.086 304.199 c 2
 141.113 304.199 l 1
 154.297 318.848 173.34 326.172 198.242 326.172 c 0
 200.684 326.172 204.59 325.195 210.449 323.242 c 0
 216.309 320.801 223.145 318.848 230.957 315.918 c 0
 241.699 312.5 252.93 309.57 264.648 306.641 c 0
 276.367 303.711 285.156 301.758 291.992 301.758 c 0
 332.031 301.758 364.746 328.125 390.137 379.883 c 1
 352.051 379.883 l 1
 345.215 370.605 338.867 362.793 333.008 356.445 c 0
 327.148 350.098 320.312 347.168 312.988 347.168 c 0
 309.57 347.168 304.688 349.121 298.34 353.027 c 0
 291.992 356.934 286.133 360.84 279.785 365.234 c 2
 266.113 373.047 l 2
 257.324 378.418 248.535 381.836 240.234 382.812 c 0
 231.445 384.277 222.168 384.766 212.891 384.766 c 0
 199.219 384.766 185.059 381.836 170.898 375.488 c 0
 157.227 369.141 144.043 360.84 131.836 350.098 c 0
 120.117 339.355 109.375 326.66 100.098 312.5 c 0
 90.8203 298.34 83.0078 283.203 77.1484 267.09 c 1
 124.512 267.09 159.668 263.184 183.105 255.859 c 0
 212.891 246.094 226.074 226.562 222.168 196.777 c 1
 209.473 216.797 189.453 227.051 162.109 227.051 c 0
 141.113 227.051 125 221.191 112.793 208.984 c 0
 101.074 196.777 92.7734 181.641 88.8672 163.086 c 0
 85.4492 148.926 87.4023 135.254 93.2617 121.582 c 0
 99.6094 107.91 109.863 101.074 124.023 101.074 c 0
 137.207 101.074 149.902 105.957 161.133 116.211 c 0
 172.363 125.977 180.176 138.184 185.059 151.855 c 1
 190.43 135.254 192.871 114.746 191.895 89.8438 c 0
 191.406 65.4297 187.5 35.1562 180.176 0 c 1
 252.93 0 l 1
 294.922 196.777 l 2
113.77 164.062 m 0
 116.211 173.34 119.629 181.152 125.488 187.5 c 0
 131.348 193.848 137.695 196.777 145.02 196.777 c 0
 152.344 196.777 157.715 193.848 161.133 187.5 c 0
 164.551 181.152 165.039 173.34 163.086 164.062 c 0
 161.133 154.785 157.227 146.973 150.879 140.625 c 0
 145.02 134.277 138.184 130.859 130.859 130.859 c 0
 123.535 130.859 118.652 134.277 115.723 140.625 c 0
 112.305 146.973 111.816 154.785 113.77 164.062 c 0
EndSplineSet
KernsSLIF: 212 20 0 0 215 20 0 0 214 20 0 0 213 20 0 0
EndChar
StartChar: uni0E34.left
Encoding: 129 -1 97
OldEncoding: 63233
Width: 0
Flags: HW
HStem: 401 21<-65 -65> 537 20<-183.5 -136.5>
Fore
-140 477 m 0
 -121 472 -108 467 -93 460 c 1
 -108 484 -139 509 -176 509 c 0
 -195 509 -223 506 -227 490 c 0
 -228 483 -213 484 -201 484 c 0
 -174 484 -160 481 -140 477 c 0
-65 401 m 1
 -84 416 -111 427 -142 435 c 0
 -161 440 -183 445 -206 445 c 2
 -224 445 l 2
 -231 445 -237 445 -242 444 c 0
 -266 444 -279 446 -288 455 c 1
 -295 460 -301 472 -298 481 c 0
 -293 504 -262 530 -242 541 c 0
 -221 552 -197 557 -170 557 c 0
 -103 557 -29 492 -48 407 c 1
 -65 401 l 1
EndSplineSet
Back
-140.137 477.051 m 0
 -130.859 474.121 -122.559 471.68 -115.234 469.238 c 0
 -107.91 466.309 -100.098 463.379 -92.7734 459.961 c 1
 -100.098 472.168 -111.328 483.398 -125.977 493.652 c 0
 -140.625 503.906 -157.227 508.789 -175.781 508.789 c 0
 -185.547 508.789 -195.801 507.812 -207.031 505.371 c 0
 -218.262 502.93 -225.098 498.047 -227.051 490.234 c 0
 -227.539 486.816 -225.098 484.863 -219.238 484.375 c 0
 -212.891 484.375 -207.031 483.887 -201.172 483.887 c 0
 -187.5 483.887 -176.758 483.398 -167.969 481.934 c 0
 -159.18 480.469 -149.902 479.004 -140.137 477.051 c 0
-64.9414 400.879 m 1
 -74.2188 408.203 -85.4492 415.039 -99.1211 420.41 c 0
 -112.305 426.27 -126.465 431.152 -142.09 435.059 c 0
 -151.367 437.5 -161.621 439.941 -172.363 441.895 c 0
 -183.594 443.848 -194.824 444.824 -206.055 444.824 c 0
 -211.426 444.824 -217.285 444.824 -224.121 444.824 c 0
 -230.469 444.824 -236.816 444.824 -242.188 443.848 c 0
 -253.906 443.848 -263.672 444.824 -270.508 445.801 c 0
 -277.344 447.266 -283.203 450.195 -288.086 455.078 c 0
 -291.504 457.52 -293.945 461.426 -296.387 466.309 c 0
 -298.828 471.68 -299.316 476.562 -297.852 480.957 c 0
 -295.41 492.188 -287.598 503.906 -275.391 515.625 c 0
 -263.184 527.344 -251.953 535.645 -242.188 541.016 c 0
 -220.703 551.758 -196.777 557.129 -169.922 557.129 c 0
 -153.32 557.129 -136.719 553.223 -120.117 545.41 c 0
 -103.516 537.598 -88.8672 527.344 -77.1484 514.16 c 0
 -64.9414 500.488 -56.1523 484.863 -49.8047 466.309 c 0
 -43.9453 448.242 -43.457 428.223 -47.8516 407.227 c 1
 -64.9414 400.879 l 1
EndSplineSet
EndChar
StartChar: uni0E35.left
Encoding: 130 -1 98
OldEncoding: 63234
Width: 0
Flags: HW
HStem: 398 21 433 20<-225.5 -222 -222 -205> 579 20<-77 -22 -22 -22>
Fore
-22 599 m 1
 -48 475 l 1
 -41 455 -43 431 -50 398 c 1
 -77 419 -112 434 -140 443 c 0
 -159 448 -182 453 -205 453 c 2
 -222 453 l 2
 -229 453 -235 453 -240 452 c 0
 -264 452 -276 454 -287 463 c 0
 -294 468 -299 481 -296 490 c 0
 -291 513 -260 541 -240 551 c 0
 -219 562 -194 567 -167 567 c 0
 -138 567 -112 556 -89 539 c 1
 -77 599 l 1
 -22 599 l 1
-138 486 m 0
 -119 481 -105 476 -92 468 c 1
 -107 493 -137 519 -174 519 c 0
 -193 519 -222 515 -225 499 c 0
 -226 492 -211 493 -199 493 c 0
 -172 493 -158 490 -138 486 c 0
EndSplineSet
Back
-21.9727 599.121 m 1
 -77.1484 599.121 l 1
 -88.8672 539.062 l 1
 -100.098 547.852 -112.305 554.688 -125.488 559.57 c 0
 -138.672 564.453 -152.344 566.895 -166.992 566.895 c 0
 -194.336 566.895 -218.75 561.523 -240.234 550.781 c 0
 -245.117 548.34 -250.977 544.434 -256.348 540.039 c 0
 -262.207 535.156 -268.066 530.273 -273.438 524.902 c 0
 -279.297 519.531 -284.18 514.16 -288.086 507.812 c 0
 -291.992 501.953 -294.434 496.094 -295.898 490.234 c 0
 -297.363 485.352 -296.875 480.469 -294.922 475.098 c 0
 -292.969 469.727 -290.527 465.82 -287.109 462.891 c 0
 -281.738 458.496 -275.391 455.566 -268.555 454.102 c 0
 -261.719 452.637 -251.953 452.148 -240.234 452.148 c 0
 -234.863 452.637 -228.516 453.125 -222.168 453.125 c 0
 -215.82 453.125 -210.449 453.125 -205.078 453.125 c 0
 -193.848 453.125 -182.129 452.148 -170.898 450.195 c 0
 -159.668 448.242 -149.414 445.801 -140.137 442.871 c 0
 -125.977 438.477 -110.84 432.129 -94.7266 424.805 c 0
 -78.125 417.48 -63.4766 408.691 -49.8047 397.949 c 1
 -46.875 414.551 -44.4336 429.199 -43.9453 441.406 c 0
 -43.457 453.613 -44.4336 464.844 -47.8516 475.098 c 1
 -21.9727 599.121 l 1
-138.184 485.84 m 0
 -147.949 487.793 -157.227 489.746 -166.016 491.211 c 0
 -174.805 492.188 -185.547 493.164 -199.219 493.164 c 0
 -205.078 493.164 -210.938 493.164 -216.797 493.652 c 0
 -223.145 493.652 -225.586 495.605 -225.098 499.023 c 0
 -223.633 506.836 -217.285 512.207 -205.566 515.137 c 0
 -193.848 517.578 -183.105 519.043 -173.828 519.043 c 0
 -155.273 519.043 -138.672 513.672 -124.512 502.93 c 0
 -110.352 492.188 -99.1211 480.469 -91.7969 467.773 c 1
 -98.6328 472.168 -105.469 475.098 -112.793 478.027 c 0
 -120.117 480.469 -128.906 483.398 -138.184 485.84 c 0
EndSplineSet
EndChar
StartChar: uni0E36.left
Encoding: 131 -1 99
OldEncoding: 63235
Width: 0
Flags: HW
HStem: 408 21<-63 -63> 433 20<-225.5 -222 -222 -205> 579 20<-80.5 -52>
Fore
-47 414 m 1
 -63 408 l 1
 -82 423 -111 434 -140 443 c 0
 -159 448 -182 453 -205 453 c 2
 -222 453 l 2
 -229 453 -235 453 -240 452 c 0
 -264 452 -276 454 -287 463 c 0
 -294 468 -299 481 -296 490 c 0
 -291 513 -260 541 -240 551 c 0
 -219 562 -194 567 -167 567 c 0
 -156 567 -144 565 -133 561 c 1
 -118 584 -93 599 -68 599 c 0
 -36 599 -13 572 -20 540 c 0
 -24 521 -37 504 -54 493 c 1
 -43 470 -41 444 -47 414 c 1
-138 486 m 0
 -119 481 -105 476 -92 468 c 1
 -107 493 -137 519 -174 519 c 0
 -193 519 -222 515 -225 499 c 0
 -226 492 -211 493 -199 493 c 0
 -172 493 -158 490 -138 486 c 0
-99 540 m 0
 -102 529 -95 521 -84 521 c 0
 -73 521 -65 527 -62 540 c 0
 -59 551 -65 560 -76 560 c 0
 -87 560 -96 551 -99 540 c 0
EndSplineSet
Back
-46.875 414.062 m 1
 -41.0156 443.848 -43.457 470.215 -54.1992 493.164 c 1
 -45.4102 498.535 -38.0859 505.371 -32.2266 513.672 c 0
 -25.8789 521.973 -21.9727 530.762 -20.0195 540.039 c 0
 -16.6016 556.152 -20.0195 569.824 -29.2969 581.543 c 0
 -39.0625 593.262 -51.7578 599.121 -67.8711 599.121 c 0
 -80.5664 599.121 -92.7734 595.703 -104.492 588.379 c 0
 -116.211 581.543 -125.488 572.266 -132.812 561.035 c 1
 -144.531 564.941 -155.762 566.895 -166.992 566.895 c 0
 -194.336 566.895 -218.75 561.523 -240.234 550.781 c 0
 -245.117 548.34 -250.977 544.434 -256.348 540.039 c 0
 -262.207 535.156 -268.066 530.273 -273.438 524.902 c 0
 -279.297 519.531 -284.18 514.16 -288.086 507.812 c 0
 -291.992 501.953 -294.434 496.094 -295.898 490.234 c 0
 -297.363 485.352 -296.875 480.469 -294.922 475.098 c 0
 -292.969 469.727 -290.527 465.82 -287.109 462.891 c 0
 -281.738 458.496 -275.391 455.566 -268.555 454.102 c 0
 -261.719 452.637 -251.953 452.148 -240.234 452.148 c 0
 -234.863 452.637 -228.516 453.125 -222.168 453.125 c 0
 -215.82 453.125 -210.449 453.125 -205.078 453.125 c 0
 -193.848 453.125 -182.129 452.148 -170.898 450.195 c 0
 -159.668 448.242 -149.414 445.801 -140.137 442.871 c 0
 -125.488 438.477 -111.328 433.105 -97.6562 427.734 c 0
 -83.9844 421.875 -72.2656 415.527 -62.9883 408.203 c 1
 -46.875 414.062 l 1
-138.184 485.84 m 0
 -147.949 487.793 -157.227 489.746 -166.016 491.211 c 0
 -174.805 492.188 -185.547 493.164 -199.219 493.164 c 0
 -205.078 493.164 -210.938 493.164 -216.797 493.652 c 0
 -223.145 493.652 -225.586 495.605 -225.098 499.023 c 0
 -223.633 506.836 -217.285 512.207 -205.566 515.137 c 0
 -193.848 517.578 -183.105 519.043 -173.828 519.043 c 0
 -155.273 519.043 -138.672 513.672 -124.512 502.93 c 0
 -110.352 492.188 -99.1211 480.469 -91.7969 467.773 c 1
 -98.6328 472.168 -105.469 475.098 -112.793 478.027 c 0
 -120.117 480.469 -128.906 483.398 -138.184 485.84 c 0
-99.1211 540.039 m 0
 -97.6562 545.41 -94.7266 549.805 -90.332 554.199 c 0
 -85.9375 558.105 -81.543 560.059 -76.1719 560.059 c 0
 -70.8008 560.059 -66.8945 558.105 -63.9648 554.199 c 0
 -61.5234 549.805 -60.5469 545.41 -62.0117 540.039 c 0
 -65.4297 527.344 -72.7539 520.996 -83.9844 520.996 c 0
 -89.3555 520.996 -93.2617 522.949 -96.6797 526.367 c 0
 -99.6094 530.273 -100.098 534.668 -99.1211 540.039 c 0
EndSplineSet
EndChar
StartChar: uni0E37.left
Encoding: 132 -1 100
OldEncoding: 63236
Width: 0
Flags: HW
HStem: 398 21 433 20<-210.5 -193.5> 579 20<-130 -86 -86 -86 -66 -22 -22 -22>
Fore
-167 567 m 2
 -152 566 l 1
 -137 563 l 1
 -130 599 l 1
 -86 599 l 1
 -97 545 l 1
 -94 542 -93 542 -90 539 c 2
 -80 530 l 1
 -66 599 l 1
 -22 599 l 1
 -48 475 l 1
 -41 455 -43 431 -50 398 c 1
 -77 419 -112 434 -140 443 c 0
 -159 448 -182 453 -205 453 c 0
 -216 453 -229 452 -240 452 c 0
 -264 452 -276 455 -287 463 c 0
 -294 468 -299 481 -296 490 c 0
 -291 513 -260 541 -240 551 c 0
 -220 562 -194 570 -167 567 c 2
-138 486 m 0
 -119 481 -105 476 -92 468 c 1
 -107 493 -137 519 -174 519 c 0
 -193 519 -222 515 -225 499 c 0
 -226 492 -211 493 -199 493 c 0
 -172 493 -158 491 -138 486 c 0
EndSplineSet
Back
-166.992 566.895 m 2
 -180.176 568.359 -193.359 567.383 -206.055 563.965 c 0
 -218.75 560.547 -229.98 556.152 -240.234 550.781 c 0
 -245.117 548.34 -250.977 544.434 -256.348 540.039 c 0
 -262.207 535.156 -268.066 530.273 -273.438 524.902 c 0
 -279.297 519.531 -284.18 514.16 -288.086 507.812 c 0
 -291.992 501.953 -294.434 496.094 -295.898 490.234 c 0
 -297.363 485.352 -296.875 480.469 -294.922 475.098 c 0
 -292.969 469.727 -290.527 465.82 -287.109 462.891 c 0
 -281.738 458.984 -275.391 456.055 -268.555 454.59 c 0
 -261.719 452.637 -251.953 452.148 -240.234 452.148 c 0
 -234.863 452.148 -229.004 452.148 -222.656 452.637 c 0
 -216.309 452.637 -210.449 453.125 -205.078 453.125 c 0
 -193.848 453.125 -182.129 452.148 -170.898 450.195 c 0
 -159.668 448.242 -149.414 445.801 -140.137 442.871 c 0
 -125.977 438.477 -110.84 432.129 -94.7266 424.805 c 0
 -78.125 417.48 -63.4766 408.691 -49.8047 397.949 c 1
 -46.875 414.551 -44.4336 429.199 -43.9453 441.406 c 0
 -43.457 453.613 -44.4336 464.844 -47.8516 475.098 c 1
 -21.9727 599.121 l 1
 -65.918 599.121 l 1
 -80.0781 529.785 l 1
 -89.8438 539.062 l 2
 -91.3086 540.527 -92.2852 541.504 -93.2617 541.992 c 0
 -94.7266 542.48 -95.7031 543.457 -97.168 544.922 c 1
 -85.9375 599.121 l 1
 -129.883 599.121 l 1
 -137.207 562.988 l 1
 -151.855 565.918 l 1
 -166.992 566.895 l 2
-138.184 485.84 m 0
 -147.949 488.77 -157.227 490.723 -166.016 491.699 c 0
 -174.805 492.676 -185.547 493.164 -199.219 493.164 c 0
 -205.078 493.164 -210.938 493.164 -216.797 493.652 c 0
 -223.145 493.652 -225.586 495.605 -225.098 499.023 c 0
 -223.633 506.836 -217.285 512.207 -205.566 515.137 c 0
 -193.848 517.578 -183.105 519.043 -173.828 519.043 c 0
 -155.273 519.043 -138.672 513.672 -124.512 502.93 c 0
 -110.352 492.188 -99.1211 480.469 -91.7969 467.773 c 1
 -98.6328 472.168 -105.469 475.098 -112.793 478.027 c 0
 -120.117 480.469 -128.906 483.398 -138.184 485.84 c 0
EndSplineSet
EndChar
StartChar: ellipsis
Encoding: 133 8230 101
OldEncoding: 8230
Width: 531
Flags: HW
HStem: -6 77<116.5 131.5 262 263 407.5 408>
Fore
316 32 m 0
 311 11 294 -2 263 -6 c 1
 234 -6 220 6 223 31 c 0
 228 58 246 71 278 71 c 0
 291 71 302 67 310 59 c 0
 316 52 318 43 316 32 c 0
462 32 m 1
 457 11 439 -2 408 -6 c 1
 379 -6 366 6 369 31 c 0
 374 58 392 71 423 71 c 0
 436 71 447 67 456 59 c 1
 461 52 463 43 462 32 c 1
171 32 m 0
 165 7 147 -6 116 -6 c 0
 85 -6 72 7 78 32 c 0
 83 58 101 71 132 71 c 0
 163 71 176 58 171 32 c 0
EndSplineSet
Back
315.918 32.2266 m 0
 311.523 10.7422 293.457 -1.95312 263.184 -5.85938 c 1
 233.887 -5.85938 220.215 6.34766 223.145 30.7617 c 0
 227.539 57.6172 246.094 70.8008 277.832 70.8008 c 0
 291.504 70.8008 301.758 66.8945 310.059 59.082 c 0
 315.918 51.7578 317.871 42.4805 315.918 32.2266 c 0
461.914 32.2266 m 1
 457.52 10.7422 439.453 -1.95312 408.203 -5.85938 c 1
 379.395 -5.85938 366.211 6.34766 369.141 30.7617 c 0
 373.535 57.6172 391.602 70.8008 422.852 70.8008 c 0
 436.523 70.8008 447.266 66.8945 456.055 59.082 c 1
 460.449 51.7578 462.891 42.4805 461.914 32.2266 c 1
170.898 32.2266 m 0
 165.039 6.83594 146.484 -5.85938 116.211 -5.85938 c 0
 84.4727 -5.85938 71.7773 6.83594 78.125 32.2266 c 0
 83.4961 58.1055 101.562 70.8008 131.836 70.8008 c 0
 163.574 70.8008 176.27 58.1055 170.898 32.2266 c 0
EndSplineSet
EndChar
StartChar: uni0E48.low_left
Encoding: 134 -1 102
OldEncoding: 63237
Width: 0
Flags: HW
HStem: 428 21<-100.5 -92.5> 560 20<-93 -33 -93 -93>
Fore
-33 580 m 1
 -49 517 l 1
 -73 443 l 1
 -76 435 -89 428 -96 428 c 0
 -105 428 -114 435 -113 443 c 2
 -104 518 l 1
 -93 580 l 1
 -33 580 l 1
EndSplineSet
Back
-33.2031 580.078 m 1
 -48.8281 517.09 l 1
 -73.2422 442.871 l 2
 -74.2188 438.965 -77.6367 435.547 -83.0078 432.617 c 0
 -88.3789 429.688 -92.7734 428.223 -96.1914 428.223 c 0
 -100.586 428.223 -104.98 429.688 -108.398 432.617 c 0
 -112.305 435.547 -113.77 438.965 -112.793 442.871 c 1
 -104.004 518.066 l 1
 -92.7734 580.078 l 1
 -33.2031 580.078 l 1
EndSplineSet
EndChar
StartChar: uni0E49.low_left
Encoding: 135 -1 103
OldEncoding: 63238
Width: 0
Flags: HW
HStem: 419 158
Fore
-12 577 m 1
 -24 524 -50 483 -90 456 c 0
 -125 433 -159 419 -200 419 c 2
 -258 419 l 1
 -251 451 l 1
 -235 452 -221 457 -209 466 c 1
 -232 471 -239 490 -232 522 c 0
 -225 549 -201 577 -173 577 c 0
 -146 577 -130 551 -137 523 c 0
 -143 495 -154 473 -171 458 c 1
 -149 462 -131 472 -116 489 c 1
 -97 508 -83 538 -74 577 c 1
 -12 577 l 1
-202 521 m 0
 -206 504 -202 490 -191 490 c 0
 -180 490 -171 504 -167 521 c 0
 -164 538 -167 552 -178 552 c 0
 -189 552 -199 538 -202 521 c 0
EndSplineSet
Back
-12.207 577.148 m 1
 -74.2188 577.148 l 1
 -82.5195 537.598 -96.6797 508.301 -116.211 488.77 c 1
 -130.859 472.168 -148.926 461.914 -170.898 458.008 c 1
 -154.297 473.145 -143.066 495.117 -137.207 522.949 c 0
 -133.789 537.109 -135.742 549.316 -142.578 560.547 c 0
 -149.414 571.289 -159.668 577.148 -172.852 577.148 c 0
 -187.012 577.148 -199.707 571.289 -210.449 559.57 c 0
 -221.68 547.852 -228.516 535.156 -231.934 521.973 c 0
 -239.258 490.234 -231.445 471.191 -208.984 465.82 c 1
 -221.191 457.52 -234.863 452.148 -250.977 451.172 c 1
 -257.812 418.945 l 1
 -200.195 418.945 l 2
 -179.199 418.945 -160.156 422.363 -142.578 429.199 c 0
 -125 435.547 -107.422 444.824 -89.8438 456.055 c 0
 -49.8047 483.398 -23.9258 523.438 -12.207 577.148 c 1
-202.148 520.996 m 0
 -200.684 529.785 -197.754 537.109 -192.871 542.969 c 0
 -188.477 548.828 -183.105 551.758 -178.223 551.758 c 0
 -172.852 551.758 -168.945 548.828 -167.48 542.969 c 0
 -166.016 537.109 -165.527 529.785 -166.992 520.996 c 0
 -168.945 512.207 -172.363 504.883 -176.27 499.023 c 0
 -180.664 493.164 -185.547 490.234 -190.918 490.234 c 0
 -196.289 490.234 -200.195 493.164 -202.148 499.023 c 0
 -204.102 504.883 -204.102 512.207 -202.148 520.996 c 0
EndSplineSet
EndChar
StartChar: uni0E4A.low_left
Encoding: 136 -1 104
OldEncoding: 63239
Width: 0
Flags: HW
HStem: 412 137<-139 -136.5> 513 36<-209 -201.5 -139 -133.5> 531 20<-74 -14 -14 -14>
Fore
-14 551 m 1
 -33 458 -90 412 -183 412 c 1
 -177 444 l 1
 -154 449 -131 468 -127 487 c 0
 -124 504 -128 513 -139 513 c 0
 -150 513 -157 500 -162 475 c 1
 -193 475 l 1
 -188 500 -194 513 -209 513 c 1
 -197 506 -191 491 -198 463 c 0
 -202 442 -220 414 -255 414 c 0
 -282 414 -297 441 -292 468 c 0
 -289 483 -285 496 -274 509 c 0
 -259 529 -236 549 -201 549 c 0
 -186 549 -177 544 -169 533 c 1
 -158 542 -145 549 -133 549 c 0
 -95 549 -79 531 -84 496 c 1
 -77 525 l 1
 -74 551 l 1
 -14 551 l 1
-263 463 m 0
 -266 448 -260 439 -249 439 c 0
 -228 439 -217 488 -238 488 c 0
 -249 488 -260 478 -263 463 c 0
EndSplineSet
Back
-14.1602 550.781 m 1
 -74.2188 550.781 l 1
 -77.1484 524.902 l 1
 -83.9844 496.094 l 1
 -78.6133 531.25 -95.2148 548.828 -132.812 548.828 c 0
 -139.16 548.828 -145.02 547.363 -151.367 544.434 c 0
 -157.715 541.504 -163.574 537.598 -168.945 533.203 c 1
 -172.852 538.574 -177.734 542.48 -182.617 544.922 c 0
 -187.5 547.852 -193.848 548.828 -201.172 548.828 c 0
 -218.262 548.828 -232.91 544.922 -245.117 536.621 c 0
 -256.836 528.32 -266.602 519.043 -273.926 508.789 c 0
 -279.297 502.441 -283.203 495.605 -286.133 488.77 c 0
 -288.574 482.422 -290.527 475.098 -291.992 467.773 c 0
 -294.434 454.59 -292.48 442.383 -285.645 431.152 c 0
 -278.32 419.434 -268.555 414.062 -254.883 414.062 c 0
 -237.793 414.062 -224.121 419.434 -214.844 430.664 c 0
 -205.566 441.406 -200.195 452.148 -198.242 462.891 c 0
 -194.824 477.051 -194.336 487.793 -196.289 496.094 c 0
 -198.73 503.906 -203.125 509.766 -208.984 513.184 c 1
 -193.848 513.184 -188.477 500.488 -192.871 475.098 c 1
 -162.109 475.098 l 1
 -157.227 500.488 -149.902 513.184 -139.16 513.184 c 0
 -127.441 513.184 -123.535 504.395 -126.953 486.816 c 0
 -128.906 477.539 -134.766 468.75 -145.02 460.449 c 0
 -154.785 452.148 -165.527 446.777 -176.758 443.848 c 1
 -183.105 412.109 l 1
 -89.8438 412.109 -33.2031 458.496 -14.1602 550.781 c 1
-263.184 462.891 m 0
 -261.719 470.215 -258.301 476.562 -253.418 480.957 c 0
 -248.535 485.84 -243.164 487.793 -237.793 487.793 c 0
 -232.91 487.793 -229.492 485.84 -228.027 480.957 c 0
 -226.562 476.562 -226.562 470.215 -228.027 462.891 c 0
 -229.492 455.566 -231.934 449.707 -235.352 445.312 c 0
 -239.258 441.406 -243.652 438.965 -249.023 438.965 c 0
 -254.395 438.965 -258.301 441.406 -261.23 445.312 c 0
 -263.672 449.707 -264.16 455.566 -263.184 462.891 c 0
EndSplineSet
EndChar
StartChar: uni0E4B.low_left
Encoding: 137 -1 105
OldEncoding: 63240
Width: 0
Flags: HW
HStem: 419 21<-167 -111 -167 -167> 476 45<-201 -157 -84 -42> 557 20<-139 -70 -70 -70>
Fore
-139 577 m 1
 -70 577 l 1
 -84 521 l 1
 -32 521 l 1
 -42 476 l 1
 -96 476 l 1
 -111 419 l 1
 -167 419 l 1
 -157 476 l 1
 -211 476 l 1
 -201 521 l 1
 -148 521 l 1
 -139 577 l 1
EndSplineSet
Back
-139.16 577.148 m 1
 -147.949 520.996 l 1
 -201.172 520.996 l 1
 -210.938 476.074 l 1
 -157.227 476.074 l 1
 -166.992 418.945 l 1
 -110.84 418.945 l 1
 -96.1914 476.074 l 1
 -41.9922 476.074 l 1
 -32.2266 520.996 l 1
 -83.9844 520.996 l 1
 -69.8242 577.148 l 1
 -139.16 577.148 l 1
EndSplineSet
EndChar
StartChar: uni0E4C.low_left
Encoding: 138 -1 106
OldEncoding: 63241
Width: 0
Flags: HW
HStem: 407 21<-154.5 -119.5> 600 20<25 25>
Fore
-39 543 m 0
 -54 538 -68 532 -80 525 c 1
 -67 515 -63 497 -69 471 c 0
 -77 434 -103 407 -136 407 c 0
 -173 407 -194 436 -187 472 c 0
 -176 519 -138 539 -73 564 c 1
 -62 567 -37 577 -35 587 c 0
 -34 594 -34 600 -35 607 c 1
 25 620 l 1
 24 608 23 603 22 596 c 0
 17 573 1 558 -39 543 c 0
-139 466 m 0
 -143 447 -140 434 -128 434 c 1
 -104 430 -87 502 -114 500 c 0
 -126 500 -135 485 -139 466 c 0
EndSplineSet
Back
-39.0625 542.969 m 0
 -19.043 550.293 -4.39453 558.105 4.39453 566.406 c 0
 13.6719 574.707 19.5312 584.473 21.9727 596.191 c 0
 22.4609 599.121 22.9492 602.539 23.4375 605.957 c 0
 23.9258 609.375 24.4141 613.77 24.9023 620.117 c 1
 -35.1562 606.934 l 1
 -33.6914 600.098 -33.6914 593.75 -35.1562 586.914 c 0
 -35.6445 584.473 -37.5977 582.031 -40.5273 579.59 c 0
 -43.457 577.148 -46.875 575.195 -50.7812 573.242 c 0
 -55.1758 570.801 -59.082 569.336 -62.9883 567.383 c 0
 -66.8945 565.918 -70.3125 564.453 -73.2422 563.965 c 0
 -105.469 551.27 -131.348 538.574 -150.391 525.879 c 0
 -169.434 513.184 -181.641 495.117 -187.012 472.168 c 0
 -190.43 454.102 -187.5 438.477 -178.223 425.781 c 0
 -168.457 413.574 -154.785 407.227 -136.23 407.227 c 0
 -119.141 407.227 -104.98 413.086 -92.7734 424.805 c 0
 -81.0547 437.012 -73.2422 452.148 -68.8477 471.191 c 0
 -62.9883 497.07 -66.8945 515.137 -80.0781 524.902 c 1
 -74.2188 528.32 -67.3828 531.738 -60.5469 534.668 c 0
 -53.7109 537.598 -46.3867 540.527 -39.0625 542.969 c 0
-139.16 465.82 m 0
 -137.207 475.098 -133.789 483.398 -129.395 490.234 c 0
 -125 496.582 -120.117 500 -113.77 500 c 0
 -107.422 500 -103.027 496.582 -101.562 490.234 c 0
 -99.6094 483.398 -100.098 475.098 -102.051 465.82 c 0
 -104.004 456.543 -107.422 449.219 -111.816 442.871 c 0
 -116.699 437.012 -122.07 434.082 -127.93 434.082 c 0
 -133.789 434.082 -137.695 437.012 -139.648 442.871 c 0
 -141.113 449.219 -141.113 456.543 -139.16 465.82 c 0
EndSplineSet
EndChar
StartChar: uni0E48.low
Encoding: 139 -1 107
OldEncoding: 63242
Width: 0
Flags: HW
HStem: 418 21<-26.5 -18.5> 550 20<-20 41 -20 -20>
Fore
41 570 m 1
 25 507 l 1
 1 433 l 1
 -3 425 -15 418 -22 418 c 0
 -31 418 -40 425 -39 433 c 2
 -30 508 l 1
 -20 570 l 1
 41 570 l 1
EndSplineSet
Back
41.0156 569.824 m 1
 24.9023 506.836 l 1
 0.976562 433.105 l 1
 -0.976562 429.199 -4.39453 425.293 -9.27734 422.363 c 0
 -14.6484 419.434 -18.5547 417.969 -21.9727 417.969 c 0
 -26.8555 417.969 -30.7617 419.434 -34.668 422.363 c 0
 -38.0859 425.293 -39.5508 429.199 -39.0625 433.105 c 1
 -29.7852 507.812 l 1
 -20.0195 569.824 l 1
 41.0156 569.824 l 1
EndSplineSet
EndChar
StartChar: uni0E49.low
Encoding: 140 -1 108
OldEncoding: 63243
Width: 0
Flags: HW
HStem: 419 158
Fore
86 577 m 1
 74 524 48 483 8 456 c 0
 -27 433 -61 419 -102 419 c 2
 -160 419 l 1
 -153 451 l 1
 -137 452 -123 457 -111 466 c 1
 -134 471 -141 490 -134 522 c 0
 -127 549 -103 577 -75 577 c 0
 -48 577 -32 551 -39 523 c 0
 -45 495 -56 473 -73 458 c 1
 -51 462 -33 472 -18 489 c 1
 1 508 15 538 24 577 c 1
 86 577 l 1
-104 521 m 0
 -108 504 -104 490 -93 490 c 0
 -82 490 -73 504 -69 521 c 0
 -66 538 -69 552 -80 552 c 0
 -91 552 -101 538 -104 521 c 0
EndSplineSet
Back
85.9375 577.148 m 1
 23.9258 577.148 l 1
 15.1367 537.598 1.46484 508.301 -18.0664 488.77 c 1
 -32.7148 472.168 -50.7812 461.914 -73.2422 458.008 c 1
 -56.1523 473.145 -44.9219 495.117 -39.0625 522.949 c 0
 -35.6445 537.109 -37.5977 549.316 -44.4336 560.547 c 0
 -51.2695 571.289 -61.5234 577.148 -75.1953 577.148 c 0
 -88.8672 577.148 -101.562 571.289 -112.305 559.57 c 0
 -123.535 547.852 -130.859 535.156 -133.789 521.973 c 0
 -141.113 490.234 -133.789 471.191 -110.84 465.82 c 1
 -123.047 457.52 -137.207 452.148 -152.832 451.172 c 1
 -160.156 418.945 l 1
 -102.051 418.945 l 2
 -81.543 418.945 -62.0117 422.363 -44.4336 429.199 c 0
 -26.8555 435.547 -9.27734 444.824 7.8125 456.055 c 0
 47.8516 483.398 74.2188 523.438 85.9375 577.148 c 1
-104.004 520.996 m 0
 -102.539 529.785 -99.6094 537.109 -95.2148 542.969 c 0
 -90.332 548.828 -85.4492 551.758 -80.0781 551.758 c 0
 -74.707 551.758 -71.2891 548.828 -69.3359 542.969 c 0
 -67.8711 537.109 -67.8711 529.785 -68.8477 520.996 c 0
 -70.8008 512.207 -74.2188 504.883 -78.6133 499.023 c 0
 -83.0078 493.164 -87.8906 490.234 -92.7734 490.234 c 0
 -98.1445 490.234 -102.051 493.164 -104.004 499.023 c 0
 -105.957 504.883 -105.957 512.207 -104.004 520.996 c 0
EndSplineSet
EndChar
StartChar: uni0E4A.low
Encoding: 141 -1 109
OldEncoding: 63244
Width: 0
Flags: HW
HStem: 412 137<-37 -34.5> 513 36<-107 -99.5 -37 -31.5> 531 20<28 88 88 88>
Fore
88 551 m 1
 69 458 12 412 -81 412 c 1
 -75 444 l 1
 -52 449 -29 468 -25 487 c 0
 -22 504 -26 513 -37 513 c 0
 -48 513 -55 500 -60 475 c 1
 -91 475 l 1
 -86 500 -92 513 -107 513 c 1
 -95 506 -89 491 -96 463 c 0
 -100 442 -118 414 -153 414 c 0
 -180 414 -195 441 -190 468 c 0
 -187 483 -183 496 -172 509 c 0
 -157 529 -134 549 -99 549 c 0
 -84 549 -75 544 -67 533 c 1
 -56 542 -43 549 -31 549 c 0
 7 549 23 531 18 496 c 1
 25 525 l 1
 28 551 l 1
 88 551 l 1
-161 463 m 0
 -164 448 -158 439 -147 439 c 0
 -126 439 -115 488 -136 488 c 0
 -147 488 -158 478 -161 463 c 0
EndSplineSet
Back
87.8906 550.781 m 1
 27.832 550.781 l 1
 24.9023 524.902 l 1
 18.0664 496.094 l 1
 23.4375 531.25 6.83594 548.828 -30.7617 548.828 c 0
 -37.1094 548.828 -42.9688 547.363 -49.3164 544.434 c 0
 -55.6641 541.504 -61.5234 537.598 -66.8945 533.203 c 1
 -70.8008 538.574 -75.6836 542.48 -80.5664 544.922 c 0
 -85.4492 547.852 -91.7969 548.828 -99.1211 548.828 c 0
 -116.211 548.828 -130.859 544.922 -143.066 536.621 c 0
 -154.785 528.32 -164.551 519.043 -171.875 508.789 c 0
 -177.246 502.441 -181.152 495.605 -184.082 488.77 c 0
 -186.523 482.422 -188.477 475.098 -189.941 467.773 c 0
 -192.871 454.59 -190.43 442.383 -183.594 431.152 c 0
 -176.27 419.434 -166.504 414.062 -152.832 414.062 c 0
 -135.742 414.062 -122.559 419.434 -112.793 430.664 c 0
 -103.516 441.406 -98.1445 452.148 -96.1914 462.891 c 0
 -92.7734 477.051 -92.2852 487.793 -94.7266 496.094 c 0
 -96.6797 503.906 -101.074 509.766 -106.934 513.184 c 1
 -91.7969 513.184 -86.4258 500.488 -90.8203 475.098 c 1
 -60.0586 475.098 l 1
 -55.1758 500.488 -47.8516 513.184 -37.1094 513.184 c 0
 -25.8789 513.184 -21.4844 504.395 -24.9023 486.816 c 0
 -26.8555 477.539 -33.2031 468.75 -42.9688 460.449 c 0
 -53.2227 452.148 -63.4766 446.777 -75.1953 443.848 c 1
 -81.0547 412.109 l 1
 12.207 412.109 68.8477 458.496 87.8906 550.781 c 1
-161.133 462.891 m 0
 -159.668 470.215 -156.738 476.562 -151.367 480.957 c 0
 -146.484 485.84 -141.113 487.793 -136.23 487.793 c 0
 -130.859 487.793 -127.441 485.84 -125.977 480.957 c 0
 -124.512 476.562 -124.512 470.215 -125.977 462.891 c 0
 -127.441 455.566 -129.883 449.707 -133.301 445.312 c 0
 -137.207 441.406 -141.602 438.965 -146.973 438.965 c 0
 -152.344 438.965 -156.25 441.406 -159.18 445.312 c 0
 -161.621 449.707 -162.109 455.566 -161.133 462.891 c 0
EndSplineSet
EndChar
StartChar: uni0E4B.low
Encoding: 142 -1 110
OldEncoding: 63245
Width: 0
Flags: HW
HStem: 460 21<-66 -9 -66 -66> 516 45<-101 -55 16 59> 598 20<-39 30 30 30>
Fore
-39 618 m 1
 30 618 l 1
 16 561 l 1
 68 561 l 1
 59 516 l 1
 5 516 l 1
 -9 460 l 1
 -66 460 l 1
 -55 516 l 1
 -110 516 l 1
 -101 561 l 1
 -48 561 l 1
 -39 618 l 1
EndSplineSet
Back
-39.0625 618.164 m 1
 -47.8516 561.035 l 1
 -101.074 561.035 l 1
 -109.863 516.113 l 1
 -55.1758 516.113 l 1
 -65.918 459.961 l 1
 -8.78906 459.961 l 1
 4.88281 516.113 l 1
 59.082 516.113 l 1
 67.8711 561.035 l 1
 16.1133 561.035 l 1
 29.7852 618.164 l 1
 -39.0625 618.164 l 1
EndSplineSet
EndChar
StartChar: uni0E4C.low
Encoding: 143 -1 111
OldEncoding: 63246
Width: 0
Flags: HW
HStem: 407 21<-127 -92.5> 600 20<52 52>
Fore
-12 543 m 0
 -27 538 -41 532 -52 525 c 1
 -39 515 -36 497 -42 471 c 0
 -50 434 -76 407 -109 407 c 0
 -145 407 -166 436 -159 472 c 0
 -148 519 -112 539 -45 563 c 1
 -36 569 -11 574 -8 586 c 0
 -7 593 -7 600 -8 607 c 1
 52 620 l 1
 51 608 50 601 49 596 c 0
 44 573 28 558 -12 543 c 0
-112 466 m 0
 -116 447 -112 434 -100 434 c 1
 -78 430 -60 502 -86 500 c 0
 -98 500 -108 485 -112 466 c 0
EndSplineSet
Back
-12.207 542.969 m 0
 7.8125 550.293 22.4609 558.105 31.7383 566.406 c 0
 40.5273 574.707 46.3867 584.473 48.8281 596.191 c 0
 49.8047 598.633 50.293 602.051 50.293 605.469 c 0
 50.7812 609.375 51.2695 613.77 51.7578 620.117 c 1
 -7.8125 606.934 l 1
 -7.32422 600.098 -7.32422 593.262 -7.8125 585.938 c 0
 -8.78906 583.496 -10.7422 581.055 -13.6719 578.613 c 0
 -16.6016 576.172 -20.0195 574.219 -23.9258 571.777 c 0
 -27.832 569.824 -32.2266 568.359 -36.1328 566.895 c 0
 -40.0391 565.43 -42.9688 564.453 -44.9219 562.988 c 0
 -78.125 550.781 -104.492 538.574 -123.047 525.879 c 0
 -141.602 513.184 -153.809 495.117 -159.18 472.168 c 0
 -162.109 454.102 -159.18 438.477 -149.902 425.781 c 0
 -140.625 413.574 -126.953 407.227 -108.887 407.227 c 0
 -92.2852 407.227 -78.125 413.086 -65.918 424.805 c 0
 -54.1992 437.012 -45.8984 452.148 -41.9922 471.191 c 0
 -36.1328 497.07 -39.5508 515.137 -51.7578 524.902 c 1
 -46.875 528.32 -40.5273 531.738 -33.6914 534.668 c 0
 -26.3672 537.598 -19.5312 540.527 -12.207 542.969 c 0
-111.816 465.82 m 0
 -109.863 475.098 -106.445 483.398 -102.051 490.234 c 0
 -97.168 496.582 -91.7969 500 -85.9375 500 c 0
 -79.1016 500 -75.1953 496.582 -74.2188 490.234 c 0
 -72.7539 483.398 -73.2422 475.098 -75.1953 465.82 c 0
 -77.1484 456.543 -80.5664 449.219 -84.9609 442.871 c 0
 -89.8438 437.012 -94.7266 434.082 -100.098 434.082 c 0
 -105.957 434.082 -109.863 437.012 -111.816 442.871 c 0
 -113.77 449.219 -113.77 456.543 -111.816 465.82 c 0
EndSplineSet
EndChar
